<svg xmlns="http://www.w3.org/2000/svg" viewBox="0 0 320.11 427.92">
    <defs>
        <style>
            .a {
                fill: #231f20;
            }
        </style>
    </defs>
    <path
        class="a"
        d="M402,389.11V74.23l-2-2.85,2.28-2.88V57l-8-2.24H273.54V51.54h5L282,47.89,280.89,46h7V29.66h-8.4v-10l9.52,0-.12-14.77-.67-.16A201.81,201.81,0,0,0,247.17.68c-23.32,0-39,4.19-39.2,4.23l-.64.17v14.5l9.56.07v10h-9.74v7l-71.57,2.29h-.14c-2.65.5-7.66,2.77-7.66,7.78,0,.5-.08,4.94,2.65,6.31,1.16.58,2.29,1.13,3.35,1.54h-44L83.44,57V67.1l2.82,3-2.68,3v333l.37,1L83,409.24v11.25l.42.25a52,52,0,0,0,7.84,3.84c3.23,1.12,13.43,3.24,17.09,3.24,1.27,0,3.44.14,6,.3,3.39.22,7.44.48,10.68.48.81,0,1.56,0,2.24,0,5.3-.29,245.78-16.36,248.22-16.52.58,0,14.22-1.19,18.77-2.8,4.16-1.47,8.08-4.2,8.38-5.39l.47-11.21-1.28-1.7ZM277.8,49.8h-6v.43H223.41V49.8h-6.64l-1.55-4.2h63.36l1.26,2.06Zm-56.13,1.74v3.19H149.55a11,11,0,0,0,2.15-6.55l61.84-2.12,2,5.48h6.13ZM209.06,17.86V6.43a169.46,169.46,0,0,1,38.11-4,203.91,203.91,0,0,1,40,3.89L287.3,18l-9.55-.07v.49H218.63v-.44Zm68.68,1.37V30.1H218.63V19.23h59.11Zm-192.56,39,4.94-1.9h47.7l.25-.22a1.71,1.71,0,0,0,.7-1.84,1.45,1.45,0,0,0-1.65-.69c-1.47.14-4.25-1.26-5.91-2.08-1.49-.74-1.73-3.65-1.69-4.73,0-4.65,5.5-6,6.19-6.09l73.19-2.34V31.4h9.74V31h59.12v.4h8.4V44.3H277.8l.21.43H214.9l-.17-.46L149.89,46.5l.07.9s.35,5.42-3.19,7.44l-2.84,1.62h79.48V51.11H271.8v5.36H394.11l6.5,1.82v.21H85.18Zm0,8.19v-7H400.61V67.9l-1.85,2.33H88.48l.14-.16Zm.14,7.34L87.7,71.1H398.07l-.18.22,2.42,3.46V388.93l-.3,2.47.08.1c-5.6,6.59-20.62,7.47-20.79,7.48-2,.13-196.8,13.06-225.59,14.78-26.63,1.59-36,1-47.81.22l-3.42-.22c-11-.69-15.48-4.81-16.76-6.33l.13-.31-.5-1.34v-332ZM400.91,403.38a20.5,20.5,0,0,1-7.25,4.21c-4.33,1.54-18.19,2.69-18.31,2.71-2.43.16-242.89,16.23-248.19,16.52-3.31.18-8.53-.15-12.72-.42-2.55-.16-4.75-.3-6.07-.3-3.24,0-13.17-2-16.52-3.14a48.53,48.53,0,0,1-7.09-3.44v-9.9l.55-1.26c1.69,1.85,6.39,5.63,17.1,6.3l3.42.22c6.4.41,12.08.78,20.14.78,6.88,0,15.5-.27,27.78-1,28.79-1.72,223.63-14.65,225.59-14.78.65,0,15.34-.9,21.28-7.64l.71,1Z"
        transform="translate(-83.01 -0.68)"/><path
        class="a"
        d="M346.13,394.59l1-145.59h9.63c4.16,0,9.13-1.85,9.13-10.65,0-7.28-3-11-9-11h-9.6l.94-144.85v-.82H161.83V407.16l183.49-12.52Zm1.08-165.45h9.61c5,0,7.28,2.94,7.28,9.24,0,6.08-2.35,8.91-7.39,8.91h-9.62ZM163.57,122.87H173v28h-9.44Zm0,58.25h10v28.25h-10V181.11Zm0,55.93h10.18v1H163.57Zm10.18,1.83v1H163.57v-1Zm0,1.78v1.15H163.57v-1.15m10.18,2v1.15H163.57V242.6m10.18,2v1.21H163.57V244.6m10.18,2v1.09H163.57V246.6m10.18,1.89v1H163.57v-1m0,31.87H173.7V308.6H163.57V280.36Zm0,57.81H173.7v27H163.57Zm0,67.16V366h11V337.26h-11v-27.8h11v-30h-11V250.3h11V236.24h-11V210.16H174.4V180.31H163.57V151.63h10.25V122.06H163.57V83.42H346.42l-2,309.54Z"
        transform="translate(-83.01 -0.68)"/><path class="a" d="M181.83,389.19l148.66-9.09,1.16-280.74v-.87H181.83v290.7Zm1.74-289H329.9l-1.15,278.24-145.18,8.88V100.19Z" transform="translate(-83.01 -0.68)"/><path
        class="a"
        d="M243.17,200a7.23,7.23,0,0,0,4.8,5l10.14,3.15a7.26,7.26,0,0,0,4.26,0L272.51,205a7.23,7.23,0,0,0,4.8-5l7.24-27.25a4.27,4.27,0,0,0,.17-1.18,4.43,4.43,0,0,0-7.78-2.89,6.21,6.21,0,0,1-2.74,1.81L262,174.29a6.14,6.14,0,0,1-3.38,0l-12.25-3.8a6.35,6.35,0,0,1-2.77-1.82,4.42,4.42,0,0,0-7.78,2.88,4.26,4.26,0,0,0,.15,1.14Zm-3-31.36a2.92,2.92,0,0,1,2.22,1,7.87,7.87,0,0,0,3.45,2.27l12.28,3.81a7.68,7.68,0,0,0,4.24,0l12.27-3.81a7.72,7.72,0,0,0,3.42-2.26,2.93,2.93,0,0,1,5.15,1.9,2.79,2.79,0,0,1-.11.78l-7.24,27.27a5.72,5.72,0,0,1-3.79,4l-10.14,3.15a5.79,5.79,0,0,1-3.37,0l-10.14-3.15a5.73,5.73,0,0,1-3.79-4l-7.26-27.31a2.82,2.82,0,0,1-.1-.75,2.93,2.93,0,0,1,2.93-2.92Z"
        transform="translate(-83.01 -0.68)"/><path
        class="a"
        d="M312.6,195.31a4.43,4.43,0,0,0-3.34,1.52,6.2,6.2,0,0,1-2.88,1.87l-44.27,13.79a6.35,6.35,0,0,1-3.74,0l-44.29-13.77a6.24,6.24,0,0,1-2.87-1.88,4.42,4.42,0,0,0-7.47,4.44l10.67,29.46a7.21,7.21,0,0,0,4.58,4.34l39.16,12.19a7.2,7.2,0,0,0,4.22,0l39.14-12.18a7.23,7.23,0,0,0,4.59-4.36l10.65-29.42a4.5,4.5,0,0,0,.28-1.55,4.43,4.43,0,0,0-4.41-4.45h0Zm2.73,5.46-10.65,29.42a5.72,5.72,0,0,1-3.63,3.44l-39.13,12.18a5.74,5.74,0,0,1-3.34,0l-39.15-12.19a5.7,5.7,0,0,1-3.62-3.42l-10.67-29.45a3,3,0,0,1-.18-1,2.92,2.92,0,0,1,5.12-1.92,7.74,7.74,0,0,0,3.56,2.33l44.28,13.77a7.78,7.78,0,0,0,4.64,0l44.28-13.78a7.68,7.68,0,0,0,3.57-2.32,2.92,2.92,0,0,1,5.13,1.91,3,3,0,0,1-.2,1Z"
        transform="translate(-83.01 -0.68)"/><path
        class="a"
        d="M288.73,272a5.58,5.58,0,0,0-.33-1.86l-6.88-19a5.53,5.53,0,0,0-5.22-3.71,5.26,5.26,0,0,0-1.65.25l-12.56,3.91a6.24,6.24,0,0,1-3.69,0l-12.52-3.89a5.71,5.71,0,0,0-6.91,3.42l-6.89,19a5.52,5.52,0,0,0,3.36,7l.21.07,22.52,7a7.15,7.15,0,0,0,2.09.31,7.3,7.3,0,0,0,2.1-.31l22.51-7A5.51,5.51,0,0,0,288.73,272ZM261.9,282.85a5.67,5.67,0,0,1-3.31,0l-22.51-7a4,4,0,0,1-2.67-5l.07-.2,6.9-19a4.26,4.26,0,0,1,3.93-2.67,3.48,3.48,0,0,1,1.1.17l12.54,3.9a7.77,7.77,0,0,0,4.58,0l12.58-3.91a3.78,3.78,0,0,1,1.19-.18,4,4,0,0,1,3.81,2.71l6.88,19a4.1,4.1,0,0,1,.24,1.36,4,4,0,0,1-2.83,3.85ZM216.85,361a4.63,4.63,0,0,0,.68-2.62,4.56,4.56,0,0,0-1.45-3.22A4.61,4.61,0,0,0,212.8,354l-5,.17.43,12.54,2.67-.09-.12-3.37,2-.07,2.39,3.29,3.06-.11-2.82-3.88a4.51,4.51,0,0,0,1.44-1.43Zm-2.51-.9a1.79,1.79,0,0,1-1.31.64l-2.28.08-.15-4.41,2.28-.08a1.79,1.79,0,0,1,1.35.55,2.52,2.52,0,0,1,.1,3.25ZM291,358.46a4.62,4.62,0,0,0,.68-2.62,4.56,4.56,0,0,0-1.45-3.22,4.61,4.61,0,0,0-3.28-1.21l-5,.17.43,12.54,2.67-.09-.12-3.37,2-.07,2.39,3.29,3.06-.11-2.82-3.88a4.51,4.51,0,0,0,1.44-1.43Zm-2.51-.9a1.79,1.79,0,0,1-1.31.64l-2.28.08-.15-4.41,2.28-.08a1.79,1.79,0,0,1,1.35.56,2.52,2.52,0,0,1,.07,3.21ZM226,363.69l-.1-2.91,4.89-.17-.08-2.4-4.89.17-.09-2.46,6-.21-.08-2.38-8.67.3.44,12.54,9-.31-.09-2.38-6.28.21m29.61-1-.11-2.92,4.9-.17-.09-2.39-4.89.17-.08-2.47,6-.21-.09-2.38-8.66.3.43,12.54,9-.31-.08-2.38-6.28.22m15.14-.53L270.44,352l-2.68.1.44,12.54,8.51-.3-.08-2.38-5.84.2m-31.44-9.08.06,0v0h-.05m64.43,2.71-2.08.73-2.13-.58-1.47-4.85-2.75.1,1.71,5.66a2.41,2.41,0,0,0,1.67,1.62l1.72.47.16,4.58,2.66-.09-.16-4.58,1.68-.59a2.41,2.41,0,0,0,1.55-1.74l1.32-5.76-2.75.1Z"
        transform="translate(-83.01 -0.68)"/><path class="a" d="M242.52,363l-3.79-9.92-2.82.1,4.32,11.25a1.42,1.42,0,0,0,1,.75l1.42.39,1.39-.48a1.42,1.42,0,0,0,.9-.82l3.53-11.52-2.82.1Z" transform="translate(-83.01 -0.68)"/><path class="a" d="M187.62,383l136.92-8.36.88-269.88H187.62Zm1.74-276.51H323.67L322.81,373l-133.45,8.15V106.49Z" transform="translate(-83.01 -0.68)"/><path
        class="a"
        d="M145.57,49.74A3,3,0,1,0,143,51.07,3,3,0,0,0,145.57,49.74Zm-3.74.09a2.17,2.17,0,1,1,3-.6v0a2.16,2.16,0,0,1-3,.58Zm77-34.58a6.16,6.16,0,0,0-.12,1,6.15,6.15,0,0,0,.59-.83l.14-.23A8.32,8.32,0,0,0,220,16a8,8,0,0,0-.19-1.14l-.07-.29a11.48,11.48,0,0,0,.5-1.12,13.7,13.7,0,0,0,.46-1.44c.13.34.27.68.42,1,.24.53.51,1,.77,1.5-.06.2-.12.39-.16.57a7.68,7.68,0,0,0-.21,1.12,7.67,7.67,0,0,0,.67-.92l.08-.14.07.1a8.25,8.25,0,0,0,.7,1,8.25,8.25,0,0,0-.25-1.16,1.92,1.92,0,0,0-.16-.52,14.24,14.24,0,0,0,.69-1.41A16.63,16.63,0,0,0,224,11.1c.17.51.37,1,.59,1.58s.46,1,.7,1.5c-.12.31-.22.6-.3.86a7.75,7.75,0,0,0-.27,1.11,7.75,7.75,0,0,0,.72-.89l.24-.36.16.29a9.86,9.86,0,0,0,.72,1.07,9.86,9.86,0,0,0-.26-1.27c-.06-.23-.14-.48-.22-.75.2-.35.41-.72.6-1.11a16.34,16.34,0,0,0,.92-2.29,8.31,8.31,0,0,0,.23-.92,24.57,24.57,0,0,0,.94,2.53l.46,1a19.29,19.29,0,0,0-.79,1.91,9.71,9.71,0,0,0-.36,1.23,9.71,9.71,0,0,0,.8-1c.25-.35.53-.78.8-1.25.15.28.31.56.45.79a11.1,11.1,0,0,0,.77,1.14,11.11,11.11,0,0,0-.31-1.34c-.12-.41-.27-.89-.46-1.39l.18-.34a20.79,20.79,0,0,0,1.1-2.55c.23.6.49,1.25.77,1.88s.63,1.32.94,1.91q-.12.27-.21.51a9.5,9.5,0,0,0-.39,1.21,9.52,9.52,0,0,0,.83-1l.11-.14.27.47a14,14,0,0,0,.86,1.29,14,14,0,0,0-.4-1.49c-.08-.27-.19-.56-.3-.87.32-.47.66-1,1-1.55a15.55,15.55,0,0,0,.89-1.78c.19.45.4.92.63,1.38s.59,1.13.88,1.63c-.14.34-.27.66-.38,1a12.66,12.66,0,0,0-.44,1.4,12.66,12.66,0,0,0,.88-1.18l.34-.52.22.35a11.54,11.54,0,0,0,.84,1.13,11.54,11.54,0,0,0-.39-1.35c-.08-.23-.18-.49-.28-.76.3-.5.6-1,.89-1.6l.49-1c.21.5.44,1,.69,1.54a26.81,26.81,0,0,0,1.31,2.38,10.7,10.7,0,0,0-.32,1.12,9,9,0,0,0,.58-.72,12.54,12.54,0,0,0,.83,1.15,12.4,12.4,0,0,0-.4-1.4l-.08-.24a22.32,22.32,0,0,0,1.36-2.3c.3-.58.57-1.18.79-1.72.16.39.33.78.52,1.17.35.72.73,1.42,1.08,2-.06.18-.12.36-.17.53a8.62,8.62,0,0,0-.28,1.18,8.61,8.61,0,0,0,.73-1l.09-.14v.06a11.73,11.73,0,0,0,.83,1.15,11.73,11.73,0,0,0-.38-1.36l-.14-.4c.28-.48.57-1,.84-1.58a19.62,19.62,0,0,0,.77-1.89,19.62,19.62,0,0,0,.77,1.89c.27.56.56,1.1.84,1.58l-.14.4a11.73,11.73,0,0,0-.38,1.36,11.73,11.73,0,0,0,.83-1.15v-.06l.09.14a8.61,8.61,0,0,0,.73,1,8.62,8.62,0,0,0-.28-1.18,2.15,2.15,0,0,0-.17-.53c.36-.6.74-1.3,1.08-2,.19-.39.36-.78.52-1.17.23.55.49,1.14.79,1.72a22.32,22.32,0,0,0,1.36,2.3l-.08.24a12.4,12.4,0,0,0-.4,1.4,12.54,12.54,0,0,0,.83-1.15,9,9,0,0,0,.58.72,10.72,10.72,0,0,0-.32-1.12,26.81,26.81,0,0,0,1.31-2.38c.25-.52.48-1,.69-1.54.15.33.32.67.49,1,.29.56.59,1.1.89,1.6-.1.27-.2.53-.28.76a11.55,11.55,0,0,0-.39,1.35,11.54,11.54,0,0,0,.84-1.13l.22-.35.47.5a12.66,12.66,0,0,0,.88,1.18,12.65,12.65,0,0,0-.44-1.4c-.11-.29-.24-.62-.38-1,.3-.51.6-1.06.88-1.63s.44-.93.63-1.38c.25.56.55,1.17.89,1.78a13.44,13.44,0,0,0,1,1.55l-.3.87a14,14,0,0,0-.4,1.49,14,14,0,0,0,.86-1.29l.27-.47.11.14a9.52,9.52,0,0,0,.83,1,9.52,9.52,0,0,0-.39-1.21q-.09-.24-.21-.51c.32-.59.64-1.24.94-1.91s.55-1.28.77-1.88A20.78,20.78,0,0,0,266,13.2l.18.34c-.18.5-.34,1-.46,1.39a11.11,11.11,0,0,0-.31,1.34,11.09,11.09,0,0,0,.77-1.14c.14-.23.3-.51.45-.79.28.47.55.9.8,1.25a9.71,9.71,0,0,0,.8,1,9.71,9.71,0,0,0-.36-1.23,19.29,19.29,0,0,0-.79-1.91c.16-.32.31-.64.46-1a24.57,24.57,0,0,0,.94-2.53,8.32,8.32,0,0,0,.23.92,16.34,16.34,0,0,0,.92,2.29c.19.38.39.76.6,1.11-.08.26-.16.52-.22.75a9.86,9.86,0,0,0-.26,1.27,9.85,9.85,0,0,0,.72-1.07l.16-.29.24.36a7.75,7.75,0,0,0,.72.89,7.75,7.75,0,0,0-.27-1.11c-.08-.26-.18-.56-.3-.86.24-.47.48-1,.7-1.5s.42-1.07.59-1.58a16.62,16.62,0,0,0,.73,2.07c.22.5.46,1,.69,1.41-.06.18-.11.36-.16.52a8.25,8.25,0,0,0-.25,1.16,8.25,8.25,0,0,0,.7-1l.07-.1.08.14a7.67,7.67,0,0,0,.67.92,7.68,7.68,0,0,0-.21-1.12,2.24,2.24,0,0,0-.16-.57c.26-.46.53-1,.77-1.5.15-.34.29-.69.42-1a13.71,13.71,0,0,0,.46,1.44c.15.39.33.77.5,1.12l-.07.29a8,8,0,0,0-.19,1.14,8.3,8.3,0,0,0,.64-.82l.14.23a6.15,6.15,0,0,0,.59.83,6.16,6.16,0,0,0-.12-1,3.22,3.22,0,0,0-.19-.79,16.54,16.54,0,0,0,.75-1.63c.23-.58.39-1.08.54-1.58.15.46.34.94.55,1.43a9.42,9.42,0,0,0,.49,1c-.15.42-.28.82-.38,1.17a8.49,8.49,0,0,0-.25,1.17,8.49,8.49,0,0,0,.71-1c.11-.18.24-.38.36-.59l.24.4a7.93,7.93,0,0,0,.68.94,7.93,7.93,0,0,0-.22-1.14c-.07-.29-.17-.61-.29-1,.16-.3.31-.61.46-.94s.29-.69.42-1a9.74,9.74,0,0,0,.31,1c.12.31.3.8.46,1.16a10.91,10.91,0,0,0-.32,1.2,7,7,0,0,0-.16,1.08,7,7,0,0,0,.62-.89l.29-.51v.06a6.83,6.83,0,0,0,.58.9,6.82,6.82,0,0,0-.1-1.07A3.65,3.65,0,0,0,283,14c.13-.27.25-.55.37-.84a9,9,0,0,0,.34-1v.14a10.07,10.07,0,0,0,.66,1.82l.14.26a1.82,1.82,0,0,1-.11.4,4.77,4.77,0,0,0-.11.88,4.77,4.77,0,0,0,.57-.68,9.5,9.5,0,0,0,.92-1.64.74.74,0,0,1,.08-.22,4.89,4.89,0,0,0,.23.54,3.11,3.11,0,0,0,.38.59,3.11,3.11,0,0,0,.11-.7,5.76,5.76,0,0,0-.12-1.46,1.45,1.45,0,0,0-.13-.45v-.1a4.81,4.81,0,0,0,.11-.88,4.28,4.28,0,0,0-.35.39.91.91,0,0,0-.14-.34,3.14,3.14,0,0,0-.38-.59,3.14,3.14,0,0,0-.11.7,5.6,5.6,0,0,0,.06,1.07A10.31,10.31,0,0,0,285,13c-.07.15-.11.31-.17.46a10.21,10.21,0,0,0-.74-2.8q.08-.31.13-.62s-.13.16-.32.43a5.15,5.15,0,0,0-.44-.75,5.07,5.07,0,0,0,0,.91v.51a15,15,0,0,0-.84,1.72l-.08-.24a14.83,14.83,0,0,0-.77-1.81l.11-.35a8.56,8.56,0,0,0,.25-1.17,8.69,8.69,0,0,0-.68.93,6.78,6.78,0,0,0-.4-.61,6.88,6.88,0,0,0,.1,1.07,19.16,19.16,0,0,0-1,1.84l-.08.19-.05-.33a17,17,0,0,0-1.09-2.08,8.45,8.45,0,0,0,.15-1s-.17.21-.4.56a8.18,8.18,0,0,0-.5-.67,8,8,0,0,0,.22,1.13,16.93,16.93,0,0,0-1.06,2.19q-.17.42-.3.84l-.07-.18a12.72,12.72,0,0,0-1-1.95c.06-.18.11-.36.16-.52a8.32,8.32,0,0,0,.25-1.15,8.32,8.32,0,0,0-.7,1l-.09.15-.18-.23v.46a18.42,18.42,0,0,0-1,1.86c-.12.27-.23.54-.34.81-.09-.23-.18-.46-.28-.7a16.16,16.16,0,0,0-1.14-2.17l-.17-.25.11-.38a10,10,0,0,0,.26-1.27,10,10,0,0,0-.72,1.08L272,9.74V10a21.57,21.57,0,0,0-1.15,2.32c-.11.27-.22.55-.32.82l-.19-.41a16.34,16.34,0,0,0-1.25-2.12,8.31,8.31,0,0,0-.64-.81V9.68a11.2,11.2,0,0,0,.32-1.34A11.2,11.2,0,0,0,268,9.48a24,24,0,0,0-1.37,2.65l-.15.36a20.3,20.3,0,0,0-1.26-2.06L265,10.1c.09-.25.17-.49.24-.71a14.11,14.11,0,0,0,.4-1.49,14.09,14.09,0,0,0-.85,1.29l-.22.37-.12-.14.06.25c-.41.72-.86,1.6-1.27,2.5-.2.46-.39.91-.57,1.36-.17-.35-.36-.71-.56-1.07a20.89,20.89,0,0,0-1.35-2.08l.26-.7a11.65,11.65,0,0,0,.39-1.35,11.65,11.65,0,0,0-.83,1.13l-.24.37c-.32-.39-.56-.63-.56-.63a10,10,0,0,0,.32,1,18.56,18.56,0,0,0-1,1.89c-.18.37-.35.74-.51,1.1q-.24-.53-.51-1.05c-.28-.55-.59-1.09-.88-1.59l.15-.4a12.52,12.52,0,0,0,.4-1.4,12.52,12.52,0,0,0-.85,1.18V10l-.4-.61a12.77,12.77,0,0,0-.88-1.18A12.77,12.77,0,0,0,256,9.6c.12.32.26.68.42,1.06-.36.61-.74,1.3-1.09,2s-.6,1.31-.84,1.92c-.24-.6-.54-1.27-.88-1.93a23,23,0,0,0-1.25-2.12c.12-.31.23-.61.32-.88a11.83,11.83,0,0,0,.38-1.36,11.84,11.84,0,0,0-.83,1.15L252,10c-.35-.47-.61-.76-.61-.76a10.58,10.58,0,0,0,.35,1.2c-.31.54-.63,1.14-.93,1.76s-.45,1-.65,1.47c-.13-.32-.27-.65-.42-1a18.31,18.31,0,0,0-1.28-2.27,9.09,9.09,0,0,0,.21-.92s-.19.21-.45.57c-.26-.36-.45-.57-.45-.57a9.07,9.07,0,0,0,.21.92,18.31,18.31,0,0,0-1.28,2.27c-.15.33-.29.66-.42,1-.19-.48-.41-1-.65-1.47s-.62-1.22-.93-1.76A10.58,10.58,0,0,0,245,9.2s-.26.29-.61.76l-.3-.48a11.84,11.84,0,0,0-.83-1.15,11.83,11.83,0,0,0,.38,1.36c.09.27.2.57.32.88a23,23,0,0,0-1.25,2.12c-.34.66-.64,1.33-.88,1.93-.24-.61-.53-1.27-.84-1.92s-.73-1.41-1.09-2c.16-.38.31-.74.42-1.06a12.77,12.77,0,0,0,.44-1.4,12.78,12.78,0,0,0-.88,1.18l-.4.61V10a12.52,12.52,0,0,0-.85-1.18,12.52,12.52,0,0,0,.4,1.4l.15.4a18,18,0,0,0-.88,1.59c-.18.35-.35.71-.51,1.05-.16-.36-.33-.73-.51-1.1-.33-.67-.69-1.32-1-1.89a10,10,0,0,0,.32-1,7.07,7.07,0,0,0-.56.63l-.24-.37A11.65,11.65,0,0,0,235,8.37a11.65,11.65,0,0,0,.39,1.35c.07.22.16.45.26.7a20.88,20.88,0,0,0-1.35,2.08c-.2.36-.38.72-.56,1.07-.18-.45-.37-.9-.57-1.36-.41-.9-.86-1.78-1.27-2.5l.06-.25-.12.14-.22-.37a14.1,14.1,0,0,0-.85-1.29,14.11,14.11,0,0,0,.4,1.49c.07.22.15.46.24.71l-.24.33a20.3,20.3,0,0,0-1.26,2.06l-.15-.36a23.93,23.93,0,0,0-1.37-2.65,11.2,11.2,0,0,0-.77-1.14,11.2,11.2,0,0,0,.32,1.34v.15a8.31,8.31,0,0,0-.64.81A16.33,16.33,0,0,0,226,12.8l-.19.41c-.1-.27-.21-.55-.32-.82A21.57,21.57,0,0,0,224.29,10V9.71l-.12.15a9.94,9.94,0,0,0-.72-1.08,10,10,0,0,0,.26,1.27l.11.38-.17.25a16.16,16.16,0,0,0-1.14,2.17c-.1.23-.19.46-.28.7-.11-.27-.22-.54-.34-.81a18.41,18.41,0,0,0-1-1.86v-.46l-.18.23-.09-.15a8.33,8.33,0,0,0-.7-1,8.32,8.32,0,0,0,.25,1.15,1.92,1.92,0,0,0,.16.52,12.72,12.72,0,0,0-1,1.95l-.07.18q-.13-.42-.3-.84a16.93,16.93,0,0,0-.95-2.14,8,8,0,0,0,.22-1.13,8.17,8.17,0,0,0-.5.67c-.23-.35-.4-.56-.4-.56a8.44,8.44,0,0,0,.15,1,17,17,0,0,0-1.09,2.08l-.12.29-.08-.19a19.16,19.16,0,0,0-1-1.84,6.88,6.88,0,0,0,.1-1.07,6.78,6.78,0,0,0-.4.61,8.69,8.69,0,0,0-.68-.93,8.56,8.56,0,0,0,.25,1.17l.11.35a14.83,14.83,0,0,0-.77,1.81l-.08.24a15,15,0,0,0-.84-1.72v-.51a5.07,5.07,0,0,0,0-.91,5.17,5.17,0,0,0-.44.75c-.18-.26-.32-.43-.32-.43a7.45,7.45,0,0,0,.12.86,10.2,10.2,0,0,0-.74,2.8c-.06-.15-.11-.31-.17-.46a10.32,10.32,0,0,0-.57-1.1,5.6,5.6,0,0,0,.06-1.07,3.14,3.14,0,0,0-.11-.7,3.14,3.14,0,0,0-.38.59,2.67,2.67,0,0,0-.14.34,4.28,4.28,0,0,0-.35-.39,4.81,4.81,0,0,0,.11.88v.1a1.91,1.91,0,0,1-.13.45,5.76,5.76,0,0,0-.12,1.46,3.11,3.11,0,0,0,.11.7,3.11,3.11,0,0,0,.38-.59,4.89,4.89,0,0,0,.23-.54.26.26,0,0,0,.08.22,9.51,9.51,0,0,0,.92,1.64,4.77,4.77,0,0,0,.57.68,4.77,4.77,0,0,0-.11-.88,1.6,1.6,0,0,0-.11-.4l.14-.26a10.07,10.07,0,0,0,.66-1.82v-.14c.1.31.21.64.34,1a8.68,8.68,0,0,0,.37.84c-.05.23-.1.45-.13.66a6.83,6.83,0,0,0-.1,1.07,6.83,6.83,0,0,0,.58-.9V15l.29.51a7,7,0,0,0,.62.89,7,7,0,0,0-.16-1.08c-.07-.36-.19-.77-.32-1.2.16-.37.32-.76.46-1.16s.22-.7.31-1c.13.34.27.68.42,1s.3.63.46.94a8,8,0,0,0-.29,1A7.93,7.93,0,0,0,215.2,16a7.93,7.93,0,0,0,.68-.94l.24-.4c.12.21.24.41.36.59a8.49,8.49,0,0,0,.71,1,8.49,8.49,0,0,0-.25-1.17c-.1-.35-.23-.75-.38-1.17.17-.33.33-.67.49-1s.39-1,.55-1.43c.15.5.33,1,.54,1.58a12.93,12.93,0,0,0,.75,1.63,2.43,2.43,0,0,1-.08.54Z"
        transform="translate(-83.01 -0.68)"/></svg>
