<svg xmlns="http://www.w3.org/2000/svg" viewBox="0 0 490.14 401.4" width="150" height="200">
    <defs>
        <style>
            .a {
                fill: #231f20;
            }
        </style>
    </defs>
    <path
        d="M460.51 122.35h-55.08c-2.11-17-19.16-40.68-35.86-61.91-14.4-18.31-41.7-50.1-63.21-58.14V0H183.78v2.31c-21.5 8-48.8 39.83-63.21 58.14-16.7 21.23-33.75 44.92-35.86 61.91H29.63A29.67 29.67 0 0 0 0 152v219.77a29.67 29.67 0 0 0 29.63 29.63h430.88a29.67 29.67 0 0 0 29.63-29.63V152a29.67 29.67 0 0 0-29.63-29.65zm0 1.81A27.86 27.86 0 0 1 488.34 152v24h-.43v1h.43v190.55h-82.69V176.94h1.15v-1h-1.15v-50.21c0-.52 0-1-.05-1.57h54.91zM306.37 21.91c9.28 11.9 52.46 68.78 55.48 100.45h-3.14c-3.3-29.36-41.26-80.93-52.91-96.15l-.17.13a16.9 16.9 0 0 0 .74-4.43zm-1.49 6.33c12.22 16 48.53 65.73 51.86 94.12H134.13c1.37-19.44 18.58-51 51.2-94a12.06 12.06 0 0 0 2 3c2.41 2.57 5.86 3.88 10.27 3.88h94.91c4.41 0 7.86-1.31 10.27-3.88a12.11 12.11 0 0 0 2.1-3.12zm-121.1-6.33a17 17 0 0 0 .71 4.32c-33.38 43.82-51 76.14-52.32 96.13h-3.87c3.01-31.67 46.2-88.56 55.48-100.45zm-55.66 103.17v-.91H362v243.38H128.12V125.08zM306.65 4.52C327.55 13 354 43.79 368 61.66c16.6 21.1 35.66 47.45 35.66 64.07v12.66H403v1h.68V176h-.88v1h.88v190.3h-5.37v-.3h-1v.35H364V139.37h.45v-1H364V125c-.63-31.89-45.81-91.27-55.92-104.17.35.27.73.56 1.15.86l3.62 2.81 4.1 3.28 7.65 6.2 2.55 2 1 .76s-.28-.35-.81-.94-1.28-1.42-2.23-2.38-2.08-2.06-3.33-3.2-2.62-2.3-4-3.45-2.84-2.22-4.23-3.19-2.72-1.82-3.88-2.52c-.91-.53-1.72-1-2.37-1.29l-.89-1.12zM186.8 2v.6h1V2h114.56v.31h1V2h1.06v19c0 .05.3 5.44-3 9-2 2.15-5 3.25-8.83 3.25h-94.97c-3.84 0-6.81-1.09-8.83-3.25-3.35-3.57-3.05-9-3-9.07V2h1.06zm-64.68 59.7C136.18 43.79 162.59 13 183.5 4.52l.28 14.22-1 1.32c-.58.3-1.24.66-2 1.09-1.16.69-2.5 1.54-3.88 2.52s-2.82 2.07-4.23 3.19-2.77 2.31-4 3.45-2.38 2.23-3.33 3.2-1.7 1.81-2.23 2.38-.81.94-.81.94l1-.76 2.55-2 7.65-6.2 4.1-3.28 3.62-2.81.6-.45c-4.58 5.88-15.5 20.25-26.37 37-19.1 29.48-28.94 51.93-29.23 66.72V176h-.32v1h.26v190.3H92.81v-.3h-1v.35h-5.35V176.94h.88v-1h-.88v-50.21c0-16.62 19.06-42.97 35.66-64.07zM4.84 139.37h.57v-1a27.84 27.84 0 0 1 24.27-14.23h54.87c0 .53-.05 1.06-.05 1.57v12.66h-.64v1h.64V176h-1.15v1h1.15v190.55H1.81V176.94h.42v-1h-.42V152a27.65 27.65 0 0 1 3.03-12.63zm455.67 260.22H29.63A27.86 27.86 0 0 1 2 374.91h.71v-.66h-.79c-.07-.82-.12-1.64-.12-2.48V369h486.54v2.74c0 .84 0 1.66-.12 2.48h-.16v.66h.09a27.86 27.86 0 0 1-27.64 24.71z"
        class="a"/>
    <path
        d="M323.21 138.39h1.33v.98h-1.33zm-5.32 0h1.33v.98h-1.33zm15.96 0h1.33v.98h-1.33zm-2.66 0h1.33v.98h-1.33zm5.32 0h1.33v.98h-1.33zm-10.64 0h1.33v.98h-1.33zm2.66 0h1.33v.98h-1.33zm-13.3 0h1.33v.98h-1.33zm5.32 0h1.33v.98h-1.33zm29.26 0h1.33v.98h-1.33zm-10.64 0h1.33v.98h-1.33zm15.96 0h1.33v.98h-1.33zm-2.66 0h1.33v.98h-1.33zm-10.64 0h1.33v.98h-1.33zm5.32 0h1.33v.98h-1.33zm-2.66 0h1.33v.98h-1.33zm-58.51 0h1.33v.98h-1.33zm-90.42 0h1.33v.98h-1.33zm85.1 0h1.33v.98h-1.33zm77.12 0h1.33v.98h-1.33zm-79.78 0h1.33v.98H278zm-2.66 0h1.33v.98h-1.33zm-77.12 0h1.33v.98h-1.33zm7.97 0h1.33v.98h-1.33zm2.66 0h1.33v.98h-1.33zm5.32 0h1.33v.98h-1.33zm-13.29 0h1.33v.98h-1.33zm10.63 0h1.33v.98h-1.33zm85.11 0h1.33v.98h-1.33zm-103.72 0h1.33v.98h-1.33zm109.04 0h1.33v.98h-1.33zm5.31 0h1.33v.98h-1.33zm-7.97 0h1.33v.98h-1.33zm10.63 0h1.33v.98h-1.33zm2.66 0h1.33v.98h-1.33zm-109.03 0h1.33v.98h-1.33zm85.1 0h1.33v.98h-1.33zm2.66 0h1.33v.98h-1.33zm-7.98 0h1.33v.98h-1.33zm21.28 0h1.33v.98h-1.33zm-242.02 0h1.33v.98h-1.33zm47.87 0h1.33v.98h-1.33zm-2.66 0h1.33v.98h-1.33zm-39.89 0h1.33v.98H67.9zm37.24 0h1.33v.98h-1.33zm-39.9 0h1.33v.98h-1.33zm-5.32 0h1.33v.98h-1.33zm-2.65 0h1.33v.98h-1.33zm58.5 0h1.33v.98h-1.33zm-2.66 0h1.33v.98h-1.33zm-25.26.9l.88.88.7-.69-.11-.11h1.19v-.98h-1.33v.84l-.69-.69-.64.63v-.78h-1.33v.98h1.33v-.08m-17.29-.9h1.33v.98h-1.33zm23.94 0h1.33v.98H94.5zm2.66 0h1.33v.98h-1.33zm-42.55 0h1.33v.98h-1.33zm26.59 0h1.33v.98H81.2zm-2.66 0h1.33v.98h-1.33zm23.94 0h1.33v.98h-1.33zm-26.6 0h1.33v.98h-1.33zm-2.66 0h1.33v.98h-1.33zm26.6 0h1.33v.98h-1.33zm18.61 0h1.33v.98h-1.33zm-95.74 0h1.33v.98h-1.33zm-2.66 0h1.33v.98h-1.33zm5.32 0h1.33v.98h-1.33zm-7.98 0h1.33v.98h-1.33zm10.64 0h1.33v.98h-1.33zm-18.61 0h1.33v.98H9.4zm5.31 0h1.33v.98h-1.33zm-7.97 0h1.33v.98H6.74zm23.93 0H32v.98h-1.33zm-18.62 0h1.33v.98h-1.33zm23.94 0h1.33v.98h-1.33zm87.76 0h1.33v.98h-1.33zm-77.12 0h1.33v.98h-1.33zm-13.3 0h1.33v.98h-1.33zm18.62 0h1.33v.98h-1.33zm-2.66 0h1.33v.98h-1.33zm311.15 0h1.33v.98h-1.33zm-321.79 0h1.33v.98h-1.33zm5.32 0h1.33v.98h-1.33zm-2.66 0h1.33v.98h-1.33zm252.65 0h1.33v.98h-1.33zm-132.98 0h1.33v.98h-1.33zm74.47 0h1.33v.98h-1.33zm-77.13 0h1.33v.98h-1.33zm90.43 0h1.33v.98h-1.33zm-85.11 0h1.33v.98h-1.33zm69.15 0h1.33v.98h-1.33zm-77.12 0H157v.98h-1.33zm13.29 0h1.33v.98h-1.33zm74.47 0h1.33v.98h-1.33zm-5.32 0h1.33v.98h-1.33zm-103.72 0h1.33v.98h-1.33zm18.62 0h1.33v.98h-1.33zm13.29 0h1.33v.98h-1.33zm74.47 0h1.33v.98h-1.33zm-10.64 0h1.33v.98h-1.33zm-90.42 0h1.33v.98h-1.33zm77.12 0h1.33v.98h-1.33zm-74.46 0h1.33v.98h-1.33zm-13.3 0h1.33v.98h-1.33zm7.98 0h1.33v.98h-1.33zm-5.32 0h1.33v.98h-1.33zm18.62 0h1.33v.98h-1.33zm74.46 0h1.33v.98h-1.33zm2.66 0h1.33v.98h-1.33zm-79.78 0h1.33v.98h-1.33zm74.46 0h1.33v.98h-1.33zm-2.66 0h1.33v.98h-1.33zm-74.46 0h1.33v.98h-1.33zm101.06 0h1.33v.98h-1.33zm10.63 0h1.33v.98h-1.33zm-2.65 0h1.33v.98h-1.33zm7.97 0h1.33v.98h-1.33zm7.98 0h1.33v.98h-1.33zm-87.76 0h1.33v.98h-1.33zm-5.32 0h1.33v.98h-1.33zm2.66 0h1.33v.98h-1.33zm87.76 0h1.33v.98h-1.33zm-2.66 0h1.33v.98h-1.33zm-77.12 0h1.33v.98h-1.33zm85.1 0h1.33v.98h-1.33zm-21.27 0h1.33v.98h-1.33zm-79.79 0h1.33v.98h-1.33zm87.76 0h1.33v.98h-1.33zm-69.14 0h1.33v.98h-1.33zm-15.96 0h1.33v.98h-1.33zm10.64 0h1.33v.98h-1.33zm36.72 37.57h1.33v.98h-1.33zm-125 0h1.33v.98h-1.33zm167.55 0h1.33v.98h-1.33zm-39.89 0h1.33v.98h-1.33zm2.66 0h1.33v.98h-1.33zm-10.64 0h1.33v.98h-1.33zm55.85 0h1.33v.98h-1.33zm-5.32 0h1.33v.98h-1.33zm-135.63 0h1.33v.98h-1.33zm228.71 0h1.33v.98h-1.33zm-226.05 0h1.33v.98h-1.33zm-5.32 0h1.33v.98h-1.33zm90.42 0h1.33v.98h-1.33zm50.53 0h1.33v.98h-1.33zm-170.21 0h1.33v.98H99.3zm162.23 0h1.33v.98h-1.33zm-140.95.98h.28v.5h.98v-.5h.07v-.98h-1.33v.98m135.63-.98h1.33v.98h-1.33zm-138.29 0h1.33v.98h-1.33zm-2.66 0h1.33v.98h-1.33zm122.33 0h1.33v.98h-1.33zm7.98 0h1.33v.98h-1.33zm5.32 0h1.33v.98h-1.33zm-10.64 0h1.33v.98h-1.33zm13.3 0h1.33v.98h-1.33zm-10.64 0h1.33v.98h-1.33zm-119.67 0h1.33v.98h-1.33zm-21.28 0h1.33v.98h-1.33zm5.32 0h1.33v.98h-1.33zm-2.66 0h1.33v.98h-1.33zm125 0h1.33v.98h-1.33zm18.61 0h1.33v.98h-1.33zm-15.95 0h1.33v.98h-1.33zm26.59 0h1.33v.98h-1.33zm-146.27 0h1.33v.98h-1.33zm82.44 0h1.33v.98h-1.33zm-85.1 0h1.33v.98h-1.33zm125 0h1.33v.98h-1.33zm-63.83 0h1.33v.98h-1.33zm119.67 0h1.33v.98h-1.33zm-5.32 0h1.33v.98h-1.33zm2.66 0h1.33v.98h-1.33zm-7.97 0h1.33v.98h-1.33zm23.93 0h1.33v.98h-1.33zm-21.27 0h1.33v.98h-1.33zm-114.36 0h1.33v.98h-1.33zm-2.66 0h1.33v.98h-1.33zm135.63 0h1.33v.98h-1.33zm-2.66 0h1.33v.98h-1.33zm-206.11.85h.16v-1.33h-.98v.48h-.51v.98h1.33v-.13m200.79-.85h1.33v.98h-1.33zm-15.95 0h1.33v.98h-1.33zm18.61 0h1.33v.98h-1.33zm-122.33 0h1.33v.98h-1.33zm-37.23 0h1.33v.98h-1.33zm50.52 0h1.33v.98h-1.33zm18.62 0h1.33v.98h-1.33zm-2.66 0h1.33v.98h-1.33zm-10.64 0h1.33v.98h-1.33zm5.32 0h1.33v.98h-1.33zm2.66 0h1.33v.98h-1.33zm-18.61 0h1.33v.98h-1.33zm-2.66 0h1.33v.98h-1.33zm-2.66 0h1.33v.98h-1.33zm98.4 0h1.33v.98h-1.33zm-90.42 0h1.33v.98h-1.33zm29.25 0h1.33v.98h-1.33zm-2.66 0h1.33v.98H211zm-2.66 0h1.33v.98h-1.33zm-18.62 0h1.33v.98h-1.33zm148.93 0h1.33v.98h-1.33zm2.66 0h1.33v.98h-1.33zm-196.8 0h1.33v.98h-1.33zm18.62 0h1.33v.98h-1.33zm170.2 0h1.33v.98h-1.33zm-186.16 0h1.33v.98h-1.33zm196.8 0h1.33v.98h-1.33zm2.66 0h1.33v.98h-1.33zm7.98 0h1.33v.98h-1.33zm2.66 0h1.33v.98h-1.33zm-218.08 0h1.33v.98h-1.33zm2.66 0h1.33v.98h-1.33zm7.98 0h1.33v.98h-1.33zm199.46 0h1.33v.98h-1.33zm2.66 0h1.33v.98h-1.33zm-15.96 0h1.33v.98h-1.33zm-23.93 0h1.33v.98h-1.33zm5.32 0h1.33v.98h-1.33zm-159.57 0h1.33v.98h-1.33zm156.91 0h1.33v.98h-1.33zm-154.25 0h1.33v.98h-1.33zm146.27 0h1.33v.98h-1.33zm2.66 0h1.33v.98h-1.33zm10.64 0h1.33v.98h-1.33zm-167.55 0h1.33v.98h-1.33zm172.87 0h1.33v.98h-1.33zm2.66 0h1.33v.98h-1.33zm-172.87 0h1.33v.98h-1.33zm175.53 0h1.33v.98h-1.33zm-7.98 0h1.33v.98h-1.33zm-228.72 0h1.33v.98h-1.33zm-37.23 0h1.33v.98h-1.33zm2.66 0h1.33v.98h-1.33zm-7.98 0h1.33v.98h-1.33zm2.66 0h1.33v.98h-1.33zm7.98 0h1.33v.98h-1.33zm7.98 0h1.33v.98h-1.33zm-21.28 0h1.33v.98h-1.33zm15.96 0h1.33v.98h-1.33zm7.98 0h1.33v.98h-1.33zm2.66 0h1.33v.98h-1.33zm-7.98 0h1.33v.98h-1.33zm-31.91 0h1.33v.98h-1.33zm-2.66 0h1.33v.98h-1.33zm-2.66 0h1.33v.98h-1.33zm7.98 0h1.33v.98h-1.33zm2.65 0h1.33v.98h-1.33zm-31.91 0h1.33v.98H8.88zm37.23 0h1.33v.98h-1.33zm-23.93 0h1.33v.98h-1.33zm21.27 0h1.33v.98h-1.33zm-15.95 0h1.33v.98H27.5zm-2.66 0h1.33v.98h-1.33zm-18.62 0h1.33v.98H6.22zm5.32 0h1.33v.98h-1.33zm69.15 0h1.33v.98h-1.33zm-61.17 0h1.33v.98h-1.33zm58.51 0h1.33v.98h-1.33zm-63.83 0h1.33v.98H14.2zm2.66 0h1.33v.98h-1.33zm-13.3 0h1.33v.98H3.56zm119.972-1.015l.694-.693.94.94-.693.694zM97.196 148.62l.693-.694.94.94-.696.693zm18.812 18.803l.693-.692.94.94-.69.697zm-1.878-1.867l.694-.692.94.94-.694.693zm7.515 7.518l.693-.693.94.945-.693.693zm-18.815-18.796l.692-.693.94.94-.693.694zm-3.755-3.778l.693-.694.94.94-.693.694zm1.875 1.898l.692-.693.94.94-.69.693zm16.933 16.92l.693-.693.94.94-.693.694zm-9.413-9.408l.693-.692.94.94-.693.694zm-18.794-18.797l.693-.693.94.94-.696.693zm22.564 22.557l.692-.692.94.94-.692.694zm-4.7-4.69l.69-.7-.61-.62.61-.61-.69-.7-.94.94.37.37-.37.38.94.94m2.817 2.802l.693-.693.94.94-.692.69zm-16.922-16.914l.693-.693.94.94-.692.694zm11.275 11.272l.694-.692.94.94-.693.693zm-9.396-9.38l.692-.694.94.94-.69.693zm-5.637 27.45l.942-.938.69.694-.94.94zm11.273-11.28l.94-.94.694.693-.94.94zm1.88-1.877l.94-.94.695.692-.94.94zm-5.633 5.647l.94-.942.693.693-.94.945zm-7.767 9.15l-.7-.69-.94.94.7.69.18-.17v.32H90v-.98h-.68l.11-.11m19.043-20.433l.94-.94.694.693-.94.94zm-13.157 13.16l.94-.94.694.692-.94.94zm3.76-3.767l.94-.94.692.692-.94.94zm21.374-19.99l.41-.4v1.11h.98v-1.33h-.76l.32-.32-.7-.69-.94.94.69.69m-10.096 8.718l.94-.94.693.692-.94.94zm5.644-5.646l.94-.94.694.692-.94.94zm-11.278 11.283l.94-.942.693.693-.94.94zm13.157-13.162l.94-.94.693.692-.94.94zM93.43 170.457l.94-.94.694.69-.94.942zm18.812-18.797l.94-.94.693.69-.94.942zm11.278-11.283l.94-.94.694.692-.94.94zm-9.397 9.393l.94-.94.694.693-.94.94zM91.83 223.35h.98v1.33h-.98zm0 26.59h.98v1.33h-.98zm0-23.94h.98v1.33h-.98zm0-5.31h.98v1.33h-.98zm0 7.98h.98V230h-.98zm0-10.64h.98v1.33h-.98zm0-2.66h.98v1.33h-.98zm0 26.59h.98v1.33h-.98zm0 2.66h.98v1.33h-.98zm0-5.32h.98v1.33h-.98zm0-2.66h.98v1.33h-.98zm0-5.32h.98v1.33h-.98zm0 2.66h.98v1.33h-.98zm0 13.3h.98v1.33h-.98zm0-61.17h.98v1.33h-.98zm0-2.66h.98v1.33h-.98zm0 5.32h.98v1.33h-.98zm0-10.64h.98v1.33h-.98zm0 2.66h.98v1.33h-.98zm0 10.64h.98v1.33h-.98zm0 7.98h.98v1.33h-.98zm0 7.98h.98v1.33h-.98zm0 2.66h.98v1.33h-.98zm0-5.32h.98v1.33h-.98zm0-10.64h.98v1.33h-.98zm0 2.66h.98v1.33h-.98zm0 15.96h.98v1.33h-.98zm0 69.14h.98v1.33h-.98zm0 45.21h.98v1.33h-.98zm0-2.65h.98v1.33h-.98zm0 5.31h.98v1.33h-.98zm0 2.66h.98v1.33h-.98zm0 2.66h.98v1.33h-.98zm0-21.27h.98v1.33h-.98zm0 7.98h.98v1.33h-.98zm0-5.32h.98v1.33h-.98zm0-63.83h.98v1.33h-.98zm0 66.49h.98v1.33h-.98zm0 23.93h.98v1.33h-.98zm0 7.98h.98v1.33h-.98zm0 7.98h.98v1.33h-.98zm0 2.66h.98v1.33h-.98zm0-5.32h.98v1.33h-.98zm0-15.96h.98v1.33h-.98zm0 13.3h.98v1.33h-.98zm0-7.98h.98v1.33h-.98zm0-34.57h.98v1.33h-.98zm0 37.23h.98v1.33h-.98zm0 15.96h.98v1.33h-.98zm0-26.6h.98v1.33h-.98zm0-69.14h.98v1.33h-.98zm0-2.66h.98v1.33h-.98zm0 5.32h.98v1.33h-.98zm0 5.32h.98v1.33h-.98zm0-2.66h.98v1.33h-.98zm0-15.96h.98v1.33h-.98zm0 21.27h.98v1.33h-.98zm0-23.93h.98v1.33h-.98zm0 7.98h.98v1.33h-.98zm0-2.66h.98v1.33h-.98zm0 26.59h.98v1.33h-.98zm0 10.64h.98v1.33h-.98zm0 2.66h.98v1.33h-.98zm0 2.66h.98v1.33h-.98zm0 2.66h.98v1.33h-.98zm0-10.64h.98v1.33h-.98zm0-5.32h.98v1.33h-.98zm0-5.32h.98v1.33h-.98zm0 23.94h.98v1.33h-.98zm0-15.96h.98v1.33h-.98zm0-90.42h.98v1.33h-.98zm0-34.57h.98v1.33h-.98zm.98-28.13h.36v-.98h-1.33v.88h-.01v.3h.98v-.2m-.98 25.47h.98v1.33h-.98zm0-2.66h.98v1.33h-.98zm0-21.28h.98v1.33h-.98zm0 2.66v1.33h.98v-1.27l.38-.38-.94-.94-.7.69.57.57h-.29m0 15.96h.98v1.33h-.98zm0 13.29v1.34h.98v-1.34h-.34l.72-.72-.61-.6h.23v-1.33h-.98v1.33h.58l-.86.85.48.47h-.2m0-26.59h.98v1.33h-.98zm0 10.64h.98v1.33h-.98zm0-5.32h.98v1.33h-.98zm0 2.66h.98v1.33h-.98zm0-5.32h.98v1.33h-.98zm29.03 56.49h.98v1.33h-.98zm0 2.66h.98v1.33h-.98zm0-15.96h.98v1.33h-.98zm0 23.94h.98v1.33h-.98zm0 2.66h.98V220h-.98zm0-5.32h.98v1.33h-.98zm0-15.96h.98v1.33h-.98zm0 5.32h.98v1.33h-.98zm0-7.98h.98v1.33h-.98zm0 5.32h.98v1.33h-.98zm0 10.64h.98v1.33h-.98zm0 26.59h.98v1.33h-.98zm0 2.66h.98v1.33h-.98zm0 2.66h.98v1.33h-.98zm0-21.27h.98v1.33h-.98zm0 23.93h.98v1.33h-.98zm0-10.64h.98v1.33h-.98zm0-2.66h.98v1.33h-.98zm0-7.97h.98v1.33h-.98zm0 2.65h.98v1.33h-.98zm0 2.66h.98v1.33h-.98zm0-69.14h.98v1.33h-.98zm0 87.76h.98v1.33h-.98zm0-85.1h.98v1.33h-.98zm0 26.59h.98v1.33h-.98zm0-23.93h.98v1.33h-.98zm0-7.98h.98v1.33h-.98zm0-5.32h.98v1.33h-.98zm0-5.32h.98v1.33h-.98zm0 24.05l-.41-.41-.69.7.94.94.16-.16v.15h.98v-1.33h-.98v.11m0-21.39h.98v1.33h-.98zm0 5.32h.98v1.33h-.98zm0 13.3h.98v1.33h-.98zm0 15.95h.98v1.33h-.98zm0-2.66h.98v1.33h-.98zm0-2.66h.98v1.33h-.98zm0 7.98h.98v1.33h-.98zm0 175.53h.98v1.33h-.98zm0-188.82h.98v1.33h-.98zm0 186.16h.98v1.33h-.98zm.98-220.25h.58v-.98h-1.33v.49h-.23v1.33h.98v-.84m0 3.08l.49.49.95-.94-.7-.69-.74.74v-.51h-.98v1.33h.98v-.42m-.98 222.49h.98v1.33h-.98zm0-42.56h.98v1.33h-.98zm0 2.66h.98v1.33h-.98zm0-5.31h.98v1.33h-.98zm0 13.29h.98v1.33h-.98zm0-2.66h.98v1.33h-.98zm0-2.66h.98v1.33h-.98zm0-10.63h.98v1.33h-.98zm0-7.98h.98v1.33h-.98zm0 2.66h.98v1.33h-.98zm0 2.66h.98v1.33h-.98zm0-7.98h.98v1.33h-.98zm0 39.89h.98v1.33h-.98zm0-10.64h.98v1.33h-.98zm0 15.96h.98v1.33h-.98zm0-101.06h.98v1.33h-.98zm0 93.08h.98v1.33h-.98zm0 5.32h.98v1.33h-.98zm0-10.64h.98v1.33h-.98zm0 2.66h.98v1.33h-.98zm0 13.3h.98v1.33h-.98zm0 2.66h.98v1.33h-.98zm0-93.08h.98v1.33h-.98zm0 2.66h.98v1.33h-.98zm0 5.32h.98v1.33h-.98zm0-2.66h.98v1.33h-.98zm0-10.64h.98v1.33h-.98zm0 18.61h.98v1.33h-.98zm0-15.95h.98v1.33h-.98zm0 42.55h.98v1.33h-.98zm0-47.87h.98v1.33h-.98zm0-2.66h.98v1.33h-.98zm0 21.27h.98v1.33h-.98zm0 26.6h.98v1.33h-.98zm0-2.66h.98v1.33h-.98zm0-2.66h.98v1.33h-.98zm0-2.66h.98v1.33h-.98zm0-13.3h.98v1.33h-.98zm0 7.98h.98v1.33h-.98zm0-2.66h.98v1.33h-.98zm0 5.32h.98v1.33h-.98zm0-7.98h.98v1.33h-.98zm29.45 91.76h1.33v.66h-1.33zm2.66 0h1.33v.66h-1.33zm-5.32 0h1.33v.66h-1.33zm-2.66 0h1.33v.66h-1.33zm13.3 0h1.33v.66h-1.33zm-2.66 0h1.33v.66h-1.33zm7.98 0h1.33v.66h-1.33zm-2.66 0h1.33v.66h-1.33zm-23.94 0h1.33v.66h-1.33zm-7.98 0h1.33v.66h-1.33zm-2.66 0h1.33v.66h-1.33zm15.96 0h1.33v.66h-1.33zm-21.28 0h1.33v.66h-1.33zm-2.65 0h1.33v.66h-1.33zm5.31 0h1.33v.66h-1.33zm15.96 0H141v.66h-1.33zm26.6 0h1.33v.66h-1.33zm-34.58 0h1.33v.66h-1.33zm2.66 0h1.33v.66h-1.33zm47.87 0h1.33v.66h-1.33zm29.26 0h1.33v.66h-1.33zm-42.56 0h1.33v.66h-1.33zm37.24 0h1.33v.66h-1.33zm7.98 0h1.33v.66h-1.33zm-10.64 0h1.33v.66h-1.33zm18.61 0h1.33v.66h-1.33zm-21.27 0h1.33v.66h-1.33zm23.93 0h1.33v.66h-1.33zm-5.32 0h1.33v.66h-1.33zm-2.66 0h1.33v.66h-1.33zm-7.97 0h1.33v.66h-1.33zm-31.92 0h1.33v.66h-1.33zm21.28 0h1.33v.66h-1.33zm263.29 0h1.33v.66h-1.33zm-289.89 0h1.33v.66h-1.33zm2.66 0h1.33v.66h-1.33zm10.64 0h1.33v.66h-1.33zm5.32 0h1.33v.66h-1.33zm2.66 0h1.33v.66h-1.33zm-5.32 0h1.33v.66h-1.33zm-164.89 0h1.33v.66h-1.33zm21.28 0h1.33v.66h-1.33zm-2.66 0h1.33v.66h-1.33zm-2.66 0h1.33v.66h-1.33zm-2.66 0h1.33v.66h-1.33zm-2.66 0h1.33v.66h-1.33zm15.96 0h1.33v.66h-1.33zm5.32 0h1.33v.66h-1.33zm-7.98 0h1.33v.66h-1.33zm5.32 0h1.33v.66h-1.33zm175.52 0h1.33v.66h-1.33zm-196.8 0h1.33v.66h-1.33zm26.6 0h1.33v.66h-1.33zm-45.21 0h1.33v.66h-1.33zm-5.32 0h1.33v.66H6.7zm-2.66 0h1.33v.66H4.04zm10.64 0h1.33v.66h-1.33zm-5.32 0h1.33v.66H9.36zm15.95 0h1.33v.66h-1.33zm2.66 0h1.33v.66h-1.33zm-7.97 0h1.33v.66H20zm-2.66 0h1.33v.66h-1.33zm47.87 0h1.33v.66h-1.33zm31.91 0h1.33v.66h-1.33zm5.32 0h1.33v.66h-1.33zm-13.3 0h1.33v.66h-1.33zm2.66 0h1.33v.66H91.8zm2.66 0h1.33v.66h-1.33zm5.32 0h1.33v.66h-1.33zm5.32 0h1.33v.66h-1.33zm5.32 0h1.33v.66h-1.33zm2.66 0h1.33v.66h-1.33zm-5.32 0h1.33v.66h-1.33zm-29.26 0h1.33v.66H78.5zm-10.63 0h1.33v.66h-1.33zm2.65 0h1.33v.66h-1.33zm45.22 0h1.33v.66h-1.33zm-53.19 0h1.33v.66h-1.33zm10.63 0h1.33v.66h-1.33zm7.98 0h1.33v.66h-1.33zm2.66 0h1.33v.66h-1.33zm2.66 0h1.33v.66h-1.33zm-26.59 0h1.33v.66h-1.33zm15.95 0h1.33v.66h-1.33zm119.68 0h1.33v.66h-1.33zm180.84 0h1.33v.66h-1.33zm7.98 0h1.33v.66h-1.33zm-5.32 0h1.33v.66h-1.33zm10.64 0h1.33v.66h-1.33zm-7.98 0h1.33v.66h-1.33zm5.32 0h1.33v.66H387zm13.3 0h1.33v.66h-1.33zm-2.66 0h1.33v.66h-1.33zm5.32 0h1.33v.66h-1.33zm-7.98 0h1.33v.66h-1.33zm-2.66 0h1.33v.66h-1.33zm-37.23 0h1.33v.66h-1.33zm18.61 0h1.33v.66h-1.33zm-13.29 0h1.33v.66h-1.33zm-7.98 0h1.33v.66h-1.33zm-2.66 0h1.33v.66h-1.33zm7.98 0h1.33v.66h-1.33zm5.32 0h1.33v.66h-1.33zm7.97 0h1.33v.66h-1.33zm-2.66 0h1.33v.66h-1.33zm-2.65 0h1.33v.66h-1.33zm45.21 0h1.33v.66h-1.33zm37.23 0h1.33v.66h-1.33zm-5.32 0h1.33v.66h-1.33zm-7.98 0h1.33v.66h-1.33zm2.66 0h1.33v.66h-1.33zm2.66 0h1.33v.66h-1.33zm5.32 0h1.33v.66h-1.33zm5.32 0h1.33v.66h-1.33zm7.98 0h1.33v.66h-1.33zm-2.66 0h1.33v.66h-1.33zm-2.66 0h1.33v.66h-1.33zm-45.21 0h1.33v.66h-1.33zm7.97 0h1.33v.66h-1.33zm-2.65 0h1.33v.66h-1.33zm-66.49 0h1.33v.66h-1.33zm85.1 0h1.33v.66h-1.33zm-13.3 0h1.33v.66h-1.33zm-13.29 0h1.33v.66h-1.33zm21.27 0h1.33v.66h-1.33zm2.66 0h1.33v.66h-1.33zm-5.32 0h1.33v.66h-1.33zm-2.66 0h1.33v.66h-1.33zm-183.5 0h1.33v.66h-1.33zm31.91 0h1.33v.66h-1.33zm2.66 0h1.33v.66h-1.33zm-5.32 0h1.33v.66h-1.33zm-2.65 0H266v.66h-1.33zm-2.66 0h1.33v.66h-1.33zm18.61 0h1.33v.66h-1.33zm2.66 0h1.33v.66h-1.33zm-23.93 0h1.33v.66h-1.33zm15.95 0h1.33v.66h-1.33zm2.66 0h1.33v.66h-1.33zm-42.55 0h1.33v.66h-1.33zm7.98 0h1.33v.66h-1.33zm-13.3 0h1.33v.66h-1.33zm10.64 0h1.33v.66h-1.33zm-7.98 0h1.33v.66h-1.33zm53.19 0h1.33v.66h-1.33zm-37.23 0h1.33v.66h-1.33zm2.66 0h1.33v.66h-1.33zm-5.32 0h1.33v.66h-1.33zm7.98 0h1.33v.66h-1.33zm2.66 0h1.33v.66h-1.33zm42.55 0h1.33v.66h-1.33zm-10.64 0h1.33v.66h-1.33zm42.55 0h1.33v.66h-1.33zm-5.32 0h1.33v.66h-1.33zm-7.98 0h1.33v.66h-1.33zm5.32 0h1.33v.66h-1.33zm-2.66 0h1.33v.66h-1.33zm13.3 0h1.33v.66h-1.33zm5.32 0h1.33v.66h-1.33zm2.66 0h1.33v.66h-1.33zm-5.32 0h1.33v.66h-1.33zm-7.98 0h1.33v.66h-1.33zm-31.91 0h1.33v.66h-1.33zm47.87 0h1.33v.66h-1.33zm-53.19 0h1.33v.66h-1.33zm10.64 0h1.33v.66h-1.33zm-7.98 0h1.33v.66h-1.33zm15.96 0h1.33v.66h-1.33zm5.32 0h1.33v.66h-1.33zm-10.64 0h1.33v.66h-1.33zm7.98 0h1.33v.66h-1.33zm-5.32 0h1.33v.66h-1.33zm-127.66 0h1.33v.66h-1.33zm289.88 0h1.33v.66h-1.33zm5.32 0h1.33v.66h-1.33zm-7.98 0h1.33v.66h-1.33zm-2.65 0h1.33v.66h-1.33zm7.97 0h1.33v.66h-1.33zm5.32 0h1.33v.66h-1.33zm5.32 0h1.33v.66h-1.33zm2.66 0h1.33v.66h-1.33zm-5.32 0h1.33v.66h-1.33zm-71.76-235.86h1.33v.98h-1.33zm26.59 0h1.33v.98h-1.33zm-2.66 0h1.33v.98h-1.33zm-2.65 0h1.33v.98h-1.33zm-23.94 0h1.33v.98h-1.33zm18.62 0h1.33v.98h-1.33zm13.29 0h1.33v.98h-1.33zm-23.93 0h1.33v.98h-1.33zm-2.66 0h1.33v.98h-1.33zm29.25 0h1.33v.98h-1.33zm-21.27 0h1.33v.98h-1.33zm2.66 0h1.33v.98h-1.33zm-5.32 0h1.33v.98h-1.33zm-26.6 0h1.33v.98h-1.33zm-2.66 0h1.33v.98h-1.33zm5.32 0h1.33v.98h-1.33zm2.66 0h1.33v.98h-1.33zm-10.64 0h1.33v.98h-1.33zm-10.63 0h1.33v.98h-1.33zm-2.66 0h1.33v.98h-1.33zm-5.32 0h1.33v.98h-1.33zm15.96 0h1.33v.98h-1.33zm-5.32 0h1.33v.98h-1.33zm2.66 0h1.33v.98h-1.33zm47.87 0h1.33v.98h-1.33zm31.91 0h1.33v.98h-1.33zm2.66 0h1.33v.98h-1.33zm2.66 0h1.33v.98h-1.33zm2.66 0h1.33v.98h-1.33zm-15.96 0h1.33v.98h-1.33zm5.32 0h1.33v.98h-1.33zm-2.66 0h1.33v.98h-1.33zm29.25 0h1.33v.98h-1.33zm-2.65 0h1.33v.98h-1.33zm-2.66 0h1.33v.98h-1.33zm-7.98 0h1.33v.98h-1.33zm5.32 0h1.33v.98h-1.33zm-2.66 0h1.33v.98h-1.33zm-23.94 0h1.33v.98h-1.33zm-2.66 0h1.33v.98h-1.33zm-2.66 0h1.33v.98h-1.33zm31.72 37.57h1.33v.98h-1.33zm-31.91 0h1.33v.98h-1.33zm-66.49 0h1.33v.98h-1.33zm93.08 0h1.33v.98h-1.33zm-37.23 0h1.33v.98h-1.33zm39.89 0h1.33v.98h-1.33zm-37.23 0h1.33v.98h-1.33zm31.91 0h1.33v.98h-1.33zm-26.59 0h1.33v.98h-1.33zm-45.21 0h1.33v.98h-1.33zm90.42 0h1.33v.98h-1.33zm-5.32 0h1.33v.98h-1.33zm-34.57 0h1.33v.98h-1.33zm37.23 0h1.33v.98h-1.33zm-5.32 0h1.33v.98h-1.33zm-69.14 0h1.33v.98h-1.33zm7.97 0h1.33v.98h-1.33zm37.24 0h1.33v.98h-1.33zm-42.55 0h1.33v.98h-1.33zm37.23 0h1.33v.98h-1.33zm-34.57 0h1.33v.98h-1.33zm7.97 0h1.33v.98h-1.33zm-2.66 0h1.33v.98h-1.33zm5.32 0h1.33v.98h-1.33zm31.92 0h1.33v.98H456zm-26.6 0h1.33v.98h-1.33zm34.58 0h1.33v.98h-1.33zm-37.24 0h1.33v.98h-1.33zm34.58 0h1.33v.98h-1.33zm-10.64 0h1.33v.98h-1.33zm7.98 0h1.33v.98h-1.33zm-93.08 0h1.33v.98h-1.33zm71.8 0h1.33v.98h-1.33zm-66.49 0h1.33v.98h-1.33zm10.64 0h1.33v.98h-1.33zm2.66 0h1.33v.98h-1.33zm5.32 0h1.33v.98h-1.33zm2.66 0h1.33v.98h-1.33zm-23.93.98h.07v.5h.98v-.5h.27v-.98h-1.32v.98m5.31-.98h1.33v.98h-1.33zm13.3 0h1.33v.98h-1.33zm-7.98 0h1.33v.98h-1.33zm6.807-21.435l.94-.94.693.692-.94.94zm-18.81 18.797l.94-.94.693.693-.94.94zm16.927-16.915l.94-.94.693.692-.94.94zm7.523-7.53l.94-.94.693.693-.94.94zm-16.924 16.933l.94-.94.694.692-.94.94zm15.053-15.046l.94-.94.693.69-.94.942zm3.752-3.768l.94-.94.694.693-.94.94zm-5.638 5.644l.942-.94.693.692-.94.94zm-7.533 7.52l.94-.94.693.694-.94.94zm-9.4 9.408l.94-.94.693.692-.94.94zm1.878-1.878l.94-.942.693.693-.94.945zm22.568-22.57l.94-.94.693.692-.94.94zm3.76-3.76l.94-.94.693.693-.94.94zm1.887-1.88l.69.69.94-.94-.68-.68v-.16h-1.33v.98h.48l-.1.11m-31.43 31.43v-.11h-.98v1.33h.98v-.15l.15.16.94-.94-.69-.7-.4.41m8.86-8.867l.94-.94.693.692-.94.94zm-1.88 1.89l.94-.94.695.69-.94.942zm-11.287 11.27l.94-.94.693.693-.94.94zm33.857-1.223l.69-.694.943.94-.692.693zm-11.284-11.29l.693-.692.94.94-.696.693zm-1.883-1.886l.693-.692.94.94-.694.694zm9.402 9.41l.693-.692.94.94-.693.693zm5.645 5.636l.1.11h-.67v.98h1.33v-.32l.18.17.69-.69-.94-.94-.69.69m-7.528-7.523l.693-.693.94.94-.692.693zm-18.81-18.81l.695-.693.94.94-.694.693zm-6.572-6.577l.5-.49v.42h.98v-1.33h-.98v.51l-.75-.74-.69.69.94.94m-2.84-2.843l.692-.693.94.94-.693.694zm3.78 3.783l.31.32h-.75v1.33h.98v-1.11l.4.4.69-.69-.94-.94-.69.69m3.74 3.732l.694-.693.94.94-.693.69zm18.815 18.802l.693-.693.94.94-.692.697zm-20.688-20.65l.693-.692.94.94-.692.693zm7.527 7.496l.693-.692.94.94-.693.693zm11.273 11.273l.693-.693.94.94-.693.694zm-5.637-5.63l.693-.694.94.94-.692.69zm-3.744-3.733l.694-.694.94.942-.694.692zm-3.758-3.765l.693-.693.94.94-.69.693zm6.332 4.945l-.7.7.62.61-.62.62.7.7.94-.94-.37-.38.37-.37-.94-.94m14.72.51h.98v1.33h-.98zm0-7.98h.98v1.33h-.98zm0 5.32h.98v1.33h-.98zm0-2.66h.98v1.33h-.98zm.99 23.94h-.99v1.33h.16v.13h1.33v-.98h-.5v-.48m-.99-2.67v1.34h.99v-1.34h-.21l.48-.47-.85-.85h.58v-1.33h-.99v1.33h.23l-.6.6.72.72h-.35m0-26.59h.98v1.33h-.98zm0 162.23h.98v1.33h-.98zm0 2.66h.98v1.33h-.98zm.99-171.74h.69v-.98h-1.33v.88h-.35v.3h.99v-.2m-.99 166.42h.98v1.33h-.98zm0-146.27h.98v1.33h-.98zm0-18.62h.98v1.33h-.98zm0 21.28h.98v1.33h-.98zm0 2.66h.98v1.33h-.98zm0 2.66h.98v1.33h-.98zm0-22.61h.99v-1.33h-.3l.57-.57-.69-.69-.94.94.37.38v1.27m0 206.11h.98v1.33h-.98zm0 2.66h.98v1.33h-.98zm0-5.32h.98v1.33h-.98zm0 7.98h.98v1.33h-.98zm0-42.55h.98v1.33h-.98zm0 50.53h.98v1.33h-.98zm0-21.28h.98v1.33h-.98zm0-164.89h.98v1.33h-.98zm0 183.51h.98v1.33h-.98zm0-2.66h.98v1.33h-.98zm0-13.3h.98v1.33h-.98zm0-5.32h.98v1.33h-.98zm0-18.61h.98v1.33h-.98zm0-5.32h.98v1.33h-.98zm0 10.63h.98v1.33h-.98zm0-7.97h.98v1.33h-.98zm0 5.32h.98v1.33h-.98zm0 13.29h.98v1.33h-.98zm0-7.98h.98v1.33h-.98zm0 5.32h.98v1.33h-.98zm0-2.66h.98v1.33h-.98zm0-82.44h.98v1.33h-.98zm0 26.6h.98v1.33h-.98zm0-34.58h.98v1.33h-.98zm0 21.28h.98v1.33h-.98zm0-2.66h.98v1.33h-.98zm0 10.64h.98v1.33h-.98zm0 2.66h.98v1.33h-.98zm0-7.98h.98v1.33h-.98zm0-7.98h.98v1.33h-.98zm0-13.3h.98v1.33h-.98zm0 2.66h.98v1.33h-.98zm0 5.32h.98v1.33h-.98zm0 2.66h.98v1.33h-.98zm0 13.3h.98v1.33h-.98zm0 29.25h.98v1.33h-.98zm0 2.66h.98v1.33h-.98zm0 2.66h.98v1.33h-.98zm0-7.98h.98v1.33h-.98zm0-114.36h.98v1.33h-.98zm0 111.7h.98v1.33h-.98zm0-7.98h.98v1.33h-.98zm0-2.66h.98v1.33h-.98zm0 7.98h.98v1.33h-.98zm0-10.64h.98v1.33h-.98zm0 7.98h.98v1.33h-.98zm0-53.19h.98v1.33h-.98zm0-29.25h.98v1.33h-.98zm0 5.32h.98v1.33h-.98zm0-2.66h.98v1.33h-.98zm0 5.32h.98v1.33h-.98zm0 2.66h.98v1.33h-.98zm0 2.66h.98v1.33h-.98zm0-26.6h.98v1.33h-.98zm0 2.66h.98v1.33h-.98zm0 2.66h.98v1.33h-.98zm0-7.98h.98v1.33h-.98zm0 10.64h.98v1.33h-.98zm0 2.66h.98v1.33h-.98zm0-15.96h.98v1.33h-.98zm0 50.53h.98v1.33h-.98zm0-53.19h.98v1.33h-.98zm0 55.85h.98v1.33h-.98zm0-7.98h.98v1.33h-.98zm0-5.32h.98v1.33h-.98zm0-5.31h.98v1.33h-.98zm0 2.66h.98v1.33h-.98zm0 5.32h.98V230h-.98zm-28.04-89.3h.47v-.98h-1.33v.49h-.12v1.33h.98v-.84m-.99 153.76h.98v1.33h-.98zm0 7.98h.98v1.33h-.98zm0-10.64h.98v1.33h-.98zm0-50.53h.98v1.33h-.98zm0 55.85h.98v1.33h-.98zm0 2.66h.98v1.33h-.98zm0-66.49h.98v1.33h-.98zm0 5.32h.98v1.33h-.98zm0-2.66h.98v1.33h-.98zm0 69.15h.98v1.33h-.98zm0-18.62h.98v1.33h-.98zm0-55.85h.98v1.33h-.98zm0-2.66h.98v1.33h-.98zm0 61.17h.98v1.33h-.98zm0-34.57h.98v1.33h-.98zm0 69.14h.98v1.33h-.98zm0-2.65h.98v1.33h-.98zm0 7.97h.98v1.33h-.98zm0-71.8h.98v1.33h-.98zm0-5.32h.98v1.33h-.98zm0-7.98h.98v1.33h-.98zm0 66.49h.98v1.33h-.98zm0-63.83h.98v1.33h-.98zm0 61.17h.98v1.33h-.98zm0 5.32h.98v1.33h-.98zm0-63.83h.98v1.33h-.98zm0 66.49h.98v1.33h-.98zm0 10.63h.98v1.33h-.98zm0-175.52h.98v1.33h-.98zm0 130.31h.98v1.33h-.98zm0-132.97h.98v1.33h-.98zm0 77.13h.98v1.33h-.98zm0-42.56h.98v1.33h-.98zm0 101.06h.98v1.33h-.98zm0-103.72h.98v1.33h-.98zm0-15.95h.98v1.33h-.98zm0 21.27h.98v1.33h-.98zm0-18.61h.98v1.33h-.98zm0 111.69h.98v1.33h-.98zm0-119.67h.98v1.33h-.98zm0 2.66h.98v1.33h-.98zm0-5.32h.98v1.33h-.98zm0-2.66h.98v1.33h-.98zm0 58.51h.98v1.33h-.98zm0-2.66h.98v1.33h-.98zm0-2.66h.98v1.33h-.98zm0 7.98h.98v1.33h-.98zm0 2.66h.98v1.33h-.98zm0 5.32h.98v1.33h-.98zm0-2.66h.98V220h-.98zm0-21.28h.98v1.33h-.98zm0-5.32h.98v1.33h-.98zm0-2.66h.98v1.33h-.98zm0 5.32h.98v1.33h-.98zm0 5.32h.98v1.33h-.98zm0-13.3h.98v1.33h-.98zm0 15.96h.98v1.33h-.98zm0 114.36h.98v1.33h-.98zm0-143.61h.98v1.33h-.98zm0 188.82h.98v1.33h-.98zm0-90.42h.98v1.33h-.98zm0 93.08h.98v1.33h-.98zm0-95.74h.98v1.33h-.98zm0-101.06h.98v1.33h-.98zm0 162.22h.98v1.33h-.98zm0 21.28h.98v1.33h-.98zm0-77.13h.98v1.33h-.98zm0 79.79h.98v1.33h-.98zm0 2.66h.98v1.33h-.98zm0 2.66h.98v1.33h-.98zm0-93.08h.98v1.33h-.98zm0 69.14h.98v1.33h-.98zm0 2.66h.98v1.33h-.98zm0 10.64h.98v1.33h-.98zm0-90.42h.98v1.33h-.98zm0 74.46h.98v1.33h-.98zm0-71.8h.98v1.33h-.98zm0 85.1h.98v1.33h-.98zm0-2.66h.98v1.33h-.98zm0-79.78h.98v1.33h-.98zm0 77.12h.98v1.33h-.98zM215.52 233.24l29.55 29.55 29.55-29.55-29.55-29.55zM245.07 261l-27.76-27.76 27.76-27.76 27.76 27.76z"
        class="a"/>
    <path
        d="M245.07 258.56l-.19-.19-.38.38.57.58.58-.58-.39-.38-.19.19m-14.18-13.41l.76.75.38-.38-.75-.75-.39.38m10.59 10.58l.75.76.38-.39-.75-.75-.38.38m-4.54-4.54l.76.76.38-.38-.76-.76-.38.38m-4.53-4.53l.75.76.38-.39-.75-.75-.38.38m-3.023-3.04l.382-.382.753.756-.382.382zm9.063 9.09l.76.75.38-.38-.76-.76-.38.39m-3.02-3.03l.76.76.38-.38-.76-.76-.38.38m-1.51-1.51l.75.76.39-.39-.76-.75-.38.38m-12.1-12.09l.76.76.38-.39-.75-.75-.39.38m1.52 1.51l.75.76.38-.39-.75-.75-.38.38m-3.03-3.02l.76.75.38-.38-.76-.75-.38.38m22.68 22.67l.75.76.39-.38-.76-.76-.38.38m-3.03-3.02l.76.75.38-.38-.75-.75-.39.38m-12.09-12.09l.76.75.38-.38-.76-.76-.38.39m-3.02-3.03l.75.76.39-.38-.76-.76-.38.38m1.51 1.51l.75.76.39-.38-.76-.76-.38.38m-6.8-7.95l-.58.58.58.57.38-.38-.19-.19.19-.19-.38-.39m20.03-19.26l-.38-.39-.76.76.38.38.76-.75m-1.51 1.51l-.38-.39-.76.76.38.38.76-.75m-1.51 1.51l-.38-.38-.76.75.38.39.76-.76m-3.03 3.02l-.38-.38-.75.75.38.39.75-.76m1.52-1.51l-.39-.38-.75.75.38.39.76-.76m6.04-6.05l-.38-.38-.76.76.39.38.75-.76m3.03-3.02l-.39-.38-.75.75.38.39.76-.76m-2.656 1.904l.755-.758.38.382-.757.757zM229.38 222.84l.38.38.76-.75-.38-.39-.76.76m-4.53 4.53l.38.39.76-.76-.39-.38-.75.75m3.02-3.02l.38.38.76-.75-.38-.39-.76.76m4.16-3.4l-.38-.38-.76.76.39.38.75-.76m-5.67 4.91l.38.39.76-.76-.38-.38-.76.75m-3.02 3.03l.38.38.75-.76-.38-.38-.75.76m-3.03 3.02l.38.38.76-.75-.38-.39-.76.76m1.51-1.51l.39.38.75-.76-.38-.38-.76.76m22.68-22.68l.38.38.19-.19.19.19.39-.38-.58-.57-.57.57m5.68 4.54l-.76-.76-.38.38.76.76.38-.38m13.6 13.6l-.75-.75-.38.38.75.76.38-.39m-3.02-3.02l-.76-.76-.38.39.76.75.38-.38m-1.51-1.51l-.76-.76-.38.38.76.76.38-.38m6.05 6.04l-.76-.75-.38.38.75.76.39-.39m4.53 4.54l-.76-.76-.38.39.76.75.38-.38m-1.51-1.51l-.76-.76-.38.38.76.76.38-.38m-6.05-6.05l-.75-.76-.39.39.76.75.38-.38m-13.6-13.6l-.76-.76-.38.38.76.76.38-.38m18.14 18.14l-.76-.76-.38.38.76.76.38-.38m-9.07-9.08l-.76-.75-.38.38.76.76.38-.39m-6.05-6.04l-.75-.76-.39.39.76.75.38-.38m-4.53-4.54l-.76-.75-.38.38.75.76.39-.39m7.55 7.56l-.75-.75-.38.38.75.76.38-.39m-1.51-1.51l-.75-.76-.39.39.76.75.38-.38m3.03 3.02l-.76-.75-.38.38.75.76.39-.39m14.36 15.51l.57-.57-.57-.58-.39.39.2.19-.2.19.39.38m-6.81 6.8l-.38-.38-.75.76.38.38.75-.76m-3.02 3.03l-.38-.39-.76.76.38.38.76-.75m4.54-4.54l-.39-.38-.75.76.38.38.76-.76m-3.03 3.03l-.38-.39-.76.76.39.38.75-.75m4.54-4.54l-.38-.38-.76.75.38.39.76-.76m-14.75 13.98l.39.38.75-.75-.38-.39-.76.76m1.52-1.51l.38.38.75-.75-.38-.39-.75.76m-3.03 3.02l.39.38.75-.75-.38-.39-.76.76m-3.02 3.02l.38.39.76-.76-.38-.38-.76.75m1.516-1.527l.757-.756.382.382-.758.752zm6.044-6.023l.38.38.76-.76-.39-.38-.75.76m-9.07 9.07l.38.38.76-.76-.39-.38-.75.76m12.09-12.1l.38.39.76-.76-.38-.38-.76.75m11.72-10.95l-.38-.38-.76.75.38.38.76-.75m-1.51 1.51l-.38-.38-.76.75.38.39.76-.76m-11.72 10.95l.38.39.76-.76-.38-.38-.76.75M240.71 219a.88.88 0 0 0-1.52.8l1.82 6.85a1.58 1.58 0 0 0 1.05 1.1l2.54.79a1.54 1.54 0 0 0 .47.07 1.52 1.52 0 0 0 .47-.07l2.54-.79a1.58 1.58 0 0 0 1.05-1.1l1.82-6.84a.88.88 0 0 0-1.52-.81 1.79 1.79 0 0 1-.79.52l-3.07 1a1.79 1.79 0 0 1-1 0l-3.08-1a1.79 1.79 0 0 1-.78-.52zm5.07 2.22l3.09-1a2.58 2.58 0 0 0 1.14-.75h.09a.11.11 0 0 1 .1.14l-1.82 6.85a.8.8 0 0 1-.53.56l-2.55.79a.79.79 0 0 1-.47 0l-2.55-.79a.8.8 0 0 1-.53-.55l-1.82-6.88a.11.11 0 0 1 .11-.11h.09a2.58 2.58 0 0 0 1.14.75l3.09 1a2.54 2.54 0 0 0 1.43.03zm4.42 18.43a1.19 1.19 0 0 0-1.44-.72l-3.15 1a1.84 1.84 0 0 1-1.06 0l-3.15-1a1.18 1.18 0 0 0-1.45.72l-1.73 4.77a1.16 1.16 0 0 0 .75 1.5l5.65 1.76a1.58 1.58 0 0 0 .92 0l5.65-1.76a1.16 1.16 0 0 0 .75-1.5zm.75 5.53l-5.64 1.76a.82.82 0 0 1-.46 0l-5.65-1.76a.38.38 0 0 1-.27-.37.39.39 0 0 1 0-.13l1.73-4.78a.38.38 0 0 1 .36-.26h.12l3.15 1a2.6 2.6 0 0 0 1.52 0l3.16-1a.39.39 0 0 1 .48.24l1.73 4.78a.39.39 0 0 1-.23.52z"
        class="a"/>
    <path
        d="M259.09 226.69a.88.88 0 0 0-1.55-.58 1.8 1.8 0 0 1-.82.54l-11.11 3.45a1.82 1.82 0 0 1-1.07 0l-11.11-3.46a1.81 1.81 0 0 1-.83-.54.88.88 0 0 0-1.55.58.87.87 0 0 0 .06.31l2.68 7.39a1.58 1.58 0 0 0 1 .95l9.82 3.06a1.58 1.58 0 0 0 .46.07 1.56 1.56 0 0 0 .46-.07l9.82-3.06a1.58 1.58 0 0 0 1-1L259 227a.87.87 0 0 0 .09-.31zm-3.46 7.42a.8.8 0 0 1-.51.48l-9.82 3.05a.78.78 0 0 1-.47 0l-9.83-3.05a.8.8 0 0 1-.51-.48l-2.68-7.43a.08.08 0 0 1 .1-.08h.09a2.58 2.58 0 0 0 1.18.77l11.11 3.46a2.61 2.61 0 0 0 1.53 0l11.11-3.46a2.57 2.57 0 0 0 1.18-.77.11.11 0 0 1 .18.11zM267.14 31.2h1.33v.98h-1.33zm-42.55 0h1.33v.98h-1.33zm5.32 0h1.33v.98h-1.33zm-2.66 0h1.33v.98h-1.33zm5.31 0h1.33v.98h-1.33zm-15.95 0h1.33v.98h-1.33zm18.61 0h1.33v.98h-1.33zm-13.29 0h1.33v.98h-1.33zm-2.66 0h1.33v.98h-1.33zm18.61 0h1.33v.98h-1.33zm-23.93 0h1.33v.98h-1.33zm39.89 0h1.33v.98h-1.33zm-5.32 0h1.33v.98h-1.33zm2.66 0h1.33v.98h-1.33zm-10.64 0h1.33v.98h-1.33zm5.32 0h1.33v.98h-1.33zm-2.66 0h1.33v.98h-1.33zm-51.37-1.26a7.37 7.37 0 0 1-1-.72l-.63.75a8.39 8.39 0 0 0 1.15.82zM186.8 9.21h.98v1.33h-.98zm0-2.66h.98v1.33h-.98zm0 5.32h.98v1.33h-.98zm0 5.32h.98v1.33h-.98zm.55 3.99v.19l.4-.07v-1.45h-1v1.27zm-.55-6.65h.98v1.33h-.98zm24.49 16.67h1.33v.98h-1.33zM186.8 3.89h.98v1.33h-.98zm7.35 26.98a9.06 9.06 0 0 1-1.2-.38l-.36.91a10.06 10.06 0 0 0 1.33.42zm11.82.33h1.33v.98h-1.33zm2.66 0h1.33v.98h-1.33zm47.87 0h1.33v.98h-1.33zm-68.76-4.62l.9-.38a10.44 10.44 0 0 1-.42-1.2l-.94.27a11.23 11.23 0 0 0 .46 1.31zm1.45 2.42l.75-.63a7.86 7.86 0 0 1-.72-1l-.84.5a8.77 8.77 0 0 0 .81 1.13zM187 23.92l1-.17a12.82 12.82 0 0 1-.15-1.27l-1 .07c0 .45.05.91.15 1.37zM302.36 3.64h.98v1.33h-.98zm0 5.32h.98v1.33h-.98zm0-2.66h.98v1.33h-.98zm0 5.32h.98v1.33h-.98zM195.28 32.07c.43.05.89.09 1.37.1v-1c-.45 0-.87 0-1.28-.1zm108.06-11.18V19.6h-.98v1.37l.98-.08m-9.63 10.29v1c.47 0 .93-.07 1.37-.13l-.14-1c-.36.07-.78.11-1.23.13zm8.65-16.9h.98v1.33h-.98zm0 2.66h.98v1.33h-.98zM203.31 31.2h1.33v.98h-1.33zm87.76 0h1.33v.98h-1.33zm12.28-8.92l-1-.05c0 .37-.06.8-.13 1.28l1 .15c.05-.45.1-.92.13-1.38zM197.99 31.2h1.33v.98h-1.33zm2.66 0h1.33v.98h-1.33zm87.76 0h1.33v.98h-1.33zm-2.66 0h1.33v.98h-1.33zm-2.66 0h1.33v.98h-1.33zm-18.61 0h1.33v.98h-1.33zm5.32 0h1.33v.98h-1.33zm2.66 0h1.33v.98h-1.33zm2.66 0h1.33v.98h-1.33zm2.66 0h1.33v.98h-1.33zm18.7.55a9.62 9.62 0 0 0 1.32-.46l-.39-.9a8.84 8.84 0 0 1-1.19.41zm-16.04-.55h1.33v.98h-1.33zm-18.62 0h1.33v.98h-1.33zm38.35-1.41l-.66-.73a7.32 7.32 0 0 1-1 .75l.49.84a8.34 8.34 0 0 0 1.17-.86zm1.74-2.2l-.86-.48a8.19 8.19 0 0 1-.69 1l.77.61a9.18 9.18 0 0 0 .78-1.13zm-42.75 3.61h1.33v.98h-1.33zm43.77-6.2l-1-.25a10.52 10.52 0 0 1-.39 1.21l.91.36a11.51 11.51 0 0 0 .48-1.32zm-103.37 4.66a6.91 6.91 0 1 0-6.91-6.91 6.92 6.92 0 0 0 6.91 6.91zm0-12.84a5.93 5.93 0 1 1-5.93 5.93 5.93 5.93 0 0 1 5.93-5.92z"
        class="a"/>
    <path
        d="M196.43 23a.34.34 0 0 0 .22.21l2.82.88h.2l2.82-.88a.34.34 0 0 0 .21-.21l.77-2.12a.14.14 0 0 0-.24-.14.63.63 0 0 1-.29.19l-3.19 1h-.38l-3.19-1a.63.63 0 0 1-.29-.19.14.14 0 0 0-.24.14zm4.5 1.63a.22.22 0 0 0-.21-.15h-.07l-.9.28h-.38l-.9-.28h-.07a.22.22 0 0 0-.21.15L197.7 26a.22.22 0 0 0 .14.29l1.62.5h.2l1.62-.5a.22.22 0 0 0 .14-.29z"
        class="a"/>
    <path
        d="M198.51 20.85a.34.34 0 0 0 .23.24l.73.23h.2l.73-.23a.34.34 0 0 0 .23-.24l.52-2a.14.14 0 0 0-.25-.09.63.63 0 0 1-.28.18l-.88.27h-.34l-.88-.27a.63.63 0 0 1-.28-.18.14.14 0 0 0-.25.13zm91.2 8.81a6.91 6.91 0 1 0-6.91-6.91 6.92 6.92 0 0 0 6.91 6.91zm0-12.84a5.93 5.93 0 1 1-5.93 5.93 5.93 5.93 0 0 1 5.93-5.92z"
        class="a"/>
    <path
        d="M291.07 24.63a.22.22 0 0 0-.21-.15h-.06l-.9.28h-.38l-.9-.28h-.07a.22.22 0 0 0-.21.15l-.5 1.37a.22.22 0 0 0 .14.29l1.62.5h.2l1.62-.5a.22.22 0 0 0 .14-.29zm-4.5-1.63a.34.34 0 0 0 .22.21l2.82.88h.2l2.82-.88a.34.34 0 0 0 .22-.21l.77-2.12a.14.14 0 0 0-.24-.14.63.63 0 0 1-.29.19l-3.19 1h-.38l-3.19-1a.63.63 0 0 1-.29-.19.14.14 0 0 0-.24.14z"
        class="a"/>
    <path d="M288.65 20.85a.34.34 0 0 0 .23.24l.73.23h.2l.73-.23a.34.34 0 0 0 .23-.24l.52-2a.14.14 0 0 0-.25-.13.63.63 0 0 1-.28.18l-.88.27h-.34l-.88-.27a.63.63 0 0 1-.28-.18.14.14 0 0 0-.25.13z" class="a"/>
</svg>
