<svg xmlns="http://www.w3.org/2000/svg" viewBox="0 0 490.48 242.02" width="150" height="200">
    <defs>
        <style>
            .a {
                fill: #231f20;
            }
        </style>
    </defs>
    <path d="M322.48 165.85l39.37 39.37 39.37-39.37-39.37-39.37zm39.37 36.54l-36.54-36.54 36.54-36.54 36.54 36.54z" class="a"/>
    <path
        d="M342.996 180.315l.707-.707 1.09 1.09-.708.706zm-2.176-2.163l.707-.707 1.09 1.09-.708.706zm1.136-25.73l1.09-1.09.706.708-1.088 1.09zm-4.356 4.333l1.088-1.09.707.708-1.09 1.09zm2.17-2.157l1.088-1.09.707.708-1.09 1.09zm5.402 27.904l.707-.707 1.08 1.09-.707.706zm-6.525-6.53l.707-.707 1.09 1.09-.708.706zm15.228 15.23l.708-.707 1.088 1.09-.7.706zm-17.397-17.41l.707-.707 1.09 1.09-.708.706zm19.57 19.59l.708-.707 1.088 1.09-.707.706zm-8.693-8.71l.707-.707 1.09 1.09-.708.706zm10.875 10.88l.708-.707 1.09 1.09-.708.706zm-6.523-6.52l.707-.707 1.09 1.09-.708.706zm-2.183-2.18l.707-.707 1.09 1.09-.7.706zm-5.398-36.612l1.09-1.09.706.707-1.088 1.09zm6.524-6.53l1.088-1.087.707.707-1.09 1.09zm-2.164 2.177l1.09-1.09.706.71-1.088 1.088zm4.35-4.35l1.09-1.09.706.707-1.088 1.09zm4.35-4.343l1.09-1.09.706.708-1.088 1.09zm-2.18 2.17l1.09-1.09.706.707-1.088 1.09zm4.36-4.354l1.09-1.088.706.707-1.088 1.08zM346.3 148.063l1.088-1.09.707.708-1.09 1.09zm-10.873 10.897l1.09-1.09.706.707-1.088 1.09zm-2.18 2.156l1.09-1.09.705.708-1.088 1.09zm-1.127 8.32l.706-.708 1.09 1.09-.708.706zm2.175 2.186l.707-.707 1.09 1.09-.708.706zm-3.228-8.342l1.09-1.09.706.708-1.09 1.09zm-2.177 2.195l1.088-1.09.707.708-1.09 1.09zm1.053 1.797l.707-.707 1.09 1.09-.708.706zm30.457 30.46l.707-.707 1.09 1.09-.708.706zm16.362-48.875l.707-.707 1.08 1.09-.707.706zm4.348 4.33l.707-.708 1.088 1.08-.707.707zm.97 24.337l1.09-1.09.707.71-1.09 1.088zm-2.18 2.173l1.09-1.09.707.71-1.09 1.088zm4.35-4.34l1.09-1.09.707.707-1.09 1.09zm-.953-19.97l.707-.707 1.09 1.09-.708.706zm2.176 2.173l.707-.707 1.09 1.09-.708.706zm-6.535-6.53l.707-.707 1.09 1.09-.708.706zm-13.045-13.06l.707-.707 1.09 1.09-.708.706zm-2.183-2.17l.707-.707 1.09 1.09-.708.706zm22.717 37.352l1.09-1.09.707.708-1.09 1.09zm-24.893-39.525l.707-.707 1.09 1.09-.7.706zm8.71 8.703l.708-.707 1.088 1.09-.707.706zm-2.194-2.197l.707-.707 1.09 1.09-.71.706zm4.372 4.39l.707-.707 1.08 1.09-.707.706zm2.163 2.142l.707-.707 1.088 1.09-.707.706zm-7.735 46.088l1.09-1.09.707.708-1.09 1.09zm6.52-6.52l1.09-1.09.707.707-1.09 1.09zm14.267-26.508l.707-.707 1.09 1.09-.708.706zm-22.967 35.21l1.09-1.09.707.71-1.09 1.09zm6.53-6.535l1.09-1.088.707.707-1.09 1.08zm-2.18 2.184l1.09-1.09.707.708-1.09 1.09zm6.53-6.534l1.09-1.09.707.707-1.09 1.09zm-13.06 13.06l1.09-1.09.707.707-1.09 1.09zm27.335-35.2l.707-.707 1.09 1.09-.708.706zm.955 6.91l1.09-1.088.707.707-1.09 1.08zm-13.042 13.053l1.09-1.09.706.708-1.09 1.09zm10.88-10.876l1.09-1.09.706.708-1.09 1.09zm3.38-6.907l.707-.707 1.09 1.09-.708.706zm.952 2.527l1.088-1.09.707.708-1.09 1.09zm-16.1.763l3.54-9.77a1.21 1.21 0 0 0 .08-.43 1.22 1.22 0 0 0-2.14-.8 2.34 2.34 0 0 1-1.07.7l-14.71 4.58a2.36 2.36 0 0 1-1.39 0l-14.71-4.58a2.34 2.34 0 0 1-1.07-.7 1.22 1.22 0 0 0-2.14.8 1.18 1.18 0 0 0 .08.42l3.54 9.79a2.14 2.14 0 0 0 1.36 1.29l13 4a2.12 2.12 0 0 0 1.26 0l13-4a2.14 2.14 0 0 0 1.37-1.3zm-1.7.22l-13 4a1 1 0 0 1-.59 0l-13-4a1 1 0 0 1-.64-.6l-3.55-9.82a.07.07 0 0 1 .09-.07h.08a3.46 3.46 0 0 0 1.58 1l14.71 4.57a3.49 3.49 0 0 0 2.06 0l14.71-4.58a3.47 3.47 0 0 0 1.59-1c0-.06.16 0 .15.1l-3.55 9.8a1 1 0 0 1-.64.59z"
        class="a"/>
    <path
        d="M355.19 146.59a1.22 1.22 0 0 0-1.18 1.54l2.41 9.07a2.15 2.15 0 0 0 1.43 1.49l3.37 1a2.06 2.06 0 0 0 .64.1 2.1 2.1 0 0 0 .63-.1l3.37-1a2.14 2.14 0 0 0 1.43-1.49l2.41-9.06a1.22 1.22 0 0 0-2.11-1.12 2.31 2.31 0 0 1-1 .68l-4.1 1.3a2.33 2.33 0 0 1-1.27 0l-4.08-1.27a2.34 2.34 0 0 1-1-.68 1.22 1.22 0 0 0-.95-.46zm5.71 3.41a3.42 3.42 0 0 0 1.91 0l4.09-1.27a3.41 3.41 0 0 0 1.51-1l.1-.06a.1.1 0 0 1 .09.12l-2.41 9.07a1 1 0 0 1-.67.7l-3.37 1a1 1 0 0 1-.59 0l-3.37-1a1 1 0 0 1-.67-.7l-2.41-9.1a.07.07 0 0 1 .08-.07h.09a3.47 3.47 0 0 0 1.54 1zm7.78 24.32a1.59 1.59 0 0 0-1.5-1.06 1.54 1.54 0 0 0-.48.07l-4.18 1.3a2.36 2.36 0 0 1-1.37 0l-4.17-1.3a1.62 1.62 0 0 0-2 1l-2.29 6.33a1.61 1.61 0 0 0-.09.53 1.58 1.58 0 0 0 1.11 1.52l7.48 2.33a2.17 2.17 0 0 0 1.24 0l7.48-2.33a1.58 1.58 0 0 0 1.11-1.52 1.56 1.56 0 0 0-.09-.53zm.93 7.29l-7.47 2.33a1.07 1.07 0 0 1-.58 0l-7.48-2.33a.46.46 0 0 1-.3-.59l2.29-6.33a.46.46 0 0 1 .43-.31h.14l4.17 1.3a3.5 3.5 0 0 0 2 0l4.18-1.3a.47.47 0 0 1 .57.29l2.29 6.33a.43.43 0 0 1 0 .15.46.46 0 0 1-.24.46zm-230-176.85h1.5v1.55h-1.5zm2 36.6h1.5v1.55h-1.5zm-11.03-36.6h1.5v1.55h-1.5zm12.04 0h1.5v1.55h-1.5zm-6.02 0h1.5v1.55h-1.5zm-4.01 36.6h1.5v1.55h-1.5zm12.03 0h1.5v1.55h-1.5zm-45.12 0h1.5v1.55h-1.5zm36.1 0h1.5v1.55h-1.5zm3.01 0h1.5v1.55h-1.5zm15.04 0h1.5v1.55h-1.5zm1-36.6h1.5v1.55h-1.5zm-9.03 0h1.5v1.55h-1.5zm6.02 0h1.5v1.55h-1.5zm5.01 36.6h1.5v1.55h-1.5zm-9.02 0h1.5v1.55h-1.5zm12.03 0h1.5v1.55h-1.5zm-2-36.6h1.5v1.55h-1.5zm-7.02 36.6h1.5v1.55h-1.5zm-2.01-36.6h1.5v1.55h-1.5zm-42.11 0h1.5v1.55h-1.5zm5.01 36.6h1.5v1.55h-1.5zm-3 0h1.5v1.55h-1.5zm4.01-36.6h1.5v1.55h-1.5zm-7.02 36.6h1.5v1.55h-1.5zm-3.01 0h1.5v1.55h-1.5zm-2.01-36.6h1.5v1.55h-1.5zm3.01 0h1.5v1.55h-1.5zm11.03 36.6h1.5v1.55h-1.5zm15.04 0h1.5v1.55h-1.5zm-5.01-36.6h1.5v1.55h-1.5zm-1 36.6h1.5v1.55h-1.5zm3 0h1.5v1.55h-1.5zm1.01-36.6h1.5v1.55h-1.5zm-9.03 0h1.5v1.55h-1.5zm3.01 0h1.5v1.55h-1.5zm-4.01 36.6h1.5v1.55h-1.5zm-2.01-36.6h1.5v1.55h-1.5zm5.02 36.6h1.5v1.55h-1.5zm13.03-36.6h1.5v1.55h-1.5zm65.18 36.6h1.5v1.55h-1.5zm-8.03-36.6h1.5v1.55h-1.5zm11.03 36.6h1.5v1.55h-1.5zm1.01-36.6h1.5v1.55h-1.5zm-6.02 0h1.5v1.55h-1.5zm-4.01 36.6h1.5v1.55h-1.5zm12.03 0h1.5v1.55h-1.5zm-44.12-36.6h1.5v1.55h-1.5zm35.1 36.6h1.5v1.55h-1.5zm4.01-36.6h1.5v1.55h-1.5zm14.04 36.6h1.5v1.55h-1.5zm1-36.6h1.5v1.55h-1.5zm2 36.6h1.5v1.55h-1.5zm1.01-36.6h1.5v1.55h-1.5zm-9.03 0h1.5v1.55h-1.5zm-1 36.6h1.5v1.55h-1.5zm4.01-36.6h1.5v1.55h-1.5zm-6.02 0h1.5v1.55h-1.5zm5.02 36.6h1.5v1.55h-1.5zm-17.05-36.6h1.5v1.55h-1.5zm-22.06 36.6h1.5v1.55h-1.5zm18.05 0h1.5v1.55h-1.5zm-15.04 0h1.5v1.55h-1.5zm-2-36.6h1.5v1.55h-1.5zm-3.01 0h1.5v1.55h-1.5zm-7.02 36.6h1.5v1.55h-1.5zm1-36.6h1.5v1.55h-1.5zm3.01 0h1.5v1.55h-1.5zm-1 36.6h1.5v1.55h-1.5zm3.01 0h1.5v1.55h-1.5zm16.04-36.6h1.5v1.55h-1.5zm2 36.6h1.5v1.55h-1.5zm-3 0h1.5v1.55h-1.5zm4.01-36.6h1.5v1.55h-1.5zm-12.04 0h1.5v1.55h-1.5zm2.01 36.6h1.5v1.55h-1.5zm1-36.6h1.5v1.55h-1.5zm3.01 0h1.5v1.55h-1.5zm-1 36.6h1.5v1.55h-1.5zM73.43 4.76h1.5v1.55h-1.5zM9.26 41.36h1.5v1.55h-1.5zm3.01 0h1.5v1.55h-1.5zm-6.02 0h1.5v1.55h-1.5zm9.03 0h1.5v1.55h-1.5zm-9.76-.73h-.37l-.32-.18-.11.18h-.75l.01 1.51h.77l.67.38.75-1.3-.65-.37v-.22m-1.55-9.02h1.55v1.5H3.97zm0 3.01h1.55v1.5H3.97zM97.5 4.76H99v1.55h-1.5zm-79.21 36.6h1.5v1.55h-1.5zm3 0h1.5v1.55h-1.5zm10.03-36.6h1.5v1.55h-1.5zm3.01 0h1.5v1.55h-1.5zm-1 36.6h1.5v1.55h-1.5zM3.97 28.6h1.55v1.5H3.97zm32.36 12.76h1.5v1.55h-1.5zm-6.01 0h1.5v1.55h-1.5zm-3.01 0h1.5v1.55h-1.5zM25.3 4.76v.41l-.22.08.22.13v.16h-.27v1.39h1.55v-.62h.23V4.76H25.3m3.01 0h1.5v1.55h-1.5zM3.97 37.62h1.55v1.5H3.97zM428.38 4.76h1.5v1.55h-1.5zm-3.01 0h1.5v1.55h-1.5zm-403.08 0h1.5v1.55h-1.5zm-3 0h1.5v1.55h-1.5zm421.12 0h1.5v1.55h-1.5zm-424.13 0h1.5v1.55h-1.5zm415.1 0h1.5v1.55h-1.5zm6.02 0h1.5v1.55h-1.5zm-3.01 0h1.5v1.55h-1.5zM5.52 8.44l.42.72 1.34-.78-.75-1.3-1.01.58v-.12H3.97v1.51h1.55v-.61m-1.55 8.13h1.55v1.5H3.97zm0-3.01h1.55v1.5H3.97zm9.3-8.8h1.5v1.55h-1.5zm-9.3 17.82h1.55v1.5H3.97zm0-3h1.55v1.5H3.97zm0-9.03h1.55v1.5H3.97zm3.28-5.79h1.5v1.55h-1.5zm3.01 0h1.5v1.55h-1.5zM3.97 25.59h1.55v1.5H3.97zM37.33 4.76h1.5v1.55h-1.5zm39.11 0h1.5v1.55h-1.5zm3.01 0h1.5v1.55h-1.5zm-40.11 36.6h1.5v1.55h-1.5zm42.11 0h1.5v1.55h-1.5zm1.01-36.6h1.5v1.55h-1.5zm-13.04 36.6h1.5v1.55h-1.5zm3.01 0h1.5v1.55h-1.5zm-2.01-36.6h1.5v1.55h-1.5zm149.4 36.6h1.5v1.55h-1.5zm-144.38 0h1.5v1.55h-1.5zm16.04-36.6h1.5v1.55h-1.5zm3.01 0h1.5v1.55h-1.5zm-1 36.6h1.5v1.55h-1.5zm-9.03 0h1.5v1.55h-1.5zm12.03 0h1.5v1.55h-1.5zm-6.01 0h1.5v1.55h-1.5zm-3.01 0h1.5v1.55h-1.5zm-2.01-36.6h1.5v1.55h-1.5zm3.01 0h1.5v1.55h-1.5zm-10.02 36.6h1.5v1.55h-1.5zM49.37 4.76h1.5v1.55h-1.5zm-3.01 0h1.5v1.55h-1.5zm2.01 36.6h1.5v1.55h-1.5zm3 0h1.5v1.55h-1.5zm-9.02 0h1.5v1.55h-1.5zm3.01 0h1.5v1.55h-1.5zm7.02-36.6h1.5v1.55h-1.5zm-12.04 0h1.5v1.55h-1.5zm3.01 0h1.5v1.55h-1.5zm18.05 0h1.5v1.55h-1.5zm6.02 0h1.5v1.55h-1.5zm-3.01 0h1.5v1.55h-1.5zm-10.03 36.6h1.5v1.55h-1.5zm12.03 0h1.5v1.55h-1.5zm-3 0h1.5v1.55h-1.5zm-3.01 0h1.5v1.55h-1.5zm-5.02-36.6h1.5v1.55h-1.5zm2.01 36.6h1.5v1.55h-1.5zm1-36.6h1.5v1.55h-1.5zm51.14 0h1.5v1.55h-1.5zm261.69 0h1.5v1.55h-1.5zm2.01 36.6h1.5v1.55h-1.5zm1-36.6h1.5v1.55h-1.5zm2.01 36.6h1.5v1.55h-1.5zm-6.02 0h1.5v1.55h-1.5zm-5.01-36.6h1.5v1.55h-1.5zm-31.08 36.6h1.5v1.55h-1.5zm30.08 0h1.5v1.55h-1.5zm3 0h1.5v1.55h-1.5zm-5.01-36.6h1.5v1.55h-1.5zm15.04 0h1.5v1.55h-1.5zm8.02 36.6h1.5v1.55h-1.5zm-2-36.6h1.5v1.55h-1.5zm5.01 36.6h1.5v1.55h-1.5zm-2.01-36.6h1.5v1.55h-1.5zm-7.01 36.6h1.5v1.55h-1.5zm1-36.6h1.5v1.55h-1.5zm2 36.6h1.5v1.55h-1.5zm-26.07-36.6h1.5v1.55h-1.5zm-13.03 36.6h1.5v1.55h-1.5zm-2.01-36.6h1.5v1.55h-1.5zm20.06 36.6h1.5v1.55h-1.5zm-15.04 0h1.5v1.55h-1.5zm-11.03-36.6h1.5v1.55h-1.5zm12.03 0h1.5v1.55h-1.5zm-7.02 36.6h1.5v1.55h-1.5zm-3.01 0h1.5v1.55h-1.5zm1.01-36.6h1.5v1.55h-1.5zm6.01 0h1.5v1.55h-1.5zm45.12 0h1.5v1.55h-1.5zm-31.08 36.6h1.5v1.55h-1.5zm-3.01 0h1.5v1.55h-1.5zm4.01-36.6h1.5v1.55h-1.5zm-6.01 0h1.5v1.55h-1.5zm-3.01 0h1.5v1.55h-1.5zm2 36.6h1.5v1.55h-1.5zm-3 0h1.5v1.55h-1.5zm19.05-36.6h1.5v1.55h-1.5zm74.92 33.36h1.55v1.5h-1.55zM419.35 4.76h1.5v1.55h-1.5zm23.79 30.36h1.55v1.5h-1.55zm-6.74 6.24h1.5v1.55h-1.5zm-9.02 0h1.5v1.55h-1.5zm-3.01 0h1.5v1.55h-1.5zm9.02 0h1.5v1.55h-1.5zm9.75-9.25h1.55v1.5h-1.55zm-12.76 9.25h1.5v1.55h-1.5zm9.03 0h1.5v1.55h-1.5zm3.73-24.29h1.55v1.5h-1.55zm0-3.01h1.55v1.5h-1.55zm0-3.01h1.55v1.5h-1.55zm.28-6.29v.49l-.17-.1-.36.63.25.14v.62h1.07l.02.01.01-.01h.45V4.76h-1.27m-.28 18.32h1.55v1.5h-1.55zm0 3.01h1.55v1.5h-1.55zm0-6.01h1.55v1.5h-1.55zm0 9.02h1.55v1.5h-1.55zm-24.79 12.26h1.5v1.55h-1.5zM398.3 4.76h1.5v1.55h-1.5zm6.01 0h1.5v1.55h-1.5zm-3.01 0h1.5v1.55h-1.5zm2.01 36.6h1.5v1.55h-1.5zm-3.01 0h1.5v1.55h-1.5zm-6.01 0h1.5v1.55h-1.5zm3 0h1.5v1.55h-1.5zm-5.01-36.6h1.5v1.55h-1.5zm3.01 0h1.5v1.55h-1.5zm21.05 0h1.5v1.55h-1.5zm-1 36.6h1.5v1.55h-1.5zm-3 0h1.5v1.55h-1.5zm1-36.6h1.5v1.55h-1.5zm-22.06 36.6h1.5v1.55h-1.5zm19.05-36.6h1.5v1.55h-1.5zm-3.01 0h1.5v1.55h-1.5zm2.01 36.6h1.5v1.55h-1.5zm-3.01 0h1.5v1.55h-1.5zm-165.44 0h1.5v1.55h-1.5zm22.06-36.6h1.5v1.55h-1.5zm-4.01 36.6h1.5v1.55h-1.5zm3 0h1.5v1.55h-1.5zm-5.01-36.6h1.5v1.55h-1.5zm3.01 0h1.5v1.55h-1.5zm-7.02 36.6h1.5v1.55h-1.5zm-2.01-36.6h1.5v1.55h-1.5zm3.01 0h1.5v1.55h-1.5zm2.01 36.6h1.5v1.55h-1.5zm-6.02 0h1.5v1.55h-1.5zm24.07 0h1.5v1.55h-1.5zm-2.01-36.6h1.5v1.55h-1.5zm-7.02 36.6h1.5v1.55h-1.5zm10.03-36.6h1.5v1.55h-1.5zm-4.01 36.6h1.5v1.55h-1.5zm-5.02-36.6h1.5v1.55h-1.5zm3.01 0h1.5v1.55h-1.5zm-1 36.6h1.5v1.55h-1.5zm-39.1 0h1.5v1.55h-1.5zm48.12 0h1.5v1.55h-1.5zm-45.12 0h1.5v1.55h-1.5zm-2-36.6h1.5v1.55h-1.5zm3.01 0h1.5v1.55h-1.5zm-10.03 36.6h1.5v1.55h-1.5zm25.07-36.6h1.5v1.55h-1.5zm-21.06 0h1.5v1.55h-1.5zm8.02 36.6h1.5v1.55h-1.5zm-9.02 0h1.5v1.55h-1.5zm-2.01-36.6h1.5v1.55h-1.5zm20.06 36.6h1.5v1.55h-1.5zm88.23-36.6h1.5v1.55h-1.5zm-90.24 0h1.5v1.55h-1.5zm5.01 36.6h1.5v1.55h-1.5zm-26.07-36.6h1.5v1.55h-1.5zm15.04 0h1.5v1.55h-1.5zm2.01 36.6h1.5v1.55h-1.5zm1-36.6h1.5v1.55h-1.5zm6.02 0h1.5v1.55h-1.5zm59.16 36.6h1.5v1.55h-1.5zm4.01-36.6h1.5v1.55h-1.5zm12.03 0h1.5v1.55h-1.5zm-13.04 36.6h1.5v1.55h-1.5zm22.06-36.6h1.5v1.55h-1.5zm-27.07 0h1.5v1.55h-1.5zm15.04 0h1.5v1.55h-1.5zm8.02 36.6h1.5v1.55h-1.5zm-3.01 0h1.5v1.55h-1.5zm-17.04-36.6h1.5v1.55h-1.5zm9.02 0h1.5v1.55h-1.5zm5.02 36.6h1.5v1.55h-1.5zm-9.03 0h1.5v1.55h-1.5zm3.01 0h1.5v1.55h-1.5zm3.01 0h1.5v1.55h-1.5zm15.04 0h1.5v1.55h-1.5zm-20.06-36.6h1.5v1.55h-1.5zm-33.08 0h1.5v1.55h-1.5zm45.12 0h1.5v1.55h-1.5zm-28.08 36.6h1.5v1.55h-1.5zm1-36.6h1.5v1.55h-1.5zm-7.01 36.6h1.5v1.55h-1.5zm9.02 0h1.5v1.55h-1.5zm-12.03 0h1.5v1.55H286zm6.01 0h1.5v1.55h-1.5zm-8.02-36.6h1.5v1.55h-1.5zm9.03 0h1.5v1.55h-1.5zm-3.01 0h1.5v1.55h-1.5zm38.1 36.6h1.5v1.55h-1.5zM287 4.76h1.5v1.55H287zm-7.02 36.6h1.5v1.55h-1.5zm1-36.6h1.5v1.55h-1.5zm45.12 0h1.5v1.55h-1.5zm-43.11 36.6h1.5v1.55h-1.5zm16.04-36.6h1.5v1.55h-1.5zm2.01 36.6h1.5v1.55h-1.5zM6.684 10.452l1.344-.773.748 1.3-1.344.77zm3.004 5.228l1.343-.772.75 1.3-1.34.773zm-1.5-2.616l1.343-.774.75 1.3-1.34.774zm.394 20.868l.748-1.3 1.344.772-.748 1.3zm2.608-15.64l1.345-.774.748 1.3-1.344.774zm7.89-2.608l.75-1.3 1.342.773-.748 1.3zm-.392 15.636l1.343-.773.75 1.3-1.34.773zm1.892-18.25l.75-1.3 1.342.773-.748 1.3zm1.112 23.46l1.343-.775.748 1.3-1.343.774zm-10.12-7.812l.75-1.3 1.344.773-.748 1.3zm10.5-18.258l.75-1.3 1.342.773-.748 1.3zm-9.384 10.427l1.343-.773.75 1.3-1.34.773zM14.19 23.5l.75 1.3.95-.55.03.02.36-.24-.11-.19.5-.87-1.34-.77-.56.96-.58.34m1.5 2.61l1.343-.774.748 1.3-1.34.774zm1.884-7.823l.748-1.3 1.344.772-.748 1.3zm-1.494 2.606l.748-1.3 1.343.773-.74 1.3zM4.44 6.55l.41-.24h.9v-.52l.03-.01-.03-.05v-.97H3.97v1.28h.17l.3.51m20.59 28.96h1.55v1.5h-1.55zm0-9.02h1.55v1.5h-1.55zm0 3h1.55v1.5h-1.55zm0 3.01h1.55V34h-1.55zm0 6.73l-.5-.86-1.34.77.75 1.3 1.09-.62v.2h1.55v-1.5h-1.55v.71m1 1.75l-.67.38H24.3v1.55h1.51v-.42l.77.52v-1.48h-.23l-.32-.55m-1-17.5h1.55v1.5h-1.55zm-4.847 10.448l1.343-.773.748 1.3-1.343.773zM25.03 14.45h1.55v1.5h-1.55zm0-3h1.55v1.5h-1.55zm0 6.01h1.55v1.5h-1.55zm0 3.01h1.55v1.5h-1.55zm.64-13.14l-1.34-.78-.75 1.31 1.34.77.11-.19v1.5h1.55v-1.5h-1.55l.64-1.11M7.076 36.534l.748-1.3 1.344.773-.75 1.3zM5.572 39.14l.748-1.3 1.344.773-.748 1.3zm4.505-7.825l.748-1.3 1.343.773-.748 1.3zm7.113-2.605l1.342-.773.748 1.3-1.343.773zm-4.112-2.603l.748-1.3 1.343.773-.75 1.3zm415.934-8.324l1.344-.774.748 1.3-1.344.77zm.37 11.46l.748-1.3 1.343.773-.748 1.3zm5.998-10.433l.748-1.3 1.344.772-.748 1.3zm-8.992 15.644l.748-1.3 1.344.773-.748 1.3zm1.117-19.3l1.344-.772.74 1.3-1.345.773zm-2.998-5.21l1.343-.772.748 1.3-1.343.773zm1.5 2.62l1.345-.772.748 1.3-1.344.773zm4.497 7.8l1.343-.772.748 1.3-1.343.773zm1.996 3.476l-.11.19.32.18.04.06.03-.02.95.55.75-1.3-.58-.34-.56-.96-1.34.77.5.87m6.993 12.143l1.343-.773.748 1.3-1.343.773zm-2.623-19.79l.748-1.3 1.343.773-.74 1.3zm2.99-5.213l.75-1.3 1.343.772-.748 1.3zm-1.45 2.63l.75-1.3 1.342.774-.748 1.3zm-1.915 17.184l1.344-.773.74 1.3-1.345.78zm-2.988-5.21l1.343-.773.748 1.3-1.343.78zm.353-4.172l.747-1.3 1.343.773-.748 1.3zm9.62-13.562l-1.34-.77-.75 1.3 1.34.78.41-.72v1.11h1.55V8.04h-1.32l.11-.19m-8.465 20.36l1.343-.773.748 1.3-1.343.773zm5.998 10.428l1.343-.773.748 1.3-1.343.773zm2.827 1.812l-1.34.77.08.14h-.16v1.55h2.27v-1.78h-.45l-.4-.68m-20.2-34.14h.22V4.76h-1.5v.09l-.27-.09v2.17h1.55v-.62m14.374 27.11l1.343-.774.748 1.3-1.343.773zm-10.148-1.586l.748-1.3 1.343.773-.748 1.3zm-5.226 9.146l-.22.38h-1.06v1.55h1.5v-.47l1.12-.69-1.34-.77m8.218-14.36l.748-1.3 1.343.774-.75 1.3zm-6.003 10.423l.748-1.3 1.344.773-.75 1.3zm-2.765-1.533h1.55v1.5h-1.55zm1.55 4.31l1.09.62.75-1.3-1.34-.77-.5.86v-.71h-1.55v1.5h1.55v-.2m-1.55-22.36h1.55v1.5h-1.55zm0-6.01h1.55v1.5h-1.55zm0 3h1.55v1.5h-1.55zm1.55-6.01l.11.19 1.34-.77-.75-1.31-1.34.78.64 1.11h-1.55v1.5h1.55v-1.5m-1.55 15.04h1.55v1.5h-1.55zm0 3.01h1.55v1.5h-1.55zm0-6.02h1.55v1.5h-1.55zm0 9.02h1.55v1.5h-1.55zm0 3.01h1.55V34h-1.55z"
        class="a"/>
    <path
        d="M462.83 36.29h-.75c-4.59 0-6.27 4.09-6.51 6.25v1.86h-6.33V.29H0V242h449.23V83.48h6.33v1.86c.24 2.16 1.92 6.25 6.51 6.25h1.08a27.65 27.65 0 0 0-.32-55.3zM2.48 2.77h444.27V44.9H2.48V2.77zm0 236.77V46.4h444.27v193.14H2.48zM465.71 46.69h1.71c7.32 0 13.28 7.69 13.28 17.15S474.74 81 467.42 81h-1.71V46.69zM449.68 81V46.89h13.55V81h-13.54zm13.45 8.11h-1c-3.33 0-4-3.37-4-4v-1.63h9.38c8.69 0 15.76-8.81 15.76-19.63s-7.07-19.63-15.76-19.63l-9.51-.08v-1.38c.07-.52.69-4 4-4h.75a25.17 25.17 0 0 1 .38 50.35z"
        class="a"/>
</svg>
