<svg xmlns="http://www.w3.org/2000/svg" viewBox="0 0 489.27 371.65" width="150" height="200">
    <defs>
        <style>
            .a {
                fill: #231f20;
            }
        </style>
    </defs>
    <path
        d="M459 115.58h-78.35V112c0-15.3-16.3-38.07-32.24-58.33-12.26-15.58-35.66-43-54.6-51.2l-.61 1.4V0h-96.93v4.19l-.67-1.48c-18.86 8.49-42 35.59-54.12 51C125.54 74 109.24 96.72 109.24 112v3.56h-79A30.31 30.31 0 0 0 0 145.86v195.51a30.32 30.32 0 0 0 30.28 30.28H459a30.31 30.31 0 0 0 30.28-30.28V145.86A30.31 30.31 0 0 0 459 115.58zm0 1.66a28.67 28.67 0 0 1 27 19.07h-.73v.82h1a28.51 28.51 0 0 1 1.37 8.73v21.91h-.28v.82h.28v159.66h-107V168.6h.87v-.82h-.87v-30.64h1v-.82h-1v-19.08H459zm-312.53 50.54h-.85v.82h.85v159.27h-29.25v-.12h-.82v.12H111V168.6h.09v-.82H111v-50.54h35.47v50.54zm1.75.82h.78v-.82h-.73v-50.54h193.4v19.07h-.8v.82h.8v191.12H148.23V168.6zm193.44-53h-3.09v-3.52c-.5-25.43-32.91-70.7-46.82-89l-.23.18a11.13 11.13 0 0 0 1.24-2.95c8.8 11.34 48.36 63.85 48.9 91.12v4.15zm-51.28-90.83l.24-.28c41.19 54.23 46 79.33 46.2 87.59v3.5H153.39v-3.52c.49-24.62 32-68.85 45.85-87.15 1.9 1.94 4.58 2.93 8 2.93h75c3.51 0 6.24-1.03 8.14-3.07zM151.63 112v3.54h-3.41v-4.14c.23-11.4 7.22-28.4 20.78-50.59a474 474 0 0 1 27.83-40.1 10.8 10.8 0 0 0 1.28 2.8c-13.84 18.23-45.98 63.24-46.48 88.49zm227.27 24.31h-.58v.82h.58v30.64h-.71v.82h.71v159.28h-5.78v-.12h-.82v.12h-28.88V137.14h.79v-.82h-.79v-19.08h35.48v19.07zM347 54.77c14.87 18.86 31.9 42.4 31.9 57.23v3.56h-35.48v-4.17c-.23-11.87-7.42-29.45-21.42-52.2a476.62 476.62 0 0 0-28.14-40.36l-.88.68a12.38 12.38 0 0 0 .25-3V4.15c18.55 8.13 41.66 35.2 53.77 50.62zM197.82 16.55v-15h.84V2h.78v-.45H290v.28h.78v-.28h.84v15s.24 4.3-2.41 7.12c-1.6 1.7-3.95 2.57-7 2.57h-75c-3 0-5.38-.86-7-2.57-2.63-2.77-2.39-7.03-2.39-7.12zm-1.18 3.53l-.87-.67.61-.45c.1.34.17.72.27 1.12zM111 112c0-14.85 17-38.4 31.86-57.25 12-15.26 34.9-42.08 53.41-50.44V16.5a12 12 0 0 0 .13 2.36c-.53.24-1.74.82-3.29 1.72-1 .62-2.23 1.38-3.47 2.25s-2.52 1.85-3.78 2.85-2.47 2.06-3.58 3.09-2.13 2-3 2.86-1.52 1.61-2 2.13-.72.84-.72.84l.87-.68 2.28-1.81 6.84-5.54 3.66-2.93 3.24-2.51c.49-.35.92-.69 1.31-1 .21-.17.42-.32.61-.45-11.68 15.14-48.37 64.68-48.9 91.75v4.15H111V112zM3 137.14h.4v-.82h-.1a28.67 28.67 0 0 1 27-19.07h79v211H1.66V168.6h.28v-.82h-.28v-21.92A28.51 28.51 0 0 1 3 137.14zM459 370H30.28a28.66 28.66 0 0 1-28.62-28.63v-11.88h107.58v.14h39v-.14h193.43v.14h39v-.14h107v4.38h-1.09v.56h1.09v7A28.66 28.66 0 0 1 459 370z"
        class="a"/>
    <path
        d="M256.22 136.31h1.11v.82h-1.11zm4.46 0h1.11v.82h-1.11zm-2.23 0h1.11v.82h-1.11zm4.45 0h1.11v.82h-1.11zm-144.78 0h1.11v.82h-1.11zm20.04 0h1.11v.82h-1.11zm113.61 0h1.11v.82h-1.11zm2.22 0h1.11v.82h-1.11zm-142.56 0h1.11v.82h-1.11zm8.91 0h1.11v.82h-1.11zm15.6 0h1.11v.82h-1.11zm131.42 0h1.11v.82h-1.11zm-2.23 0h1.11v.82h-1.11zm-122.51 0h1.11v.82h-1.11zm2.23 0h1.11v.82h-1.11zm104.69 0h1.11v.82h-1.11zm-84.65 0H166v.82h-1.11zm-4.45 0h1.11v.82h-1.11zm2.23 0h1.11v.82h-1.11zm-4.46 0h1.11v.82h-1.11zm-2.23 0h1.11v.82h-1.11zm-2.22 0h1.11v.82h-1.11zm17.82 0h1.11v.82h-1.11zm4.45 0h1.11v.82h-1.11zm-2.23 0h1.11v.82h-1.11zm-22.27 0h1.11v.82h-1.11zm15.59 0h1.11v.82h-1.11zm2.23 0h1.11v.82h-1.11zm64.6 0h1.11v.82h-1.11zm4.45 0h1.11v.82h-1.11zm2.23 0h1.11v.82h-1.11zm-4.46 0h1.11v.82h-1.11zm11.14 0h1.11v.82h-1.11zm-2.23 0h1.11v.82h-1.11zm-2.22 0h1.11v.82h-1.11zm-15.6 0h1.11v.82h-1.11zm-2.22 0h1.11v.82h-1.11zm-2.23 0h1.11v.82h-1.11zm6.68 0h1.11v.82h-1.11zm-80.19 0h1.11v.82h-1.11zm82.42 0h1.11v.82h-1.11zm-124.74 0h1.11v.82h-1.11zm-31.19 0h1.11v.82h-1.11zm-35.64 0h1.11v.82h-1.11zm4.46 0h1.11v.82h-1.11zm-2.23 0h1.11v.82h-1.11zm135.88 0h1.11v.82h-1.11zm-104.7 0h1.11v.82h-1.11zm-35.64 0h1.11v.82h-1.11zm42.33 0h1.11v.82h-1.11zm-51.24 0h1.11v.82h-1.11zm49.01 0h1.11v.82h-1.11zm-51.23 0h1.11v.82h-1.11zm-2.23 0h1.11v.82h-1.11zm6.68 0h1.11v.82h-1.11zm2.23 0h1.11v.82h-1.11zm24.5 0h1.11v.82h-1.11zm-2.23 0h1.11v.82h-1.11zm4.46 0h1.11v.82H60.2zm6.68 0h1.11v.82h-1.11zm-4.45 0h1.11v.82h-1.11zm2.22 0h1.11v.82h-1.11zm-11.13 0h1.11v.82h-1.11zm17.82 0h1.11v.82h-1.11zm-22.28 0h1.11v.82h-1.11zm-2.23 0h1.11v.82h-1.11zm22.28 0h1.11v.82h-1.11zm-17.82 0h1.11v.82h-1.11zm-15.59 0h1.11v.82H35.7zm46.77 0h1.11v.82h-1.11zm42.33 0h1.11v.82h-1.11zm2.23 0h1.11v.82h-1.11zm-4.46 0h1.11v.82h-1.11zm-28.96 0h1.11v.82h-1.11zm4.46 0h1.11v.82h-1.11zm-93.56 0h1.11v.82H4.51zm100.24 0h1.11v.82h-1.11zm24.5 0h1.11v.82h-1.11zm4.46 0h1.11v.82h-1.11zm-31.19 0h1.11v.82h-1.11zm-2.23 0h1.11v.82h-1.11zm31.19 0h1.11v.82h-1.11zm-35.64 0h1.11v.82h-1.11zm-4.46 0h1.11v.82h-1.11zm-73.5 0h1.11v.82h-1.11zm-2.23 0h1.11v.82h-1.11zm69.05 0h1.11v.82H84.7zm-64.6 0h1.11v.82H20.1zm2.23 0h1.11v.82h-1.11zm64.6 0h1.11v.82h-1.11zm-80.19 0h1.11v.82H6.74zm2.23 0h1.11v.82H8.97zm2.22 0h1.11v.82h-1.11zm2.23 0h1.11v.82h-1.11zm75.74 0h1.11v.82h-1.11zm204.93 0h1.11v.82h-1.11zm13.37 0h1.11v.82h-1.11zm-98.02 0h1.11v.82h-1.11zm-2.22 0h1.11v.82h-1.11zm102.46 0h1.11v.82h-1.11zm-4.45 0h1.11v.82h-1.11zm-91.33 0h1.11v.82h-1.11zm-2.23 0h1.11v.82h-1.11zm91.33 0h1.11v.82H303zm-102.47 0h1.11v.82h-1.11zm100.24 0h1.11v.82h-1.11zm15.6 0h1.11v.82h-1.11zm-4.46 0h1.11v.82h-1.11zm6.68 0h1.11v.82h-1.11zm-115.83 0h1.11v.82h-1.11zm2.23 0h1.11v.82h-1.11zm109.15 0h1.11v.82h-1.11zm-33.42 0h1.11v.82h-1.11zm8.91 0h1.11v.82h-1.11zm-11.13 0h1.11v.82h-1.11zm-2.23 0h1.11v.82h-1.11zm-77.96 0h1.11v.82h-1.11zm86.87 0h1.11v.82h-1.11zm2.23 0h1.11v.82h-1.11zm4.45 0h1.11v.82h-1.11zm-75.73 0h1.11v.82h-1.11zm80.19 0h1.11v.82h-1.11zm-77.97 0h1.11v.82h-1.11zm55.69 0h1.11v.82h-1.11zm24.5 0h1.11v.82h-1.11zm-26.73 0h1.11v.82h-1.11zm-2.22 0h1.11v.82h-1.11zm-49.01 0h1.11v.82h-1.11zm62.37 0h1.11v.82h-1.11zm46.78 0h1.11v.82h-1.11zm-142.56 0h1.11v.82h-1.11zm2.23 0h1.11v.82h-1.11zm135.88 0h1.11v.82h-1.11zm-133.66 0h1.11v.82h-1.11zm135.88 0h1.11v.82h-1.11zm4.46 0h1.11v.82h-1.11zm-151.47 0h1.11v.82h-1.11zm158.15 0h1.11v.82h-1.11zm-153.7 0h1.11v.82h-1.11zm-2.23 0h1.11v.82h-1.11zm151.48 0h1.11v.82h-1.11zm2.22 0h1.11v.82h-1.11zm-142.56 0h1.11v.82h-1.11zm126.97 0h1.11v.82h-1.11zm2.23 0h1.11v.82h-1.11zm-126.97 0h1.11v.82h-1.11zm121.06 31.47h1.11v.82h-1.11zm2.23 0h1.11v.82h-1.11zm-240.58 0h1.11v.82h-1.11zm253.94 0h1.11v.82h-1.11zm-40.1 0h1.11v.82h-1.11zm-200.47 0h1.11v.82h-1.11zm-28.96 0h1.11v.82H63.2zm231.66 0h1.11v.82h-1.11zm-227.2 0h1.11v.82h-1.11zm267.3 0h1.11v.82h-1.11zm-258.39 0h1.11v.82h-1.11zm262.84 0h1.11v.82h-1.11zm-242.8 0h1.11v.82h-1.11zm189.34 0h1.11v.82h-1.11zm-187.11 0h1.11v.82h-1.11zm-4.45 0h1.11v.82h-1.11zm196.02 0h1.11v.82h-1.11zm-224.98 0h1.11v.82h-1.11zm222.75 0h1.11v.82h-1.11zm35.64 0h1.11v.82h-1.11zm13.37 0h1.11v.82h-1.11zm-265.08 0h1.11v.82h-1.11zm233.89 0h1.11v.82H306zm-224.98 0h1.11v.82h-1.11zm231.66 0h1.11v.82h-1.11zm-227.2 0h1.11v.82h-1.11zm224.98 0h1.11v.82h-1.11zm17.82 0h1.11v.82h-1.11zm-2.23 0h1.11v.82h-1.11zm-17.82 0h1.11v.82h-1.11zm-224.98 0h1.11v.82h-1.11zm-13.37 0h1.11v.82h-1.11zm260.62 0h1.11v.82h-1.11zm-15.59 0h1.11v.82h-1.11zm-17.82 0h1.11v.82h-1.11zm-207.16 0h1.11v.82h-1.11zm209.39 0h1.11v.82h-1.11zm-211.62 0h1.11v.82H87.7zm-13.36 0h1.11v.82h-1.11zm247.25 0h1.11v.82h-1.11zm-20.05 0h1.11v.82h-1.11zm2.23 0h1.11v.82h-1.11zm-109.15 0h1.11v.82h-1.11zm28.96 0h1.11v.82h-1.11zm-26.73 0h1.11v.82h-1.11zm28.96 0h1.11v.82h-1.11zm-75.74 0h1.11v.82h-1.11zm26.73 0h1.11v.82h-1.11zm-24.5 0h1.11v.82h-1.11zm2.23 0h1.11v.82h-1.11zm37.87 0h1.11v.82h-1.11zm40.09 0h1.11v.82h-1.11zm-31.18 0h1.11v.82h-1.11zm33.41 0h1.11v.82h-1.11zm2.23 0h1.11v.82h-1.11zm-37.87 0h1.11v.82h-1.11zm-42.32 0h1.11v.82h-1.11zm73.5 0h1.11v.82h-1.11zm-2.22 0h1.11v.82h-1.11zm-53.46 0h1.11v.82h-1.11zm15.59 0h1.11v.82h-1.11zm-8.91 0h1.11v.82h-1.11zm-13.37 0H169v.82h-1.11zm2.23 0h1.11v.82h-1.11zm2.23 0h1.11v.82h-1.11zm6.68 0h1.11v.82h-1.11zm24.5 0h1.11v.82h-1.11zm-20.04 0h1.11v.82h-1.11zm-22.28 0h1.11v.82h-1.11zm26.73 0h1.11v.82h-1.11zm-28.96 0h1.11v.82h-1.11zm6.69 0h1.11v.82h-1.11zm178.2 0h1.11v.82h-1.11zm-180.43 0h1.11v.82h-1.11zm22.27 0h1.11v.82h-1.11zm95.79 0h1.11v.82h-1.11zm-60.15 0h1.11v.82h-1.11zm53.46 0h1.11v.82h-1.11zm-6.68 0h1.11v.82h-1.11zm4.46 0h1.11v.82h-1.11zm-33.42 0h1.11v.82h-1.11zm-22.27 0h1.11v.82h-1.11zm49 0h1.11v.82h-1.11zm-46.77 0h1.11v.82h-1.11zm64.59 0h1.11v.82h-1.11zm-180.42 0h1.11v.82h-1.11zm160.38 0h1.11v.82h-1.11zm-162.61 0h1.11v.82h-1.11zm4.45 0h1.11v.82h-1.11zm2.23 0h1.11v.82h-1.11zm169.29 0h1.11v.82h-1.11zm2.23 0h1.11v.82h-1.11zm-8.91 0h1.11v.82h-1.11zm-8.91 0h1.11v.82h-1.11zm-15.59 0h1.11v.82h-1.11zm2.22 0h1.11v.82h-1.11zm-42.32 0h1.11v.82h-1.11zm35.64 0h1.11v.82h-1.11zm2.23 0h1.11v.82h-1.11zm6.68 0h1.11v.82h-1.11zm-42.32 0h1.11v.82h-1.11zm51.23 0h1.11v.82h-1.11zm-44.55 0h1.11v.82h-1.11zm42.32 0h1.11v.82h-1.11zm-4.45 0h1.11v.82h-1.11zm-40.1 0h1.11v.82h-1.11zm-2.22 0h1.11v.82h-1.11zm44.55 0h1.11v.82h-1.11zm-229.44 0h1.11v.82h-1.11zm113.61 0h1.11v.82h-1.11zm-6.69 0h1.11v.82h-1.11zm11.14 0h1.11v.82h-1.11zm-2.23.13h-.44v1.11h.82v-.42h.74v-.82h-1.12v.13m-138.1-.13h1.11v.82H3.06zm6.68 0h1.11v.82H9.74zm2.23 0h1.11v.82h-1.11zm-4.46 0h1.11v.82H7.51zm-2.23 0h1.11v.82H5.28zm124.75 0h1.11v.82h-1.11zm-8.91 0h1.11v.82h-1.11zm-2.23 0H120v.82h-1.11zm17.82 0h1.11v.82h-1.11zm-22.28 0h1.11v.82h-1.11zm8.91 0h1.11v.82h-1.11zm-109.15 0h1.11v.82h-1.11zm120.29 0h1.11v.82h-1.11zm-8.91 0h1.11v.82h-1.11zm2.23 0h1.11v.82h-1.11zm-95.79 0h1.11v.82h-1.11zm15.6 0h1.11v.82h-1.11zm2.22 0h1.11v.82h-1.11zm-4.45 0h1.11v.82h-1.11zm6.68 0h1.11v.82h-1.11zm8.91 0h1.11v.82h-1.11zm-17.82 0h1.11v.82h-1.11zm15.6 0h1.11v.82h-1.11zm-24.51 0h1.11v.82h-1.11zm-17.82 0h1.11v.82h-1.11zm22.28 0h1.11v.82H38.7zm2.22 0h1.11v.82h-1.11zm15.6 0h1.11v.82h-1.11zm-20.05 0h1.11v.82h-1.11zm-13.37 0h1.11v.82H23.1zm4.46 0h1.11v.82h-1.11zm-6.68 0h1.11v.82h-1.11zm8.91 0h1.11v.82h-1.11zm24.5 0h1.11v.82h-1.11zm-35.64 0h1.11v.82h-1.11zm97.52-27.61l.48.48h-.25v1.11h.82v-1.07l.32-.32-.79-.78-.58.58m20.478 20.474l.58-.58.785.785-.58.58zm-18.898-18.9l.58-.58.785.785-.58.58zm14.176 14.173l.58-.58.785.785-.58.58zm-17.33-17.323l.58-.58.784.785-.58.58zm28.352 28.35l.58-.58.785.785-.58.58zM114.39 137.22l-.08-.08h.46v-.83h-1.11v.18l-.06-.05-.58.58.79.78.58-.58m23.836 24.997l.58-.58.785.785-.58.58zm3.144 3.15l.58-.58.785.785-.58.58zm-14.176-14.173l.58-.58.785.785-.58.58zm7.876 7.873l.58-.58.786.785-.58.58zm5.65 5.383v.12h.82v-1.11h-.82v.09l-.34-.34-.58.58.79.79.13-.13m-11.16-10.89l.58-.59-.51-.51.51-.52-.58-.58-.79.79.31.31-.31.31.79.79m3.934 3.934l.58-.58.784.785-.58.58zm-11.022-11.037l.58-.58.785.785-.58.58zm3.155 3.16l.58-.58.785.785-.58.58zm-4.732-4.723l.58-.58.784.785-.58.58zm9.455 9.45l.58-.58.784.785-.58.58zm-6.3-6.3l.58-.58.784.785-.58.58zm-4.723-4.727l.58-.58.785.785-.58.58zm1.575 16.703l.785-.785.58.58-.785.784zm4.723-4.723l.785-.785.58.58-.786.785zm1.577-1.577l.785-.785.58.58-.785.785zm4.723-4.722l.785-.785.58.58-.786.785zM113.14 167.78h-.94v.82h1.12v-.41l.28.29.79-.79-.58-.58-.67.67m9.335-9.338l.785-.785.58.58-.786.785zm-3.15 3.155l.785-.785.58.58-.786.785zm23.627-23.62l.785-.786.58.58-.785.788zm-2.232 3.393v.92h.82v-1.11h-.64l.27-.27-.58-.58-.79.79.58.58.34-.33m-22.968 21.804l.785-.785.58.58-.785.782zm-3.15 3.146l.785-.786.58.58-.785.785zm22.05-22.044l.785-.785.58.58-.785.787zm-6.3 6.3l.785-.786.58.58-.785.785zm3.15-3.156l.785-.785.58.58-.785.785zm1.573-1.577l.785-.785.58.58-.786.785zm3.15-3.145l.785-.785.58.58-.786.785zm-14.173 14.177l.785-.785.58.58-.785.785zM116.4 209.7h.82v1.11h-.82zm0 4.45h.82v1.11h-.82zm0-2.22h.82v1.11h-.82zm0 6.68h.82v1.11h-.82zm0-2.23h.82v1.11h-.82zm0-8.91h.82v1.11h-.82zm0-4.45h.82v1.11h-.82zm0 2.22h.82v1.11h-.82zm0-4.45h.82v1.11h-.82zm0 33.41h.82v1.11h-.82zm0-2.23h.82v1.11h-.82zm0-2.22h.82v1.11h-.82zm0-8.91h.82v1.11h-.82zm0 15.59h.82v1.11h-.82zm0-8.91h.82v1.11h-.82zm0-4.46h.82v1.11h-.82zm0 15.6h.82v1.11h-.82zm0-13.37h.82v1.11h-.82zm0-51.23h.82v1.11h-.82zm0 6.68h.82v1.11h-.82zm0-4.45h.82v1.11h-.82zm0 2.22h.82v1.11h-.82zm0-33.41h.82v1.11h-.82zm0 20.05v1.11h.82v-1.11h-.28l.6-.61-.51-.51h.19v-1.11h-.82v1.11h.49l-.72.72.4.4h-.17m.82 2.23h-.82v1.11h.26v.11h1.11v-.82h-.55v-.4m-.82 2.22h.82v1.11h-.82zm0-20.04h.82v1.11h-.82zm0 42.32h.82v1.11h-.82zm0 6.68h.82v1.11h-.82zm0-2.23h.82v1.11h-.82zm0-2.22h.82v1.11h-.82zm0-4.46h.82v1.11h-.82zm0-4.45h.82v1.11h-.82zm0 2.22h.82v1.11h-.82zm0-4.45h.82v1.11h-.82zm0 124.74h.82v1.11h-.82zm0-2.23h.82v1.11h-.82zm0 4.46h.82v1.11h-.82zm0 6.68h.82v1.11h-.82zm0-2.23h.82v1.11h-.82zm0-2.23h.82v1.11h-.82zm0-8.91h.82v1.11h-.82zm0-11.13h.82v1.11h-.82zm0 2.22h.82v1.11h-.82zm0 4.46h.82v1.11h-.82zm0 2.23h.82v1.11h-.82zm0-4.46h.82v1.11h-.82zm0-138.11h.82v1.11h-.82zm0-2.22h.82v1.11h-.82zm0 4.45h.82v1.11h-.82zm0-6.68h.82v1.11h-.82zm0-2.23h.82v1.11h-.82zm0-4.45h.82v1.11h-.82zm0 173.74h.82v1.11h-.82zm0 2.23h.82v1.11h-.82zm0-180.43h.82v1.11h-.82zm0 182.66h.82v1.11h-.82zm0-6.68h.82v1.11h-.82zm0-75.74h.82v1.11h-.82zm0 22.28h.82v1.11h-.82zm0-6.69h.82v1.11h-.82zm0-4.45h.82v1.11h-.82zm0 8.91h.82v1.11h-.82zm0-2.23h.82v1.11h-.82zm0-4.45h.82v1.11h-.82zm0-15.6h.82v1.11h-.82zm0 4.46h.82v1.11h-.82zm0 4.45h.82v1.11h-.82zm0-2.22h.82v1.11h-.82zm0 4.45h.82v1.11h-.82zm0 28.96h.82v1.11h-.82zm0-2.23h.82v1.11h-.82zm0 11.14h.82V291h-.82zm0-6.68h.82v1.11h-.82zm0 4.45h.82v1.11h-.82zm0-2.23h.82v1.11h-.82zm0-8.91h.82v1.11h-.82zm0-6.68h.82v1.11h-.82zm0 2.23h.82v1.11h-.82zm0 2.23h.82v1.11h-.82zm0-6.69h.82v1.11h-.82zm0-95.78h.82v1.11h-.82zm0-34.53h.82v-.25H117v-.74h-1.11v.83h.51v.16m0 1.12h.82v1.11h-.82zm24.32 60.68h.82v1.11h-.82zm0 2.22h.82v1.11h-.82zm0 2.23h.82v1.11h-.82zm0 2.23h.82v1.11h-.82zm0-8.91h.82v1.11h-.82zm0-8.91h.82v1.11h-.82zm0 20.05h.82v1.11h-.82zm0-13.37h.82v1.11h-.82zm0-4.45h.82v1.11h-.82zm0 40.09h.82v1.11h-.82zm0-20.05h.82v1.11h-.82zm0 13.37h.82v1.11h-.82zm0 2.23h.82v1.11h-.82zm0-4.46h.82v1.11h-.82zm0 6.68h.82v1.11h-.82zm0 98.02h.82v1.11h-.82zm0-106.93h.82v1.11h-.82zm0-6.68h.82v1.11h-.82zm0 2.23h.82v1.11h-.82zm0-28.96h.82v1.11h-.82zm0 6.68h.82v1.11h-.82zm0-40.09h.82v1.11h-.82zm0 4.45h.82v1.11h-.82zm0-2.22h.82v1.11h-.82zm0-4.46h.82v1.11h-.82zm0-2.23h.82v1.11h-.82zm0 11.14h.82v1.11h-.82zm0-21.16h.82v-1.11h-.04v-.42h-1.11v.83h.33v.7m.82 1.11h-.82v1.12h.82v-.36l.42.42.78-.79-.58-.58-.62.62v-.43m-.82 22.28h.82v1.11h-.82zm0 20.05h.82v1.11h-.82zm0-2.23h.82v1.11h-.82zm0-2.23h.82v1.11h-.82zm0 6.68h.82v1.11h-.82zm0-8.91h.82v1.11h-.82zm0-31.18h.82v1.11h-.82zm0 28.96h.82v1.11h-.82zm0-26.73h.82v1.11h-.82zm0 20.04h.82v1.11h-.82zm0 4.46h.82v1.11h-.82zm0 46.78h.82v1.11h-.82zm0 77.96h.82v1.11h-.82zm0-4.46h.82v1.11h-.82zm0-11.13h.82v1.11h-.82zm0 17.82h.82v1.11h-.82zm0 2.22h.82v1.11h-.82zm0-6.68h.82v1.11h-.82zm0-8.91h.82v1.11h-.82zm0-2.23h.82v1.11h-.82zm0 4.46h.82v1.11h-.82zm0 2.23h.82v1.11h-.82zm0 13.36h.82v1.11h-.82zm0 17.82h.82v1.11h-.82zm0-2.22h.82v1.11h-.82zm0-2.23h.82v1.11h-.82zm0 6.68h.82v1.11h-.82zm0-17.82h.82v1.11h-.82zm0 20.05h.82v1.11h-.82zm0-11.14h.82v1.11h-.82zm0-4.45h.82v1.11h-.82zm0-2.23h.82v1.11h-.82zm0 4.45h.82v1.11h-.82zm0-37.87h.82v1.11h-.82zm0-26.73h.82v1.11h-.82zm0 8.91h.82v1.11h-.82zm0-2.22h.82v1.11h-.82zm0-8.91h.82v1.11h-.82zm0 6.68h.82v1.11h-.82zm0-2.23h.82v1.11h-.82zm0-6.68h.82v1.11h-.82zm0-6.68h.82v1.11h-.82zm0 2.22h.82v1.11h-.82zm0 2.23h.82v1.11h-.82zm0 17.82h.82v1.11h-.82zm0 11.14h.82v1.11h-.82zm0-35.64h.82v1.11h-.82zm0 44.55h.82v1.11h-.82zm0-2.23h.82v1.11h-.82zm0-4.45h.82v1.11h-.82zm0-11.14h.82v1.11h-.82zm0 2.23h.82v1.11h-.82zm0 4.45h.82v1.11h-.82zm0-2.23h.82v1.11h-.82zm272.3 70.17h1.11v.56h-1.11zm-245.03 0h1.11v.56h-1.11zm-6.68 0h1.11v.56h-1.11zm4.45 0h1.11v.56h-1.11zm-2.23 0h1.11v.56h-1.11zm-4.45 0h1.11v.56h-1.11zm-2.23 0h1.11v.56h-1.11zm24.5 0h1.11v.56h-1.11zm-4.45 0h1.11v.56h-1.11zm2.23 0h1.11v.56h-1.11zm-8.91 0h1.11v.56h-1.11zm-15.6 0h1.11v.56h-1.11zm20.05 0h1.11v.56h-1.11zm-2.23 0h1.11v.56h-1.11zm-44.55 0H129v.56h-1.11zm6.69 0h1.11v.56h-1.11zm17.82 0h1.11v.56h-1.11zm-20.05 0h1.11v.56h-1.11zm-2.23 0h1.11v.56h-1.11zm53.46 0h1.11v.56h-1.11zm-44.55 0h1.11v.56h-1.11zm-2.23 0h1.11v.56h-1.11zm11.14 0h1.11v.56h-1.11zm2.23 0h1.11v.56h-1.11zm-6.68 0h1.11v.56h-1.11zm-2.23 0h1.11v.56h-1.11zm4.45 0h1.11v.56h-1.11zm57.92 0h1.11v.56h-1.11zm20.05 0h1.11v.56h-1.11zm2.22 0h1.11v.56h-1.11zm-4.45 0h1.11v.56h-1.11zm-2.23 0h1.11v.56h-1.11zm-4.45 0h1.11v.56h-1.11zm13.36 0h1.11v.56h-1.11zm-11.14 0h1.11v.56h-1.11zm22.28 0h1.11v.56h-1.11zm-53.46 0h1.11v.56h-1.11zm51.23 0h1.11v.56h-1.11zm-2.23 0h1.11v.56h-1.11zm-2.22 0h1.11v.56h-1.11zm-2.23 0h1.11v.56h-1.11zm11.14 0h1.11v.56h-1.11zm-49.01 0h1.11v.56h-1.11zm6.68 0h1.11v.56h-1.11zm-2.22 0h1.11v.56h-1.11zm-2.23 0h1.11v.56h-1.11zm-6.68 0h1.11v.56h-1.11zm2.22 0h1.11v.56h-1.11zm15.6 0h1.11v.56h-1.11zm4.45 0h1.11v.56h-1.11zm-2.23 0h1.11v.56h-1.11zm4.46 0h1.11v.56h-1.11zm-11.14 0h1.11v.56h-1.11zm-75.73 0h1.11v.56h-1.11zm-91.33 0h1.11v.56h-1.11zm6.68 0h1.11v.56h-1.11zm2.23 0h1.11v.56h-1.11zm-11.14 0h1.11v.56h-1.11zm13.36 0h1.11v.56h-1.11zm-8.91 0h1.11v.56h-1.11zm207.16 0h1.11v.56h-1.11zm-182.65 0h1.11v.56h-1.11zm-6.69 0h1.11v.56h-1.11zm2.23 0h1.11v.56h-1.11zm2.23 0h1.11v.56h-1.11zm-55.69 0h1.11v.56H3.15zm46.78 0h1.11v.56h-1.11zm-2.23 0h1.11v.56H47.7zm-8.91 0h1.11v.56h-1.11zm-26.73 0h1.11v.56h-1.11zm4.46 0h1.11v.56h-1.11zm-2.23 0h1.11v.56h-1.11zm-4.46 0h1.11v.56H9.83zm-4.45 0h1.11v.56H5.38zm2.23 0h1.11v.56H7.61zm20.04 0h1.11v.56h-1.11zm2.23 0h1.11v.56h-1.11zm-4.45 0h1.11v.56h-1.11zm-4.46 0h1.11v.56h-1.11zm2.23 0h1.11v.56H23.2zm-4.46 0h1.11v.56h-1.11zm62.37 0h1.11v.56h-1.11zm22.28 0h1.11v.56h-1.11zm-2.23 0h1.11v.56h-1.11zm6.68 0h1.11v.56h-1.11zm-44.55 0h1.11v.56h-1.11zm35.64 0h1.11v.56h-1.11zm-2.22 0h1.11v.56h-1.11zm13.36 0h1.11v.56h-1.11zm6.68 0h1.11v.56h-1.11zm2.23 0h1.11v.56h-1.11zm2.23 0h1.11v.56h-1.11zm-6.68 0h1.11v.56h-1.11zm-2.23 0h1.11v.56h-1.11zm-17.82 0h1.11v.56h-1.11zm11.14 0h1.11v.56h-1.11zm-13.37 0h1.11v.56h-1.11zm-17.82 0h1.11v.56h-1.11zm-4.45 0h1.11v.56h-1.11zm6.68 0h1.11v.56h-1.11zm-8.91 0h1.11v.56h-1.11zm-2.23 0h1.11v.56h-1.11zm6.68 0h1.11v.56H72.2zm6.69 0H80v.56h-1.11zm8.91 0h1.11v.56H87.8zm-2.23 0h1.11v.56h-1.11zm-2.23 0h1.11v.56h-1.11zm40.1 0h1.11v.56h-1.11zm-71.28 0h1.11v.56h-1.11zm351.95 0h1.11v.56h-1.11zm4.45 0h1.11v.56h-1.11zm-6.68 0h1.11v.56h-1.11zm4.45 0h1.11v.56h-1.11zm-6.68 0h1.11v.56h-1.11zm-4.45 0h1.11v.56h-1.11zm2.22 0h1.11v.56h-1.11zm24.51 0h1.11v.56h-1.11zm-2.23 0h1.11v.56h-1.11zm-8.91 0h1.11v.56h-1.11zm13.36 0h1.11v.56h-1.11zm-8.91 0h1.11v.56h-1.11zm2.23 0h1.11v.56h-1.11zm-35.64 0h1.11v.56h-1.11zm11.14 0h1.11v.56h-1.11zm-26.73 0h1.11v.56h-1.11zm6.68 0h1.11v.56h-1.11zm4.46 0h1.11v.56h-1.11zm-8.92 0h1.11v.56h-1.11zm2.23 0h1.11v.56h-1.11zm4.46 0h1.11v.56h-1.11zm15.59 0h1.11v.56h-1.11zm-2.23 0h1.11v.56h-1.11zm37.87 0h1.11v.56h-1.11zm-40.09 0h1.11v.56h-1.11zm-2.23 0h1.11v.56h-1.11zm-4.46 0h1.11v.56h-1.11zm86.88 0h1.11v.56h-1.11zm-2.23 0h1.11v.56h-1.11zm4.45 0h1.11v.56h-1.11zm-6.68 0h1.11v.56h-1.11zm-2.23 0h1.11v.56h-1.11zm11.14 0h1.11v.56h-1.11zm4.46 0h1.11v.56h-1.11zm6.68 0h1.11v.56h-1.11zm-2.23 0h1.11v.56h-1.11zm4.46 0h1.11v.56h-1.11zm-55.69 0h1.11v.56h-1.11zm44.55 0h1.11v.56h-1.11zm4.45 0h1.11v.56h-1.11zm-20.04 0h1.11v.56h-1.11zm-22.28 0h1.11v.56h-1.11zm6.68 0h1.11v.56h-1.11zm-2.22 0h1.11v.56h-1.11zm-2.23 0h1.11v.56h-1.11zm-6.68 0h1.11v.56h-1.11zm2.22 0h1.11v.56h-1.11zm11.14 0h1.11v.56h-1.11zm11.14 0h1.11v.56h-1.11zm-2.23 0h1.11v.56h-1.11zm-2.23 0h1.11v.56h-1.11zm-4.45 0h1.11v.56h-1.11zm2.23 0h1.11v.56h-1.11zm-182.66 0h1.11v.56H266zm17.82 0h1.11v.56h-1.11zm2.23 0h1.11v.56h-1.11zm-4.46 0h1.11v.56h-1.11zm-2.22 0h1.11v.56h-1.11zm8.9 0h1.11v.56h-1.11zm-11.13 0h1.11v.56h-1.11zm15.59 0h1.11v.56h-1.11zm6.68 0h1.11v.56h-1.11zm2.23 0h1.11v.56h-1.11zm-11.14 0h1.11v.56h-1.11zm6.68 0h1.11v.56h-1.11zm-22.27 0h1.11v.56h-1.11zm28.96 0h1.11v.56h-1.11zm-8.91 0h1.11v.56h-1.11zm-35.64 0h1.11v.56h-1.11zm-2.23 0h1.11v.56h-1.11zm-4.46 0h1.11v.56h-1.11zm2.23 0h1.11v.56h-1.11zm-4.45 0h1.11v.56h-1.11zm-2.23 0h1.11v.56h-1.11zm20.05 0h1.11v.56h-1.11zm4.45 0h1.11v.56h-1.11zm91.33 0h1.11v.56h-1.11zm-102.47 0h1.11v.56h-1.11zm2.23 0h1.11v.56h-1.11zm-17.82 0h1.11v.56h-1.11zm24.51 0h1.11v.56h-1.11zm71.28 0h1.11v.56h-1.11zm-6.69 0h1.11v.56h-1.11zm13.37 0h1.11v.56h-1.11zm-2.23 0h1.11v.56h-1.11zm-6.68 0h1.11v.56h-1.11zm-2.23 0h1.11v.56h-1.11zm6.68 0h1.11v.56h-1.11zm15.6 0h1.11v.56h-1.11zm2.22 0h1.11v.56h-1.11zm-4.45 0h1.11v.56h-1.11zm-6.68 0h1.11v.56h-1.11zm2.22 0h1.11v.56h-1.11zm2.23 0h1.11v.56h-1.11zm-37.87 0h1.11v.56h-1.11zm-2.23 0h1.11v.56H315zm-8.91 0h1.11v.56h-1.11zm6.69 0h1.11v.56h-1.11zm-4.46 0h1.11v.56h-1.11zm2.23 0h1.11v.56h-1.11zm8.91 0h1.11v.56h-1.11zm4.46 0h1.11v.56h-1.11zm4.45 0h1.11v.56h-1.11zm2.23 0h1.11v.56h-1.11zm-4.46 0h1.11v.56h-1.11zm6.69 0h1.11v.56h-1.11zm-11.14 0h1.11v.56h-1.11zm-231.67 0h1.11v.56h-1.11zm352.9-197.55h1.11v.82h-1.11zm-13.37 0h1.11v.82h-1.11zm-2.22 0h1.11v.82h-1.11zm-60.15 0h1.11v.82h-1.11zm64.6 0h1.11v.82h-1.11zm-37.87 0h1.11v.82h-1.11zm-24.5 0h1.11v.82h-1.11zm55.69 0h1.11v.82h-1.11zm-60.14 0h1.11v.82h-1.11zm8.91 0h1.11v.82h-1.11zm49 0h1.11v.82h-1.11zm-26.73 0h1.11v.82h-1.11zm57.92 0h1.11v.82h-1.11zm-104.7 0h1.11v.82h-1.11zm6.68 0h1.11v.82h-1.11zm82.42 0h1.11v.82h-1.11zm-51.23 0h1.11v.82h-1.11zm-28.96 0h1.11v.82h-1.11zm26.73 0h1.11v.82H385zm4.46 0h1.11v.82h-1.11zm51.23 0h1.11v.82h-1.11zm-20.05 0h1.11v.82h-1.11zm-37.87 0h1.11v.82h-1.11zm-20.04 0h1.11v.82h-1.11zm-2.23 0h1.11v.82h-1.11zm75.74 0h1.11v.82h-1.11zm-84.65 0h1.11v.82h-1.11zm82.42 0h1.11v.82h-1.11zm-42.33 0h1.11v.82h-1.11zm84.65 0h1.11v.82h-1.11zm-2.23 0h1.11v.82h-1.11zm-66.82 0h1.11v.82h-1.11zm62.37 0h1.11v.82h-1.11zm2.23 0h1.11v.82h-1.11zm-62.38 0h1.11v.82h-1.11zm37.87 0h1.11v.82h-1.11zm-46.78 0h1.11v.82h-1.11zm-46.77 0h1.11v.82h-1.11zm129.19 0h1.11v.82h-1.11zm-80.19 0h1.11v.82h-1.11zm46.78 0h1.11v.82h-1.11zm28.96 0h1.11v.82h-1.11zm2.23 0h1.11v.82h-1.11zm-75.74 0h1.11v.82h-1.11zm46.78 0h1.11v.82h-1.11zm8.91 0h1.11v.82h-1.11zm-44.55 0h1.11v.82h-1.11zm-17.82 0h1.11v.82h-1.11zm60.14 0h1.11v.82h-1.11zm-40.09 0h1.11v.82h-1.11zm26.73 0h1.11v.82h-1.11zm11.13 0h1.11v.82h-1.11zm-44.55 0h1.11v.82h-1.11zm53.46 0h1.11v.82h-1.11zm-2.22 0h1.11v.82h-1.11zm4.45 0h1.11v.82h-1.11zm-53.46 0h1.11v.82h-1.11zm-68.38.83h.44v-.83h-.7v.83h.26m101.65 30.64h1.11v.82h-1.11zm-4.45 0h1.11v.82h-1.11zm2.23 0h1.11v.82h-1.11zm-11.14 0h1.11v.82h-1.11zm-17.82 0h1.11v.82h-1.11zm-4.46 0h1.11v.82h-1.11zm2.23 0h1.11v.82h-1.11zm4.46 0h1.11v.82h-1.11zm-13.37 0h1.11v.82h-1.11zm4.46 0h1.11v.82h-1.11zm31.18 0h1.11v.82h-1.11zm-33.41 0h1.11v.82h-1.11zm13.36 0h1.11v.82h-1.11zm15.6 0h1.11v.82h-1.11zm-4.46 0h1.11v.82h-1.11zm17.82 0h1.11v.82h-1.11zm-26.73 0h1.11v.82h-1.11zm15.59 0h1.11v.82h-1.11zm-8.91 0h1.11v.82h-1.11zm-4.45 0h1.11v.82h-1.11zm2.23 0h1.11v.82h-1.11zm-57.92 0h1.11v.82h-1.11zm95.78 0h1.11v.82h-1.11zm-91.32 0h1.11v.82h-1.11zm82.41 0h1.11v.82h-1.11zm-4.45 0h1.11v.82h-1.11zm8.91 0h1.11v.82h-1.11zm-6.68 0h1.11v.82h-1.11zm-104.7 0h1.11v.82h-1.11zm4.46 0h1.11v.82h-1.11zm-8.29 0h.49v.82h-.49zm2.72 0H347v.82h.98v.42h.82v-1.11h-.69v-.13m110.26 0h1.11v.82h-1.11zm20.05 0h1.11v.82h-1.11zm2.23 0h1.11v.82h-1.11zm2.23 0h1.11v.82h-1.11zm-15.6 0h1.11v.82h-1.11zm17.82 0h1.11v.82h-1.11zm-8.91 0h1.11v.82h-1.11zm-6.68 0h1.11v.82h-1.11zm2.23 0h1.11v.82h-1.11zm2.22 0h1.11v.82h-1.11zm-11.13 0h1.11v.82h-1.11zm-75.74 0h1.11v.82h-1.11zm4.46 0h1.11v.82h-1.11zm-2.23 0h1.11v.82h-1.11zm-4.46 0h1.11v.82h-1.11zm8.91 0h1.11v.82h-1.11zm2.23 0h1.11v.82H396zm2.23 0h1.11v.82h-1.11zm-46.78 0h1.11v.82h-1.11zm31.19 0h1.11v.82h-1.11zm17.82 0h1.11v.82h-1.11zm2.22 0h1.11v.82h-1.11zm-42.32 0h1.11v.82h-1.11zm-4.45 0h1.11v.82h-1.11zm2.22 0h1.11v.82h-1.11zm6.69 0h1.11v.82h-1.11zm2.22 0h1.11v.82h-1.11zm-4.45 0h1.11v.82h-1.11zm-7.94-10.084l.785-.785.58.58-.785.788zm1.57-1.57l.785-.786.58.58-.785.785zm-6.5 7.664l-.59-.58-.33.34v-.09h-.82v1.11h.82v-.12l.13.13.79-.79m.2-1.365l.785-.785.58.58-.785.785zm14.18-14.185l.785-.784.58.58-.785.785zm3.15-3.143l.785-.785.58.58-.785.784zm-9.45 9.443l.785-.784.58.58-.785.785zm4.72-4.714l.785-.785.58.58-.785.788zm-1.57 1.57l.785-.785.58.58-.785.788zm4.72-4.726l.785-.784.58.58-.785.785zm-20.47 20.47l.785-.785.58.58-.785.785zm31.17-30h.84v-.83h-1.12v.31l-.18-.18-.79.78.59.58.66-.66m-5.97 4.802l.785-.785.58.58-.785.785zm1.57-1.572l.32.32v1.07h.82v-1.11h-.25l.48-.48-.58-.58-.79.78m-3.15 3.156l.785-.785.58.58-.785.788zm4.73-4.73l.785-.784.58.58-.785.785zm-20.48 20.474l.785-.785.58.58-.785.785zm-1.577 1.578l.785-.785.58.58-.785.784zm-4.723 4.722l.785-.785.58.58-.785.785zm3.156-23.08l.58-.58.785.784-.58.58zm18.9 18.9l.58-.58.784.784-.58.58zm-7.886-7.87l.58-.58.786.784-.58.58zm-9.443-9.45l.58-.58.784.784-.58.58zm15.743 15.75l.58-.58.785.784-.58.58zm-22.043-22.05l.58-.58.785.784-.58.58zm3.413 3.41h-.63v1.11h.82v-.92l.33.33.59-.58-.79-.79-.58.58.26.27m27.34 27.26v.16h1.12v-.82h-.7l-.66-.67-.59.58.79.79.04-.04m-3.32-4.41h.48v-1.11h-.82v1.11h.19l-.51.51.61.61h-.29v1.11h.82v-1.11h-.17l.4-.4-.71-.72m.92 2.09l.58-.58.785.784-.58.58zm-17.324-17.33l.58-.58.785.784-.58.58zm-8.246-9.08v.36h.82v-1.12h-.82v.43l-.63-.62-.58.58.79.79.42-.42m17.7 18.53l.58-.58.785.784-.58.58zm-3.155-3.15l.58-.58.785.784-.58.58zm-7.885-7.87l.58-.58.786.784-.58.58zm3.156 3.15l.58-.58.785.784-.58.58zm2.094 2.09l-.52.51.58.59.79-.79-.31-.31.31-.31-.79-.79-.58.58.52.52m-6.81-6.82l.58-.58.786.784-.58.58zm11.016 11.03l.58-.58.784.784-.58.58zm6.3 6.3l.58-.58.784.784-.58.58zm1.894 40.05h.82v1.11h-.82zm0 31.18h.82v1.11h-.82zm0 11.14h.82v1.11h-.82zm0-4.46h.82v1.11h-.82zm0 2.23h.82v1.11h-.82zm0-4.45h.82v1.11h-.82zm0 15.59h.82v1.11h-.82zm0 2.23h.82v1.11h-.82zm0 2.22h.82v1.11h-.82zm0-8.91h.82v1.11h-.82zm0-2.22h.82v1.11h-.82zm0 4.45h.82v1.11h-.82zm0-31.18h.82v1.11h-.82zm0-13.37h.82v1.11h-.82zm0 2.23h.82v1.11h-.82zm0 53.46h.82v1.11h-.82zm0-57.92h.82v1.11h-.82zm0 8.91h.82v1.11h-.82zm0-2.22h.82v1.11h-.82zm0 17.82h.82v1.11h-.82zm0-4.46h.82v1.11h-.82zm0 2.23h.82v1.11h-.82zm0-11.14h.82v1.11h-.82zm0 15.59h.82v1.11h-.82zm0-13.36h.82v1.11h-.82zm0 4.45h.82v1.11h-.82zm0 13.37h.82v1.11h-.82zm0 66.82h.82v1.11h-.82zm0 2.23h.82v1.11h-.82zm0 2.23h.82v1.11h-.82zm0-8.91h.82v1.11h-.82zm0-2.23h.82v1.11h-.82zm0 13.37h.82v1.11h-.82zm0-8.91h.82v1.11h-.82zm0 20.04h.82v1.11h-.82zm0-2.22h.82v1.11h-.82zm0-6.69h.82v1.11h-.82zm0 4.46h.82v1.11h-.82zm0 6.68h.82v1.11h-.82zm0 2.23h.82v1.11h-.82zm0-40.1h.82v1.11h-.82zm0-11.13h.82v1.11h-.82zm0 2.22h.82v1.11h-.82zm0 2.23h.82v1.11h-.82zm0-6.68h.82v1.11h-.82zm0-2.23h.82v1.11h-.82zm0-2.23h.82v1.11h-.82zm0 26.73h.82v1.11h-.82zm0-13.36h.82v1.11h-.82zm0 8.91h.82V291h-.82zm0 2.23h.82v1.11h-.82zm0-4.46h.82v1.11h-.82zm0-4.45h.82v1.11h-.82zm0-17.82h.82v1.11h-.82zm0-4.46h.82v1.11h-.82zm0-106.92h.82v1.11h-.82zm0 160.38h.82v1.11h-.82zm0-162.61h.82v1.11h-.82zm0-2.22h.82v1.11h-.82zm0-4.46h.82v1.11h-.82zm0 22.68h-.79v.82h1.11v-.11h.5v-1.11h-.82v.4m0-24.91h.82v1.11h-.82zm0 4.46h.82v1.11h-.82zm0 13.36h.82v1.11h-.82zm0-22.27h.82v1.11h-.82zm0 17.82h.82v1.11h-.82zm0-18.94h.82v-.25h-.36v-.74h-1.11v.83h.65v.16m0 21.16h.82v1.11h-.82zm0 42.33h.82v1.11h-.82zm0-31.19h.82v1.11h-.82zm0 11.14h.82v1.11h-.82zm0 13.37h.82v1.11h-.82zm0 2.22h.82v1.11h-.82zm0-4.45h.82v1.11h-.82zm0-8.91h.82v1.11h-.82zm0-4.46h.82v1.11h-.82zm0 11.14h.82v1.11h-.82zm0-2.23h.82v1.11h-.82zm0-13.36h.82v1.11h-.82zm0 24.5h.82v1.11h-.82zm0-13.36h.82v1.11h-.82zm0-13.37h.82v1.11h-.82zm0 4.46h.82v1.11h-.82zm-24.31 42.85h.82v1.11h-.82zm0 4.46h.82v1.11h-.82zm0-2.23h.82v1.11h-.82zm0 6.68h.82v1.11h-.82zm0-2.22h.82v1.11h-.82zm0-15.6h.82v1.11h-.82zm0 20.05h.82v1.11h-.82zm0-22.27h.82v1.11h-.82zm0-2.23h.82v1.11h-.82zm0 6.68h.82v1.11h-.82zm0 2.23h.82v1.11h-.82zm0 2.23h.82v1.11h-.82zm0 35.64h.82v1.11h-.82zm0-49.01h.82v1.11h-.82zm0 46.78h.82v1.11h-.82zm0-2.23h.82v1.11h-.82zm0 8.91h.82v1.11h-.82zm0-2.23h.82v1.11h-.82zm0-8.91h.82v1.11h-.82zm0-4.45h.82v1.11h-.82zm0 2.23h.82v1.11h-.82zm0-6.69h.82v1.11h-.82zm0-2.22h.82v1.11h-.82zm0 4.45h.82v1.11h-.82zm0-6.68h.82v1.11h-.82zm0-66.83h.82v1.11h-.82zm0-22.27h.82v1.11h-.82zm0 28.96h.82v1.11h-.82zm0-22.28h.82v1.11h-.82zm0 2.23h.82v1.11h-.82zm0 17.82h.82v1.11h-.82zm0-24.5h.82v1.11h-.82zm0 55.68h.82v1.11h-.82zm0-46.77h.82v1.11h-.82zm0 6.68h.82v1.11h-.82zm0-2.23h.82v1.11h-.82zm0 100.24h.82v1.11h-.82zm0-102.47h.82v1.11h-.82zm0-8.91h.82v1.11h-.82zm0 26.73h.82v1.11h-.82zm0 20.05h.82v1.11h-.82zm0-4.45h.82v1.11h-.82zm0 8.91h.82v1.11h-.82zm0-2.23h.82v1.11h-.82zm0-8.91h.82v1.11h-.82zm0 4.45h.82v1.11h-.82zm0-15.59h.82v1.11h-.82zm0 2.23h.82v1.11h-.82zm0 2.23h.82v1.11h-.82zm0 2.22h.82v1.11h-.82zm0 2.23h.82v1.11h-.82zm0-47.89h.82v-1.11h-.55v-.42h-1.12v.83h.85v.7m0 168.18h.82v1.11h-.82zm0 2.23h.82v1.11h-.82zm0-4.46h.82v1.11h-.82zm0-8.91h.82v1.11h-.82zm0 2.23h.82v1.11h-.82zm0 2.22h.82v1.11h-.82zm0 11.14h.82v1.11h-.82zm0-8.91h.82v1.11h-.82zm0 22.28h.82v1.11h-.82zm0 2.23h.82v1.11h-.82zm0-64.6h.82v1.11h-.82zm0 51.23h.82v1.11h-.82zm0 6.68h.82v1.11h-.82zm0-4.45h.82v1.11h-.82zm0 2.23h.82v1.11h-.82zm0 4.45h.82v1.11h-.82zm0-51.23h.82v1.11h-.82zm0-2.23h.82v1.11h-.82zm0 4.45h.82v1.11h-.82zm0-8.91h.82v1.11h-.82zm0 28.96h.82v1.11h-.82zm0-26.73h.82v1.11h-.82zm0 8.91h.82v1.11h-.82zm0 4.46h.82v1.11h-.82zm0 4.45h.82v1.11h-.82zm0 2.23h.82v1.11h-.82zm0 4.45h.82v1.11h-.82zm0-2.22h.82v1.11h-.82zm0-11.14h.82v1.11h-.82zm0 4.45h.82v1.11h-.82zm-125.84-65.6l22.62 22.62 22.62-22.62-22.62-22.62zM244.76 237l-21.12-21.12 21.12-21.12 21.12 21.12z"
        class="a"/>
    <path
        d="M244.76 235.21l-.16-.16-.32.32.48.48.48-.48-.32-.32-.16.16m-1.797-1.156l.318-.318.66.657-.32.318zm-7.843-7.85l.32-.318.657.657-.318.318zm2.61 2.626l.318-.317.657.657-.318.318zm-3.92-3.936l.317-.318.657.657-.318.318zm5.232 5.246l.318-.317.658.657-.318.318zm-2.618-2.626l.318-.318.658.657-.318.318zm5.243 5.236l.32-.317.656.657-.318.318zm-1.312-1.31l.318-.317.658.657-.316.318zm-7.86-7.856l.32-.318.657.657-.318.318zm-1.312-1.31l.32-.318.656.657-.32.318zm-2.608-2.604l.318-.317.658.657-.315.318zm-1.312-1.31l.318-.317.66.657-.32.318zm2.625 2.61l.318-.317.658.657-.32.318zm-3.938-3.92l.318-.317.658.657-.318.318zm-.65-1.62l-.48.48.48.48.32-.32-.16-.16.16-.16-.32-.32m1.962-1.965l.657-.658.315.32-.657.656zm2.628-2.618l.656-.658.318.315-.657.658zm-1.318 1.305l.657-.657.315.318-.657.658zm-2.62 2.626l.657-.658.315.318-.657.658zm5.24-5.238l.657-.656.315.318-.657.657zm3.92-3.927l.657-.657.315.318-.657.658zm2.62-2.625l.657-.657.315.32-.657.658zm-1.31 1.312l.657-.657.315.318-.657.66zm6.55-6.538l.657-.658.315.318-.657.658zm-9.17 9.164l.657-.658.315.32-.657.656zm5.24-5.24l.657-.658.315.318-.657.658zm2.62-2.612l.657-.657.315.318-.657.658zm-1.31 1.3l.657-.66.315.32-.657.657zm-7.85 7.866l.657-.66.315.32-.657.657zm11.778-11.79l.32.32.16-.16.16.16.32-.32-.48-.48-.48.48m11.76 11.433l.32-.318.656.658-.318.318zm-1.31-1.296l.32-.318.657.654-.318.318zm-2.607-2.613l.318-.318.66.657-.32.32zm1.302 1.316l.318-.318.658.657-.315.316zm3.925 3.914l.318-.318.657.657-.318.32zm2.62 2.603l.317-.318.657.655-.318.318zm-14.4-14.383l.318-.318.658.657-.318.32zm15.707 15.71l.32-.318.656.657-.318.32zm-14.394-14.4l.318-.318.66.657-.32.32zm1.307 1.33l.32-.32.657.657-.318.32zm2.62 2.6l.32-.318.656.657-.318.32zm-1.312-1.31l.318-.318.658.657-.32.32zm9.164 9.16l.318-.318.658.657-.318.32zm3.928 3.93l.318-.318.658.657-.318.32zm1.63 1.946l.48-.48-.49-.48-.31.32.16.16-.16.16.32.32m-1.632.992l.658-.658.318.318-.657.658zm-1.318 1.305l.66-.657.317.318-.657.658zm-10.462 10.473l.658-.656.318.318-.657.657zm1.31-1.31l.658-.66.318.32-.657.657zm-2.628 2.617l.66-.658.317.315-.657.658zm-2.612 2.618l.658-.658.318.32-.657.656zm1.302-1.305l.66-.658.317.318-.657.658zm5.248-5.234l.658-.658.318.32-.657.656zm5.222-5.243l.66-.658.317.318-.657.658zm1.31-1.303l.66-.658.317.32-.657.656zm-14.382 14.388l.658-.658.318.318-.657.658zm10.47-10.468l.658-.657.318.318-.657.66zm-1.31 1.313l.658-.657.318.318-.657.658zm2.62-2.625l.658-.657.318.32-.657.658zM245.13 206.18a1.33 1.33 0 0 1-.73 0l-2.35-.73a1.36 1.36 0 0 1-.59-.39.7.7 0 0 0-1.24.46.69.69 0 0 0 0 .18l1.39 5.23a1.24 1.24 0 0 0 .82.86l1.94.6a1.25 1.25 0 0 0 .73 0l1.94-.6a1.24 1.24 0 0 0 .82-.86l1.39-5.22a.67.67 0 0 0 0-.19.7.7 0 0 0-1.24-.46 1.34 1.34 0 0 1-.59.39zm3.47-.71l.05.07-1.39 5.23a.58.58 0 0 1-.39.4l-1.94.6a.61.61 0 0 1-.34 0l-1.94-.6a.58.58 0 0 1-.39-.4l-1.39-5.24h.1a2 2 0 0 0 .88.58l2.36.73a2 2 0 0 0 1.1 0l2.36-.73a2.25 2.25 0 0 0 .93-.65z"
        class="a"/>
    <path
        d="M255.49 210.91a.7.7 0 0 0-1.23-.46 1.33 1.33 0 0 1-.62.4l-8.48 2.64a1.35 1.35 0 0 1-.8 0l-8.48-2.64a1.34 1.34 0 0 1-.62-.4.7.7 0 0 0-1.23.46.71.71 0 0 0 0 .24l2 5.64a1.23 1.23 0 0 0 .79.74l7.5 2.33a1.23 1.23 0 0 0 .72 0l7.49-2.33a1.24 1.24 0 0 0 .79-.75l2-5.63a.72.72 0 0 0 .17-.24zm-2.7 5.66a.58.58 0 0 1-.37.35l-7.49 2.33a.59.59 0 0 1-.34 0l-7.49-2.33a.58.58 0 0 1-.37-.35l-2-5.66h.09a2 2 0 0 0 .91.6l8.48 2.64a2 2 0 0 0 1.19 0l8.47-2.64a2 2 0 0 0 .92-.6v.08zm-2.72 8.17a.92.92 0 0 0-.05-.31l-1.32-3.64a.91.91 0 0 0-.86-.61.87.87 0 0 0-.27 0l-2.41.75a1.34 1.34 0 0 1-.79 0l-2.4-.75a1 1 0 0 0-1.14.57l-1.32 3.64a.91.91 0 0 0 .59 1.18l4.3 1.43a1.22 1.22 0 0 0 .36.05 1.25 1.25 0 0 0 .36-.05l4.31-1.34a.91.91 0 0 0 .64-.92zm-.84.25l-4.31 1.34a.57.57 0 0 1-.33 0l-4.31-1.33a.27.27 0 0 1-.17-.34l1.32-3.65a.27.27 0 0 1 .25-.18l2.49.76a2 2 0 0 0 1.18 0l2.41-.75h.08a.27.27 0 0 1 .25.18l1.32 3.64a.27.27 0 0 1 0 .09.26.26 0 0 1-.18.25zM294 19c.28.21.64.44 1 .74s.82.64 1.31 1l3.24 2.51 3.66 2.93 6.84 5.54 2.28 1.81.87.68s-.25-.32-.72-.84-1.15-1.27-2-2.13-1.86-1.84-3-2.86-2.34-2.06-3.58-3.09-2.54-2-3.78-2.85-2.43-1.63-3.47-2.25a35.9 35.9 0 0 0-3.58-1.85s.39.21.93.66zm-3.96-7.71h.78v1.05h-.78zm0-2.1h.78v1.05h-.78zm0-4.21h.78v1.05h-.78zm0 2.1h.78v1.05h-.78zm0 6.31h.78v1.05h-.78zm0-10.51h.78v1.05h-.78zm.45 16.9l-.75-.2a8.5 8.5 0 0 1-.31 1l.72.28a9.37 9.37 0 0 0 .34-1.08zm.33-2.16h-.78c0 .29 0 .64-.1 1l.77.12c.06-.44.09-.8.11-1.12zm-.01-1.1V15.5h-.77v1.09l.77-.07m-79.1 8.15h1.05v.78h-1.05zm-2.1 0h1.05v.78h-1.05zm73.58-.01v.78q.57 0 1.08-.1l-.11-.77c-.28.04-.61.07-.97.09zm-75.68.01h1.05v.78h-1.05zm82.17-2.85l-.68-.38a6.44 6.44 0 0 1-.55.82l.61.48a7.27 7.27 0 0 0 .62-.92zm-84.32 3.54c.34 0 .7.07 1.08.08v-.78q-.53 0-1-.08zm75.75-.69h1.05v.78h-1.05zm-6.31 0h1.05v.78h-1.05zm4.21 0h1.05v.78h-1.05zm-2.11 0h1.05v.78h-1.05zm-42.05 0h1.05v.78h-1.05zm-14.72 0h1.05v.78h-1.05zm-2.11 0h1.05v.78h-1.05zm-2.1 0h1.05v.78h-1.05zm21.03 0H238v.78h-1.05zm-23.13 0h1.05v.78h-1.05zm16.82 0h1.05v.78h-1.05zm-26.17-.26a7.24 7.24 0 0 1-1-.3l-.29.72a8.1 8.1 0 0 0 1.05.33zm28.27.26h1.05v.78h-1.05zm-4.2 0h1.05v.78h-1.05zm-2.11 0h1.05v.78h-1.05zm-2.1 0h1.05v.78h-1.05zm-2.1 0h1.05v.78h-1.05zm-19.6-1a5.79 5.79 0 0 1-.8-.57l-.5.59a6.68 6.68 0 0 0 .91.64zm-3.19-5.9l-.77.06c0 .32.06.69.13 1.08l.77-.13c-.07-.37-.1-.71-.13-1.01zm.35 1.99L199 20a9.12 9.12 0 0 0 .36 1l.71-.3a8 8 0 0 1-.28-.94zm1.35 2.65a6.21 6.21 0 0 1-.57-.81l-.67.4a7.15 7.15 0 0 0 .64.91zm-2.48-8.82h.78v1.05h-.78zm.16 3.15l.6.02.02-1.06h-.78l-.01 1.03.12.05.05-.04m89.48 6.82l-.52-.56a5.77 5.77 0 0 1-.78.59l.41.66a6.46 6.46 0 0 0 .89-.69zM198.66 3.08h.78v1.05h-.78zm0 6.31h.78v1.05h-.78zm0 2.1h.78v1.05h-.78zm0-4.21h.78v1.05h-.78zm0-2.1h.78v1.05h-.78zm67.73 19.49h1.05v.78h-1.05zm-8.41 0h1.05v.78h-1.05zm4.2 0h1.05v.78h-1.05zm-2.1 0h1.05v.78h-1.05zm4.21 0h1.05v.78h-1.05zm4.2 0h1.05v.78h-1.05zm16.9.44a8 8 0 0 0 1-.36l-.27-.75a7 7 0 0 1-.94.32zm-12.69-.44h1.05v.78h-1.05zm-2.1 0h1.05v.78h-1.05zm-14.72 0h1.05v.78h-1.05zm-6.31 0h1.05v.78h-1.05zm-2.11 0h1.05v.78h-1.05zm-6.31 0h1.05v.78h-1.05zm4.21 0h1.05v.78h-1.05zm6.31 0h1.05v.78h-1.05zm-8.41 0h1.05v.78h-1.05zm10.51 0h1.05v.78h-1.05zm-14.72 0h1.05v.78h-1.05zm-30.3-1.21a5.46 5.46 0 1 0-5.46-5.46 5.47 5.47 0 0 0 5.46 5.46zm0-10.15a4.69 4.69 0 1 1-4.69 4.69 4.69 4.69 0 0 1 4.69-4.7z"
        class="a"/>
    <path
        d="M209.83 19.48a.18.18 0 0 0-.17-.12h-.05l-.72.22h-.3l-.72-.22h-.05a.18.18 0 0 0-.17.12l-.39 1.08a.18.18 0 0 0 .11.23l1.28.4h.16l1.28-.4a.18.18 0 0 0 .11-.23zm-3.56-1.26a.27.27 0 0 0 .17.16l2.23.69h.16l2.23-.69a.27.27 0 0 0 .17-.16l.61-1.68a.11.11 0 0 0-.19-.11.5.5 0 0 1-.23.15l-2.52.78h-.3l-2.52-.78a.5.5 0 0 1-.23-.15.11.11 0 0 0-.19.11z"
        class="a"/>
    <path
        d="M207.91 16.48a.27.27 0 0 0 .18.19l.58.18h.16l.58-.18a.27.27 0 0 0 .18-.19l.41-1.55a.11.11 0 0 0-.19-.1.5.5 0 0 1-.22.14l-.7.22h-.28l-.7-.22a.5.5 0 0 1-.22-.14.11.11 0 0 0-.19.1zM280 23.46a5.46 5.46 0 1 0-5.43-5.46 5.47 5.47 0 0 0 5.43 5.46zm0-10.15a4.69 4.69 0 1 1-4.66 4.69 4.69 4.69 0 0 1 4.66-4.7z"
        class="a"/>
    <path
        d="M277.55 18.22a.27.27 0 0 0 .17.16l2.28.7h.16l2.23-.69a.27.27 0 0 0 .17-.16l.61-1.68a.11.11 0 0 0-.19-.11.5.5 0 0 1-.23.15l-2.52.78h-.3l-2.52-.78a.5.5 0 0 1-.23-.15.11.11 0 0 0-.19.11zm3.56 1.26a.18.18 0 0 0-.17-.12h-.05l-.72.22h-.3l-.72-.22h-.05a.18.18 0 0 0-.17.12l-.39 1.08a.18.18 0 0 0 .11.23l1.28.4h.16l1.28-.4a.18.18 0 0 0 .11-.23z"
        class="a"/>
    <path d="M279.19 16.48a.27.27 0 0 0 .18.19l.63.18h.16l.58-.18a.27.27 0 0 0 .18-.19l.41-1.55a.11.11 0 0 0-.19-.1.5.5 0 0 1-.22.14l-.7.22h-.28l-.74-.19a.5.5 0 0 1-.22-.14.11.11 0 0 0-.2.07z" class="a"/>
</svg>
