<svg xmlns="http://www.w3.org/2000/svg" viewBox="0 0 332.44 491.13" width="95" height="130">
    <defs>
        <style>
            .a {
                fill: #231f20;
            }
        </style>
    </defs>
    <path d="M207.39 197.31l-40.12-40.12-40.12 40.12 40.12 40.12zm-40.12-37.87l37.87 37.87-37.87 37.87-37.87-37.87z" class="a"/>
    <path
        d="M167.99 232.06l-.48-.48-.24.24-.24-.24-.47.48.71.72.72-.72m-18.93-17.5l.97.97.48-.48-.97-.97-.48.48m-3.886-3.907l.48-.48.97.968-.482.48zm-3.892-3.89l.48-.48.97.967-.48.48zm1.938 1.967l.98.97.48-.48-.98-.97-.48.48m-7.774-7.756l.48-.48.977.975-.48.48zm-1.946-1.994l.48-.48.97.968-.482.48zm3.887 3.927l.48-.48.977.974-.48.484zm1.94 1.956l.48-.48.977.975-.48.48zm7.79 7.73l.48-.48.97.968-.48.484zm7.77 7.82l.48-.48.975.974-.48.48zm3.893 3.843l.482-.48.968.968-.48.48zm-1.94-1.934l.48-.48.97.97-.48.48zm3.885 3.874l.48-.48.97.968-.482.48zm1.94 1.958l.48-.48.97.968-.48.48zm1.95 1.933l.48-.48.97.968-.48.48zm-11.67-11.617l.48-.48.977.975-.48.48zm-1.95-1.947l.48-.48.976.975-.48.48zM132.53 196.6l-.72.71.72.72.48-.47-.24-.25.24-.24-.48-.47m22.357-22.36l.977-.974.48.48-.977.976zm1.943-1.933l.977-.975.48.48-.977.976zm-3.89 3.878l.97-.97.48.482-.968.97zm5.833-5.835l.977-.976.48.482-.977.974zm3.887-3.88l.97-.97.48.48-.968.97zm3.4-2.45l-.48-.48-.97.98.48.48.97-.98m-13.61 13.61l-.48-.48-.97.98.48.47.97-.97m8.276-9.215l.977-.974.48.484-.977.975zm-21.396 21.387l.97-.97.48.482-.968.97zm-3.88 3.868l.97-.97.48.48-.968.97zm7.77-7.756l.97-.968.48.482-.97.968zm5.848-5.844l.97-.97.48.48-.97.97zm-7.79 7.778l.976-.975.48.48-.977.976zm-3.888 3.888l.97-.97.48.482-.968.97zm-3.89 3.89l.97-.97.48.483-.968.966zm13.61-13.606l.97-.97.48.482-.968.968zm-1.947 1.936l.977-.974.48.48-.977.976zm22.107-21.146l.24.24.48-.48-.72-.72-.71.72.47.48.24-.24m24.05 23.09l-.97-.97-.48.48.97.97.48-.48m-3.392-2.448l.48-.48.97.968-.482.48zm-1.94-1.947l.48-.48.97.968-.48.48zm9.714 9.757l.48-.48.977.974-.484.48zm1.958 1.948l.48-.48.976.976-.48.48zm-12.17-13.14l-.97-.97-.48.48.97.97.48-.48m8.278 9.252l.48-.48.977.975-.48.48zm-1.956-1.986l.48-.48.97.968-.482.48zM168.478 164l.48-.48.97.97-.48.48zm13.616 13.655l.48-.48.977.975-.48.48zm-9.724-9.765l.48-.48.97.97-.482.48zm27.224 27.218l.48-.48.97.968-.48.48zm-29.158-29.158l.48-.48.97.97-.48.48zm3.89 3.892l.48-.48.97.968-.48.48zm5.824 5.863l.482-.48.976.975-.48.48zm-3.89-3.923l.482-.48.968.97-.48.48zm1.943 1.984l.48-.48.977.975-.48.484zm23.817 24.264l.71-.72-.71-.71-.48.47.24.24-.24.25.48.47m-33.53 32.57l.47.49.98-.98-.48-.48-.97.97m1.947-1.934l.97-.968.48.48-.97.97zm13.61-13.616l.97-.97.48.48-.97.97zm-9.727 9.73l.977-.975.48.482-.976.975zm1.936-1.95l.977-.975.48.48-.977.976zm23.334-23.33l.97-.968.48.48-.97.97zm-19.433 19.44l.97-.968.48.48-.97.97zm1.933-1.94l.48.48.97-.98-.47-.48-.98.98m5.833-5.82l.977-.975.48.48-.976.976zm-1.943 1.928l.97-.968.48.48-.97.97zm-7.78 7.788l.976-.975.48.485-.977.974zm-5.83 5.824l.977-.974.48.48-.976.976zm21.397-21.387l.97-.97.48.482-.97.97zm3.88-3.89l.97-.97.48.48-.97.97zm-5.837 5.847l.976-.976.48.48-.976.976zm3.89-3.908l.97-.97.48.482-.97.97zm-5.834 5.84l.97-.968.48.482-.97.967zm-23.216-4.932a2.11 2.11 0 0 0 1.24 0l13.36-4.16a2.12 2.12 0 0 0 1.34-1.27l3.63-10a1.13 1.13 0 0 0 .08-.41 1.16 1.16 0 0 0-2-.76 2.48 2.48 0 0 1-1.14.74L168 193.09a2.52 2.52 0 0 1-1.49 0l-15.12-4.7a2.49 2.49 0 0 1-1.14-.75 1.16 1.16 0 0 0-2 .76 1.14 1.14 0 0 0 .07.4l3.68 10.06a2.11 2.11 0 0 0 1.34 1.27zm-13.79-5.76l-3.65-10.12a.19.19 0 0 1 .33-.12 3.45 3.45 0 0 0 1.59 1l15.12 4.7a3.49 3.49 0 0 0 2.06 0l15.11-4.7a3.44 3.44 0 0 0 1.59-1 .19.19 0 0 1 .31.19l-3.64 10a1.13 1.13 0 0 1-.72.68l-13.36 4.16a1.14 1.14 0 0 1-.66 0l-13.36-4.16a1.13 1.13 0 0 1-.71-.63zm23.79 14.53a1.54 1.54 0 0 0-.09-.52l-2.35-6.49a1.58 1.58 0 0 0-1.91-1l-4.3 1.37a2.51 2.51 0 0 1-1.47 0l-4.29-1.33a1.58 1.58 0 0 0-1.92 1l-2.35 6.5a1.54 1.54 0 0 0 1 2l7.69 2.39a2.1 2.1 0 0 0 1.22 0l7.68-2.39a1.53 1.53 0 0 0 1.09-1.53zm-1.37.54l-7.68 2.4a1.14 1.14 0 0 1-.65 0l-7.68-2.39a.56.56 0 0 1-.36-.73l2.35-6.5a.56.56 0 0 1 .53-.38h.17l4.29 1.33a3.5 3.5 0 0 0 2 0l4.29-1.33a.58.58 0 0 1 .7.35l2.35 6.5a.56.56 0 0 1-.31.75z"
        class="a"/>
    <path
        d="M159.27 178.78a1.13 1.13 0 0 0 0 .3l2.47 9.32a2.11 2.11 0 0 0 1.41 1.46l3.46 1.08a2.1 2.1 0 0 0 1.25 0l3.46-1.08a2.11 2.11 0 0 0 1.41-1.46l2.47-9.31a1.12 1.12 0 0 0 0-.31 1.16 1.16 0 0 0-2-.75 2.48 2.48 0 0 1-1.09.72L168 180a2.49 2.49 0 0 1-1.36 0l-4.19-1.3a2.49 2.49 0 0 1-1.1-.73 1.16 1.16 0 0 0-2.08.81zm1.16-.19a.2.2 0 0 1 .15.08 3.46 3.46 0 0 0 1.54 1l4.2 1.31a3.42 3.42 0 0 0 1.91 0l4.2-1.3a3.47 3.47 0 0 0 1.54-1 .2.2 0 0 1 .32.17l-2.47 9.32a1.13 1.13 0 0 1-.75.78l-3.46 1.05a1.15 1.15 0 0 1-.67 0l-3.46-1.08a1.13 1.13 0 0 1-.75-.78l-2.48-9.37a.19.19 0 0 1 .18-.18zm55.2-143.31l.64-.09q-.09-.65-.19-1.29l-.64.1q.09.63.19 1.28zm-.39-2.56l.64-.11q-.11-.65-.21-1.28l-.64.11q.1.63.21 1.28zM216.43 43h.65q0-.65-.09-1.3h-.65q.06.66.09 1.3zm-2.01-18.07c-.1-.46-.19-.89-.28-1.27l-.63.14.28 1.27zm2.11 20.66h.65v-1.31h-.65q-.01.67 0 1.31zm-.53-7.74l.64-.08-.16-1.29-.64.08q.05.64.16 1.29zm-1.69-10.24l.64-.13c-.09-.44-.17-.87-.26-1.28l-.63.13zm2.19 20.55h.65v-1.31h-.65q.03.68 0 1.31zm-1.71-18l.64-.11q-.12-.66-.24-1.28l-.64.12q.13.62.24 1.27zm1.45 10.26l.65-.06q-.06-.65-.13-1.3l-.64.07.12 1.29zm-19.55-13.61l.64-.12c-.09-.45-.18-.88-.27-1.29l-.63.15c.08.4.17.82.26 1.26zm-.6-2.5l.62-.18a10.61 10.61 0 0 0-.45-1.26l-.59.26a10 10 0 0 1 .42 1.18zm1.02 5.05l.64-.09c-.06-.44-.13-.87-.2-1.29l-.64.11c.09.41.09.84.2 1.27zm1.1 11.63l.65-.038.076 1.298-.65.038zm.22 3.9l.64-.03-.06-1.3-.65.03.07 1.3m-.392-6.47l.648-.046.09 1.297-.65.048zm-.328-3.9l.65-.06q-.06-.65-.13-1.3l-.64.07.12 1.29zm.23 2.59l.65-.05c0-.43-.07-.86-.11-1.3l-.65.06q.06.64.11 1.29zm-.5-5.17l.64-.08-.16-1.29-.64.08q.08.63.16 1.29zm82.39 288.24h.65v1.3h-.65zm0 2.59h.65v1.3h-.65zm0 2.6h.65v1.3h-.65z"
        class="a"/>
    <path
        d="M332.44 312c0-.75 0-6.29-1.22-8.23v-8.05h-10.84v-85a101 101 0 0 0 0-11.23v-6.88a121.37 121.37 0 0 0-.13-14.53h.11v-.32h-.11c0-.33 0-.67-.06-1h.11c0-.29 0-.62-.08-1h-.1c0-.32-.05-.65-.08-1h.09c0-.31-.07-.64-.11-1h-.06c0-.32-.06-.66-.09-1l-.12-.9c-2.11-21.62-9.63-56.09-35-83.49-16.54-17.87-38.2-30.27-64.68-37.1 1.13-9.32-2.14-24.23-3.14-28.5h.38l-.5-1.27C216.61 21 211.78 9 202 3.69 194.77-.24 167.37 0 166.23 0s-28.56-.24-35.77 3.69C120.66 9 115.83 21 115.63 21.51l-.5 1.27h.38c-1 4.27-4.27 19.18-3.14 28.5-26.49 6.83-48.14 19.23-64.68 37.1-25.4 27.44-32.9 62-35 83.57v.12c0 .33-.06.66-.09 1l-.11 1h.06c0 .33-.05.66-.08 1h-.15q-.05.54-.09 1h.1c0 .34 0 .67-.07 1h-.11c0 .68-.06 1-.06 1h.1a120.74 120.74 0 0 0-.14 14.47v7a100 100 0 0 0 0 11.17v85.08H1.21v8.06C0 305.74 0 311.26 0 312s0 6.27 1.21 8.22v131.95l12.67 26.25V478c4.45 10.59 15.53 13 15.9 13.11h272.93c1.12-.25 11.53-2.9 15.81-13.09v.42l12.67-26.25V320.24c1.21-1.93 1.25-7.48 1.25-8.24zm-2.14 7.86c-.42-.46-1.14-3.09-1.14-7.86s.72-7.4 1.14-7.86c.42.46 1.14 3.09 1.14 7.86s-.72 7.41-1.14 7.88zM318.52 467c0 18.13-14.73 22-16.16 22.31H30.08c-1.43-.33-16.16-4.19-16.16-22.31V199.47c.84-17.87 6-53.92 32.48-82.63C72.64 88.35 113 73.9 166.22 73.9S259.79 88.34 286 116.82c26.46 28.72 31.66 64.81 32.5 82.71V467zM23.47 137.53l.37-.91 1.66.76.41-.87-1.69-.79.38-.9 1.72.82.42-.87-1.74-.85.39-.9 1.78.89.43-.91-1.8-.92.41-.89 1.79 1 .45-.85-1.86-1 .42-.88 1.89 1 .46-.85-1.91-1 .44-.88 1.94 1.08.47-.84-2-1.12.46-.87 2 1.15.49-.83-2-1.19.47-.86 2 1.22.5-.82-2.06-1.26.49-.85 2.08 1.29.51-.81-2.1-1.34.5-.85 2.12 1.37.53-.81-2.07-1.39a112.14 112.14 0 0 1 13.34-17.83C71.83 73.52 112.43 59 166.22 59s94.38 14.51 120.66 43.13a112 112 0 0 1 12.94 17.16l-.26-.4-2.15 1.45.54.8 2.14-1.42.51.85-2.14 1.43.52.81 2.11-1.34.49.85-2.08 1.31.5.77 2.06-1.27.48.86-2 1.23.46.78 2-1.2.46.87-2 1.16.48.83 2-1.12.45.87-1.95 1.09.47.84 1.92-1.06.44.88-1.9 1 .45.85 1.87-1 .42.88-1.84 1 .44.86 1.81-.93.41.89-1.79.89.43.87 1.76-.86.39.9-1.73.83.41.87 1.7-.8.38.9-1.67.77.4.88 1.64-.74.36.91-1.61.71.39.88 1.58-.69.35.91-1.54.66.09.21A117.8 117.8 0 0 0 287 107.37C260.48 78.61 219.86 64 166.22 64S72 78.61 45.48 107.37A117.78 117.78 0 0 0 24 140.81l.33-.78-1.57-.68.36-.91 1.6.71.39-.88zm-9 40.61h.15c-.17.87-.32 1.72-.47 2.57q.15-1.26.33-2.57zm.13-1c0-.32.09-.63.14-1h.07c0-.29.05-.61.09-1 3-19.21 10.81-45.49 31.07-67.48 26.36-28.61 66.82-43.12 120.26-43.12s93.9 14.51 120.26 43.12C307 130.05 314.77 156.7 317.65 176h-.05c0 .36.06.68.08 1h.11c0 .32.09.64.14 1h-.16c-3.63-18.67-11.89-42.25-30.36-62.3C260.8 86.7 220 72 166.22 72S71.64 86.7 45 115.58c-18.41 20-26.67 43.48-30.32 62.11v-.5h-.07zm5.55-26.37l-1.15-.32.28-.93 1.16.39zm-.3.91l-.3.92-1-.33.26-.94zm-.59 1.84l-.29.92-1-.28.25-.94zm-.57 1.84l-.27.92-.88-.25.23-.94zm-.54 1.85l-.26.93-.79-.14.22-.95zm-2.91 12.22h-.28c0-.32.1-.64.14-1l.33.06zm.38-1.9l-.37-.07.16-1 .42.08zm.38-1.83l-.46-.09c.05-.32.11-.63.17-1l.51.1zm.43-1.89l-.55-.12.18-1 .59.13zm.45-1.88l-.63-.14.19-1 .71.21zm.48-1.87l-.72-.18.21-.95.76.19zm-2.33 10.38l-.18.95h-.19l.13-1zm-.34 1.9l-.16 1h-.1c0-.32.08-.64.12-1zm299.75-14.41l.81-.21.21.95-.77.2zm1.24 1.69l.2.95-.68.16-.2-.93zm.4 1.9l.19 1-.6.13-.23-.93zm.37 1.91l.18 1-.51.11-.22-.94zm.35 1.91c.06.32.11.64.17 1l-.43.08-.21-.94zm.32 1.91l.15 1-.34.06-.2-1zm.3 1.92l.14 1h-.25l-.18-1zm.4 3.86h.18c0 .32.08.65.11 1H318zm-.17-1l-.17-1h.21c0 .32.08.64.12 1zM314.21 157l-.27-.93.9-.25.23.95zm-.54-1.85l-.28-.93 1-.29.24.94zm-.57-1.84l-.3-.92 1.06-.33.25.94zm-.6-1.84l-.31-.91 1.13-.38.27.94zm-.62-1.83l-.32-.91 1.21-.42.28.93zm6.28 25.3v.17zm-.19 3.2q.18 1.34.33 2.62c-.15-.86-.31-1.73-.48-2.62h.18zm-2.51-22.49l.18.92zm-.24-.95l-.24-.95h.12l.2 1zm-.49-1.89l-.25-.94.21-.07.21 1zm-.52-1.89l-.27-.94.31-.1.23 1zm-.55-1.92l-.28-.94.4-.14.24 1zm-.57-1.88l-.29-.93.5-.18.25 1zm-.61.22l-1.25.45-.33-.91 1.29-.47zm-1.92-1.34l-.34-.9 1.37-.52.31.93zm-.7-1.8l-.36-.89 1.44-.58.32.92zm-.72-1.79l-.39-.94v.05l1.52-.63.33.92zm-285.19-1.5l-.37.89-1.51-.62.34-.92zm-.75 1.78l-.36.89-1.43-.58.33-.92zm-.72 1.79l-.35.9-1.36-.51.32-.92zm-.7 1.8l-.34.9-1.28-.46.3-.93zm-.67 1.81l-.33.91-1.2-.41.29-.93zm-2.14.28l-.39-.13.24-1 .44.16zm-.28.94l-.28.94-.29-.1.23-1zm-.54 1.88l-.26.94-.2-.06.21-1zm-.51 1.89l-.25.95h-.11l.2-1zm-.48 1.92l-.24.95.19-1zm-2.82 19.28h.06l-.14.89v-.62zm125.33-151.5h53.1c1.46 1.59 2.71 13.32 3.09 24a252.43 252.43 0 0 0-59.28 0c.42-10.68 1.63-22.41 3.09-24zm78.65 27.47l-1.31-.3v-.45l-.65-.05v.36a164.58 164.58 0 0 0-17.23-3.11v-.53h-.65v.45l-.79-.05c-.08-1.9-.29-6.59-.72-11.37-.66-7.29-1.45-10.74-2.14-12.44H215c.83 3.4 4.16 18.18 3.33 27.49zM129.25 6.64v.14c.39-.11.81-.21 1.25-.31l-.13-.59c.31-.19.63-.39 1-.57 6.79-3.7 34.58-3.47 34.88-3.46s28.07-.24 34.86 3.46c.29.16.56.33.84.5h-.14l-.13.63c.44.09.86.19 1.25.29l.07-.25c5.09 3.49 8.61 8.87 10.49 12.35v.51h.27c.32.61.59 1.15.79 1.58h-96.6c1.33-2.87 5.14-9.92 11.3-14.28zm-11.83 16.14h20.18c-.69 1.7-1.49 5.15-2.15 12.44-.43 4.78-.65 9.47-.72 11.37l-.79.05v-.45h-.65v.53a164.59 164.59 0 0 0-17.23 3.11v-.36l-.65.05v.45l-1.3.3c-.82-9.33 2.51-24.11 3.31-27.49zM49.06 89.63c26.28-28.38 65.7-42.77 117.17-42.77s90.89 14.39 117.17 42.77c16.32 17.62 25.15 38.23 29.89 56.36l-.32-.87-.47.18-.31-.93.43-.16-.35-.92-.4.15-.32-.93.36-.14-.37-.91-.32.13-.33-.92.28-.12-.38-.91-.25.11-.35-.92.21-.09-.39-.9-.18.08-.36-.92.14-.06-.41-.89h-.1l-.38-.91h.06l-.42-.89a115.94 115.94 0 0 0-20.95-32.57C261 72.94 220.2 58.36 166.22 58.36S71.48 72.94 45.08 101.71a115.77 115.77 0 0 0-20.67 31.93l-.43.88-.38.91h-.08l-.42.89.11.05-.37.91-.15-.07-.4.9.18.08-.36.92-.22-.1-.39.9.32.09-.35.92-.3-.12-.37.91.33.13-.33.92-.37-.15-.36.92.41.16-.32.93-.44-.17-.34.92.48.18-.31.93-.49-.17c4.74-18.19 13.58-38.95 30-56.68zM2.14 304.15c.42.46 1.14 3.09 1.14 7.86s-.72 7.4-1.14 7.86C1.72 319.41 1 316.78 1 312s.72-7.39 1.14-7.85zm.93 147.6V320.23c1.17-1.95 1.21-7.47 1.21-8.22s0-6.27-1.21-8.22v-6.21h9v168.15c-.11-.59-.22-1.21-.35-1.85-.25-1.31-.57-2.7-.88-4.08-.66-2.77-1.41-5.51-2.07-7.55s-1.18-3.38-1.18-3.38.11 1.43.45 3.55.88 4.91 1.53 7.68c.34 1.38.68 2.76 1 4s.7 2.48 1 3.5c.15.48.3.92.43 1.32v1.35zm326.3 0l-9 18.56V469c.13-.4.28-.84.43-1.32.33-1 .68-2.21 1-3.5s.7-2.67 1-4c.65-2.77 1.2-5.56 1.53-7.68s.45-3.55.45-3.55-.54 1.33-1.18 3.38-1.41 4.78-2.07 7.55c-.31 1.39-.63 2.77-.88 4.08-.13.64-.25 1.26-.35 1.86V297.58h9v6.2c-1.18 1.94-1.22 7.48-1.22 8.23s0 6.29 1.22 8.23v131.51z"
        class="a"/>
    <path
        d="M160.247 4.71l.006-.65 1.3.012-.006.65zm6.503.08l-.02-.65-.5.02-.78-.02-.02.65.8.02.52-.02m5.19-.08l-.01-.65-1.3.02.01.64 1.3-.01M133.07 6l-.07-.64-1.29.22.12.64zm23.28-1.3v-.65l-1.3.01.01.65 1.29-.01m-7.79.13v-.65h-1.3v.65zm-12.93.83l-.08-.66-1.3.16.09.64zm28.52-1.55l-1.3-.02-.01.65 1.3.02.01-.65m3.883.007l1.3-.02.01.65-1.3.02zm-22.063.803l-.03-.65-1.3.05.03.65 1.3-.05m12.98-.87h-1.3v.65h1.3v-.65m-5.2.67v-.65l-1.3.02.01.65 1.29-.02m-2.59.04l-.01-.65-1.3.03.01.65 1.3-.03m28.57-.68l-1.3-.01v.65l1.29.02.01-.66m5.2.13l-1.3-.04-.01.65 1.29.04.02-.65m2.6.1l-1.3-.06-.02.65 1.29.06.03-.65m-6.498.453l.014-.65 1.3.028-.014.65zM138.21 5.4l-.06-.65-1.3.12.07.65zm62.3.13l-1.29-.21-.1.64 1.27.21zm-59.72-.34v-.65l-1.3.1.05.65zm36.34-1.13l-1.3-.01v.65l1.3.01v-.65m18.2.79L194 4.73v.64l1.29.12zm-22.1-.794l1.3-.004.003.65-1.3.004zm19.51.564l-1.3-.09v.65l1.29.09zm5.18.52L196.63 5l-.07.64 1.29.16zM143.38 5v-.65l-1.3.07v.65zm46.76-.55l-1.3-.07v.65l1.29.07zM132.97 18.7h1.3v.65h-1.3zm70.1 0h1.3v.65h-1.3zm2.6 0h1.3v.65h-1.3zm-70.1 0h1.3v.65h-1.3zm72.69 0h1.3v.65h-1.3zm-70.09 0h1.3v.65h-1.3zm72.69 0h1.3v.65h-1.3zm-70.1 0h1.3v.65h-1.3zm18.18 0h1.3v.65h-1.3zm7.78 0h1.3v.65h-1.3zm-44.13 0h1.3v.65h-1.3zm38.94 0h1.3v.65h-1.3zm2.6 0h1.3v.65h-1.3zm5.19 0h1.3v.65h-1.3zm2.6 0h1.3v.65h-1.3zm-41.54 0h1.3v.65h-1.3zm23.36 0h1.3v.65h-1.3zm-2.59 0h1.3v.65h-1.3zm5.19 0h1.3v.65h-1.3zm-31.16 0h1.3v.65h-1.3zm2.6 0h1.3v.65h-1.3zm46.73 0h1.3v.65h-1.3zm10.39 0h1.3v.65h-1.3zm2.59 0h1.3v.65h-1.3zm12.98 0h1.3v.65h-1.3zm-5.19 0h1.3v.65h-1.3zm-5.19 0h1.3v.65h-1.3zm7.79 0h1.3v.65h-1.3zm-5.19 0h1.3v.65h-1.3zm-46.74 0h1.3v.65h-1.3zm2.6 0h1.3v.65h-1.3zm28.56 0h1.3v.65h-1.3zm5.19 0h1.3v.65h-1.3zm-38.94 0h1.3v.65h-1.3zm-23.37 0h1.3v.65h-1.3zm59.72 0h1.3v.65h-1.3zm-60.78 5.1l-.63-.14c-.09.39-.18.81-.28 1.27l.63.14zm-2.99 24.36v-1.29h-.65v1.31zm2.45-21.82l-.63-.13c-.08.41-.17.83-.26 1.28l.64.13zm-.51 2.54l-.64-.12q-.12.62-.24 1.28l.64.11q.13-.64.24-1.27zM117 34l-.64-.1q-.1.64-.19 1.29l.64.09q.1-.65.19-1.28zm-.36 2.56l-.64-.08q-.09.64-.16 1.29l.64.08.16-1.29zm.78-5.12l-.64-.11q-.11.63-.21 1.28l.64.11q.11-.65.21-1.28zm-1.09 7.69l-.64-.07q-.07.65-.13 1.3l.65.06.12-1.29zm-.38 5.17h-.65v1.31h.65q-.03-.66 0-1.31zm.15-2.59h-.65q0 .65-.09 1.3L116 43q0-.64.1-1.29zM136 25.55l-.63-.15c-.09.4-.18.83-.27 1.29l.64.12c.1-.44.19-.86.26-1.26zm-1.38 10.26l-.62-.05c0 .44-.07.87-.11 1.3l.65.05q.02-.65.08-1.3zm-1.363 3.33l.09-1.3.65.044-.09 1.3zm1.603-5.91l-.64-.07q-.07.65-.13 1.3l.65.06q.05-.65.12-1.29zm-1.348 9.027l.078-1.298.65.036-.08 1.298zm.568 1.333l-.65-.03-.06 1.3.65.03.06-1.3m1.08-12.94l-.64-.08-.16 1.29.64.08.16-1.29zm.37-2.57l-.64-.08c-.07.42-.14.85-.2 1.29l.64.09c.07-.45.13-.88.2-1.3zm1.24-4.96l-.59-.26a10.61 10.61 0 0 0-.45 1.26l.62.18a10 10 0 0 1 .42-1.18zm149.69 272.61H46v164.88h240.46v-15h10.19v-37.74h-10.19V295.73zM47.83 316.81v-18.67c.25.35.55.73.89 1.13l.16.18h-.18v1.27h.63v-.76l.67.63a20.75 20.75 0 0 0 2.6 2.19 10 10 0 0 0 1.36.82 10 10 0 0 0-.83-1.35 20.76 20.76 0 0 0-2.21-2.59l-.4-.38h.63v-.63h-1.33v.06l-.3-.26c-.39-.33-.77-.62-1.12-.87H284c-.35.25-.73.54-1.12.87s-.57.49-.85.76v-.55h-1.23v.63h1.2l-.4.38a20.76 20.76 0 0 0-2.21 2.59 10 10 0 0 0-.83 1.35 10 10 0 0 0 1.36-.82 20.75 20.75 0 0 0 2.6-2.19l.62-.65v.21h.63v-.92c.33-.38.62-.75.86-1.1v20.28H66.31a.76.76 0 0 1-.29-.33c-.17-.53-.88-.7-2.09-.51a13.77 13.77 0 0 0-2.85.84H49.33v-1.22h-.63v1.21h-.87v-1h.37v-.65h-.37zm232.64 11.81V328h-.65v.65h-.64v-8.9h3.93v.75h.63v-.75h.86v8.9h-4.13zM65.4 330.3a1.09 1.09 0 0 1-1.14.25c-2.87-.29-8.5-3.3-8.5-6.27s5.36-5.59 8.28-6.06c1.05-.17 1.35 0 1.37.07.49 1.49 6.43 2.56 8.21 2.85v.55a4 4 0 0 0-5.19 1.06h-11v3.39h10.22a4.09 4.09 0 0 0 1.35 2.23c-3 .81-3.51 1.49-3.6 1.93zM52 328v.65h-2.67v-1.26h-.63v1.26h-.87v-8.9h5.42v8.9h-.63V328H52zm2.59-8.25h4c-1.9 1.19-3.42 2.78-3.42 4.56 0 1.6 1.27 3.13 2.95 4.34h-3.56v-8.9zm21.95 7.82l.34.8.12.25h-3a3.75 3.75 0 0 0 1.68-2.55 7.36 7.36 0 0 1 .82 1.46zm1.46 4a2.26 2.26 0 0 1-.12 1.25A2.76 2.76 0 0 1 76 334.1a2.87 2.87 0 0 1-2.34 0c-.62-.41-.86-1.37-1-2.55h1v-.65h-1v-.19c0-.26-.07-.53-.11-.8h5.1c.13.35.25.68.33 1h-.5v.65H78zm-2.87-6.31a3.27 3.27 0 0 1-2.89 3.36 5 5 0 0 1-.07-.93 2.35 2.35 0 0 0 2.27-2.42 2.78 2.78 0 0 0-2.75-2.75 2.22 2.22 0 0 0-1.1.25 2.57 2.57 0 0 0-1 .88 2.71 2.71 0 0 0-.18 2.37 4.3 4.3 0 0 0-.23 1.63 3.44 3.44 0 1 1 5.91-2.4zM72.22 327a2.05 2.05 0 0 1 1.48-1.3 1.52 1.52 0 0 1-1.48 1.3zm-2.46-1.84a2 2 0 0 1 .34-1.2 1.91 1.91 0 0 1 .61-.59H72a4.87 4.87 0 0 0-2.24 1.81zm2.42-1.86zm-4.62 2.16H58.1v-2.09H68a4 4 0 0 0-.47 1.86l.03.25zm2.32 2.81c-.67-3.68 2.8-4.5 3.18-4.58a2.06 2.06 0 0 1 .66 1.31c-1.37.48-2.68 1.09-2.14 3.92.12.63.2 1.25.28 1.86.22 1.71.41 3.19 1.43 3.85a2.32 2.32 0 0 0 1.3.34 5.64 5.64 0 0 0 1.58-.27 3.35 3.35 0 0 0 2.24-1.65c.61-1.32-.13-3-1-5l-.34-.79a7.71 7.71 0 0 0-1.38-2.17 4 4 0 0 0-.43-1.68 3.6 3.6 0 0 1 3 2.44c1.48 3.94 9.38 24.34 9.46 24.57 0 0 1.67 3.67.32 6.8a7.26 7.26 0 0 1-10.49 2.89c-2.72-2-3.15-5.85-3.16-5.91-.05-.2-3.76-21.77-4.51-25.9zm9-2.66c0-.06-.06-.11-.08-.17h.5v-2.6h-1v1.77a4.44 4.44 0 0 0-3.47-1.9 4.1 4.1 0 0 0-.59-.61v-1.55h-.27c-1.26-.2-2.74-.49-4.09-.82h208v3.15h-.95v2.6h.95v3.15H80zM49.4 458c.43-.35.84-.75 1.27-1.15a18.55 18.55 0 0 0 2.07-2.46 9.05 9.05 0 0 0 .77-1.29 9.05 9.05 0 0 0-1.29.77 18.54 18.54 0 0 0-2.46 2.07c-.28.29-.55.58-.81.87h-.25v.27l-.11.12c-.29.34-.53.67-.76 1V331.56h.37v-.65h-.37v-1h.87v1.25h.63v-1.25h10.88a14.88 14.88 0 0 0 2.55 1h-.28v.65h1.3v-.42l.41.06h.43a2.7 2.7 0 0 0 .45 0v.38h1.3v-.65h-.62a.84.84 0 0 0 .29-.48 1.45 1.45 0 0 1 .57-.52h2.91c1.12 6.32 4.19 24.21 4.22 24.39s.46 4.2 3.42 6.34a6.91 6.91 0 0 0 4.17 1.28 11 11 0 0 0 2.32-.27 7.76 7.76 0 0 0 5-4.18c1.46-3.4-.26-7.17-.32-7.31S84 339 81.11 331.56h1v-.65h-1.25l-.38-1h202.63v.7h.63v-.7h.86v1h-1.25v.65h1.25v126.61c-.22-.31-.47-.64-.75-1l-.11-.12v-.82h-.63v.11l-.41-.43a18.54 18.54 0 0 0-2.46-2.07 9.05 9.05 0 0 0-1.29-.77 9.05 9.05 0 0 0 .77 1.29 18.55 18.55 0 0 0 2.07 2.46c.42.4.84.81 1.27 1.15s.67.53 1 .76H48.42c.31-.19.64-.44.98-.73zm246.83-49.7v36.92h-9.76V408.3h9.76z"
        class="a"/>
    <path
        d="M142.97 316.81h1.3v.65h-1.3zm12.98 0h1.3v.65h-1.3zm12.98 0h1.3v.65h-1.3zm-5.19 0h1.3v.65h-1.3zm2.59 0h1.3v.65h-1.3zm-5.19 0h1.3v.65h-1.3zm-12.98 0h1.3v.65h-1.3zm-2.6 0h1.3v.65h-1.3zm5.2 0h1.3v.65h-1.3zm2.59 0h1.3v.65h-1.3zm5.19 0h1.3v.65h-1.3zm-103.84 0H56v.65h-1.3zm2.59 0h1.3v.65h-1.3zm-5.19 0h1.3v.65h-1.3zm119.43 0h1.3v.65h-1.3zm-122.03 0h1.3v.65h-1.3zm15.58 0h1.3v.65h-1.3zm-5.19 0h1.3v.65h-1.3zm116.83 0h1.3v.65h-1.3zm-114.24 0h1.3v.65h-1.3zm111.64 0h1.3v.65h-1.3zm-83.08 0h1.3v.65h-1.3zm-2.59 0h1.3v.65h-1.3zm-5.2 0h1.3v.65h-1.3zm2.6 0h1.3v.65h-1.3zm12.98 0h1.3v.65h-1.3zm2.6 0h1.3v.65h-1.3zm-5.19 0h1.3v.65h-1.3zm-2.6 0h1.3v.65h-1.3zm-12.98 0h1.3v.65h-1.3zm59.71 0h1.3v.65h-1.3zm-67.5 0h1.3v.65h-1.3zm-2.6 0h1.3v.65h-1.3zm5.2 0h1.3v.65h-1.3zm2.59 0h1.3v.65h-1.3zm-10.38 0h1.3v.65h-1.3zm59.71 0h1.3v.65h-1.3zm51.92 0h1.3v.65h-1.3zm-49.32 0h1.3v.65h-1.3zm-5.2 0h1.3v.65h-1.3zm12.99 0h1.3v.65h-1.3zm-2.6 0h1.3v.65h-1.3zm-2.6 0h1.3v.65h-1.3zm-20.77 0h1.3v.65h-1.3zm-7.79 0h1.3v.65h-1.3zm18.18 0h1.3v.65h-1.3zm-15.58 0h1.3v.65h-1.3zm2.6 0h1.3v.65h-1.3zm5.19 0h1.3v.65h-1.3zm2.59 0h1.3v.65H117zm64.91 0h1.3v.65h-1.3zm46.73 0h1.3v.65h-1.3zm-2.59 0h1.3v.65h-1.3zm-5.2 0h1.3v.65h-1.3zm10.39 0h1.3v.65h-1.3zm-12.98 0h1.3v.65h-1.3zm5.19 0h1.3v.65h-1.3zm18.17 0h1.3v.65h-1.3zm-5.19 0h1.3v.65h-1.3zm7.79 0h1.3v.65h-1.3zm-5.19 0h1.3v.65h-1.3zm7.79 0h1.3v.65h-1.3zm-46.74 0h1.3v.65h-1.3zm15.58 0h1.3v.65h-1.3zm-12.98 0h1.3v.65h-1.3zm-7.79 0h1.3v.65h-1.3zm2.6 0h1.3v.65h-1.3zm7.79 0h1.3v.65h-1.3zm7.79 0h1.3v.65h-1.3zm-2.6 0h1.3v.65h-1.3zm-2.6 0h1.3v.65h-1.3zm44.14 0h1.3v.65h-1.3zm-62.31 0h1.3v.65h-1.3zm44.13 0h1.3v.65h-1.3zm-46.73 0h1.3v.65h-1.3zm88.28 0h1.3v.65h-1.3zm5.19 0h1.3v.65h-1.3zm-88.27 0h1.3v.65h-1.3zm-72.7 0h1.3v.65h-1.3zm158.37 0h1.3v.65h-1.3zm-93.46 0h1.3v.65h-1.3zm70.1 0h1.3v.65h-1.3zm2.59 0h1.3v.65h-1.3zm2.6 0h1.3v.65h-1.3zm12.98 0h1.3v.65h-1.3zm-10.39 0h1.3v.65h-1.3zm-12.98 0h1.3v.65h-1.3zm20.77 0h1.3v.65h-1.3zm-5.19 0h1.3v.65h-1.3zm2.6 0h1.3v.65h-1.3zm-88.09 14.1h1.3v.65h-1.3zm-7.78 0h1.3v.65h-1.3zm5.19 0h1.3v.65h-1.3zm-2.6 0h1.3v.65h-1.3zm-10.38 0h1.3v.65h-1.3zm18.17 0h1.3v.65h-1.3zm-12.98 0h1.3v.65h-1.3zm-2.6 0h1.3v.65h-1.3zm23.37 0h1.3v.65h-1.3zm7.79 0h1.3v.65h-1.3zm-2.6 0h1.3v.65h-1.3zm5.2 0h1.3v.65h-1.3zm-7.79 0h1.3v.65h-1.3zm-5.2 0h1.3v.65h-1.3zm-2.59 0h1.3v.65h-1.3zm-23.37 0h1.3v.65h-1.3zm41.54 0h1.3v.65h-1.3zm-72.69 0h1.3v.65h-1.3zm-2.6 0h1.3v.65h-1.3zm7.79 0h1.3v.65h-1.3zm23.37 0h1.3v.65h-1.3zm-38.95 0h1.3v.65h-1.3zm2.6 0h1.3v.65h-1.3zm2.59 0h1.3v.65h-1.3zm7.79 0h1.3v.65h-1.3zm20.77 0h1.3v.65h-1.3zm2.6 0h1.3v.65h-1.3zm-5.19 0h1.3v.65h-1.3zm-12.98 0h1.3v.65h-1.3zm2.59 0h1.3v.65h-1.3zm2.6 0h1.3v.65h-1.3zm5.19 0h1.3v.65h-1.3zm96.06 0h1.3v.65h-1.3zm23.37 0h1.3v.65h-1.3zm-7.79 0h1.3v.65h-1.3zm-2.6 0h1.3v.65h-1.3zm7.79 0h1.3v.65h-1.3zm-18.17 0h1.3v.65h-1.3zm2.59 0h1.3v.65h-1.3zm5.2 0h1.3v.65h-1.3zm-2.6 0h1.3v.65h-1.3zm10.38 0h1.3v.65h-1.3zm15.58 0h1.3v.65h-1.3zm-194.71 0h1.3v.65h-1.3zm197.31 0h1.3v.65h-1.3zm-5.19 0h1.3v.65h-1.3zm-189.53 0h1.3v.65h-1.3zm186.93 0h1.3v.65h-1.3zm-2.6 0h1.3v.65h-1.3zm-57.11 0h1.3v.65h-1.3zm5.19 0h1.3v.65h-1.3zm-2.6 0h1.3v.65h-1.3zm5.19 0h1.3v.65h-1.3zm2.6 0h1.3v.65h-1.3zm-18.17 0h1.3v.65h-1.3zm2.59 0h1.3v.65h-1.3zm2.6 0h1.3v.65h-1.3zm-93.46 0h1.3v.65h-1.3zm119.42 0h1.3v.65h-1.3zm-10.38 0h1.3v.65h-1.3zm15.57 0h1.3v.65h-1.3zm-2.59 0h1.3v.65h-1.3zm-5.19 0h1.3v.65h-1.3zm-5.2 0h1.3v.65h-1.3zm2.6 0h1.3v.65h-1.3zm-85.68 0h1.3v.65h-1.3zm-44.13 0h1.3v.65h-1.3zm2.59 0h1.3v.65h-1.3zm-7.78 0h1.3v.65h-1.3zm10.38 0h1.3v.65h-1.3zm-12.98 0h1.3v.65h-1.3zm-5.19 0h1.3v.65h-1.3zm20.77 0h1.3v.65h-1.3zm-18.18 0h1.3v.65h-1.3zm7.79 0h1.3v.65h-1.3zm15.58 0h1.3v.65h-1.3zm-2.6 0h1.3v.65H112zm-37.12 0h1.3v.65h-1.3zm-20.18 0H56v.65h-1.3zm-2.6 0h1.3v.65h-1.3zm5.19 0h1.3v.65h-1.3zm10.39 0h1.3v.65h-1.3zm-18.18 0h1.3v.65h-1.3zm10.39 0h1.3v.65h-1.3zm-7.92-8.14h.65v1.3h-.65zm0 2.6h.65v1.3h-.65zm0-5.19h.65v1.3h-.65zm-3.27 47.79h.63v1.27h-.63zm62.04-69.31h1.27v.63h-1.27zm106.6 0h1.27v.63h-1.27zm65.77 40.84h.63v1.27h-.63zm-152.07-40.84h1.27v.63h-1.27zm-25.38 0h1.27v.63h-1.27zm22.85 0h1.27v.63h-1.27zm91.37 0h1.27v.63h-1.27zM48.7 370.51h.63v1.27h-.63zm89.96-71.85h1.27v.63h-1.27zm2.54 0h1.27v.63h-1.27zm-5.08 0h1.27v.63h-1.27zM48.7 375.58h.63v1.27h-.63zm166.11-76.92h1.27v.63h-1.27zm-111.68 0h1.27v.63h-1.27zm131.98 0h1.27v.63h-1.27zM48.7 373.04h.63v1.27h-.63zm183.87-74.38h1.27v.63h-1.27zm-111.68 0h1.27v.63h-1.27zm-5.07 0h1.27v.63h-1.27zm114.21 0h1.27v.63h-1.27zm-111.68 0h1.27v.63h-1.27zM48.7 362.89h.63v1.27h-.63zm0-2.54h.63v1.27h-.63zm178.8-61.69h1.27v.63h-1.27zm-114.22 0h1.27v.63h-1.27zm-5.08 0h1.27v.63h-1.27zm35.54 0h1.27v.63h-1.27zm-17.77 0h1.27v.63h-1.27zM48.7 365.43h.63v1.27h-.63zm173.72-66.77h1.27v.63h-1.27zM48.7 357.82h.63v1.27h-.63zm74.73-59.16h1.27v.63h-1.27zm101.53 0h1.27v.63h-1.27zm-91.38 0h1.27v.63h-1.27zm149.53 48.45h.63v1.27h-.63zm-111.45-48.45h1.27v.63h-1.27zM48.7 390.81h.63v1.27h-.63zm150.88-92.15h1.27v.63h-1.27zm-25.39 0h1.27v.63h-1.27zm-5.07 0h1.27v.63h-1.27zm43.15 0h1.27v.63h-1.27zm-45.69 0h1.27v.63h-1.27zm-65.99 0h1.27v.63h-1.27zm182.52 35.76h.63v1.27h-.63zm0-2.54h.63v1.27h-.63zm0 10.15h.63v1.27h-.63zm0 7.62h.63v1.27h-.63zm0-12.69h.63v1.27h-.63zm-86.07-38.3h1.27v.63h-1.27zm-20.31 0H178v.63h-1.27zm106.38 45.91h.63v1.27h-.63zm-103.84-45.91h1.27v.63h-1.27zM48.7 393.35h.63v1.27h-.63zm0-5.08h.63v1.27h-.63zm0-7.61h.63v1.27h-.63zm105.19-82h1.27v.63h-1.27zm53.3 0h1.27v.63h-1.27zm-55.84 0h1.27v.63h-1.27zm131.76 56.06h.63v1.27h-.63zm-73.38-56.06H211v.63h-1.27zM48.7 378.12h.63v1.27h-.63zm97.57-79.46h1.27v.63h-1.27zm2.54 0h1.27v.63h-1.27zm10.15 0h1.27v.63h-1.27zm2.54 0h1.27v.63h-1.27zM48.7 385.74h.63v1.27h-.63zm155.95-87.08h1.27v.63h-1.27zm78.46 53.53h.63v1.27h-.63zm-119.07-53.53h1.27v.63h-1.27zm38.07 0h1.27v.63h-1.27zm81 58.6h.63v1.27h-.63zM48.7 383.2h.63v1.27h-.63zm107.73-84.54h1.27v.63h-1.27zm35.53 0h1.27v.63h-1.27zm2.54 0h1.27v.63h-1.27zm78.68 0h1.27v.63h-1.27zm-83.76 0h1.27v.63h-1.27zm86.3 0h1.27v.63h-1.27zm8.03 18.8h.71v-.65h-.71v-.16h-.64v1.27h.64v-.46m-5.49-18.8h1.27v.63h-1.27zM48.7 301.98h.63v1.27h-.63zm135.65-3.32h1.27v.63h-1.27zm2.53 0h1.27v.63h-1.27zm73.61 0h1.27v.63h-1.27zm5.08 0h1.27v.63h-1.27zm-2.54 0h1.27v.63h-1.27zM48.7 332.43h.63v1.27h-.63zm219.41-33.77h1.27v.63h-1.27zM53.27 457.31h1.27v.63h-1.27zm-2.54 0H52v.63h-1.27zm219.92-158.65h1.27v.63h-1.27zm12.46 15.45h.63v1.27h-.63zM48.7 355.28h.63v1.27h-.63zm0-35.54h.63v1.27h-.63zm234.41-15.78h.63v1.27h-.63zM48.7 312.13h.63v1.27h-.63zm234.41-5.63h.63v1.27h-.63zM48.7 309.59h.63v1.27h-.63zm0-5.08h.63v1.27h-.63zm0 2.54h.63v1.27h-.63zm234.41-5.63h.63v1.27h-.63zM48.7 324.82h.63v1.27h-.63zm3.66-26.16h1.27v.63h-1.27zm230.75 12.92h.63v1.27h-.63zM48.7 322.28h.63v1.27h-.63zm234.41-13.24h.63v1.27h-.63zm0 17.76h.63v1.27h-.63zm0-5.07h.63V323h-.63zm0 2.54h.63v1.27h-.63zm-234.41-9.6h.63v1.27h-.63zm0 32.99h.63v1.27h-.63zm34.12-49h1.27v.63h-1.27zm2.54 0h1.27v.63h-1.27zm157.37 0H244v.63h-1.27zM48.7 345.13h.63v1.27h-.63zm39.2-46.47h1.27v.63H87.9zm-7.62 0h1.27v.63h-1.27zm164.98 0h1.27v.63h-1.27zm-147.21 0h1.27v.63h-1.27zm139.6 0h1.27v.63h-1.27zm-142.14 0h1.27v.63h-1.27zM48.7 352.74h.63v1.27h-.63zm29.04-54.08h1.27v.63h-1.27zm162.45 0h1.27v.63h-1.27zm-147.22 0h1.27v.63h-1.27zm-2.54 0h1.27v.63h-1.27zM48.7 350.2h.63v1.27h-.63zm0-10.15h.63v1.27h-.63zm206.72-41.39h1.27v.63h-1.27zm-195.44 0h1.27v.63h-1.27zm5.07 0h1.27v.63h-1.27zm-2.54 0h1.27v.63h-1.27zm185.29 0h1.27v.63h-1.27zm-192.9 0h1.27v.63H54.9zm2.54 0h1.27v.63h-1.27zm-8.74 36.31h.63v1.27h-.63zm0 2.54h.63v1.27h-.63zm70.57 119.8h1.27v.63h-1.27zM48.7 342.59h.63v1.27h-.63zm23.97-43.93h1.27v.63h-1.27zm2.54 0h1.27v.63h-1.27zm177.67 0h1.27v.63h-1.27zm-182.75 0h1.27v.63h-1.27zm-2.54 0h1.27v.63h-1.27zm190.36 0h1.27v.63h-1.27zm-7.61 0h1.27v.63h-1.27zm-50.57 158.65h1.27v.63h-1.27zm-128.73 0h1.27v.63h-1.27zm-2.54 0h1.27v.63H68.5zm5.08 0h1.27v.63h-1.27zm123.65 0h1.27v.63h-1.27zm5.08 0h1.27v.63h-1.27zm80.8-97.51h.63v1.27h-.63zM65.96 457.31h1.27v.63h-1.27zm138.89 0h1.27v.63h-1.27zm-126.2 0h1.27v.63h-1.27zm2.54 0h1.27v.63h-1.27zm105.89 0h1.27v.63h-1.27zm-103.35 0H85v.63h-1.27zm100.81 0h1.27v.63h-1.27zm-98.27 0h1.27v.63h-1.27zm105.89 0h1.27v.63h-1.27zm-2.54 0h1.27v.63h-1.27zm5.08 0h1.27v.63h-1.27zm-131.28 0h1.27v.63h-1.27zm12.7 0h1.27v.63h-1.27zm149.03 0h1.27v.63h-1.27zm2.54 0h1.27v.63h-1.27zM48.7 454.27h.63v1.27h-.63zm181.53 3.04h1.27v.63h-1.27zM48.7 451.73h.63V453h-.63zm186.61 5.58h1.27v.63h-1.27zM48.7 446.65h.63v1.27h-.63zm184.07 10.66h1.27v.63h-1.27zM48.7 449.19h.63v1.27h-.63zm171.38 8.12h1.27v.63h-1.27zm-161.73 0h1.27v.63h-1.27zm156.65 0h1.27v.63H215zm7.62 0h1.27v.63h-1.27zm-161.73 0h1.27v.63h-1.27zm151.57 0h1.27v.63h-1.27zm-156.65 0h1.27v.63h-1.27zm161.73 0h1.27v.63h-1.27zm-7.62 0h1.27v.63h-1.27zm-108.42 0h1.27v.63h-1.27zm80.5 0h1.27v.63H182zm-42.43 0h1.27v.63h-1.27zm-2.54 0h1.27v.63h-1.27zm-27.92 0h1.27v.63h-1.27zm72.7-158.65h1.27v.63h-1.27zm-39.7 158.65h1.27v.63h-1.27zm-38.07 0h1.27v.63h-1.27zm43.15 0h1.27v.63h-1.27zm-2.54 0h1.27v.63h-1.27zm-10.16 0h1.27v.63h-1.27zm-12.69 0h1.27v.63h-1.27zm2.54 0h1.27v.63h-1.27zm-7.61 0H118v.63h-1.27zm-2.54 0h1.27v.63h-1.27zm12.69 0h1.27v.63h-1.27zm-15.23 0h1.27v.63h-1.27zm17.77 0h1.27v.63h-1.27zm2.54 0h1.27v.63h-1.27zm-25.39 0h1.27v.63h-1.27zm62.74 0h1.27v.63h-1.27zm-2.54 0h1.27v.63h-1.27zm-72.89 0h1.27v.63h-1.27zm-2.54 0h1.27v.63h-1.27zm73.61 0h1.27v.63h-1.27zm6.9 0h1.27v.63h-1.27zm7.62 0h1.27v.63h-1.27zm-90.66 0h1.27v.63h-1.27zm85.58 0h1.27v.63h-1.27zm-11.98 0h1.27v.63h-1.27zm-7.61 0h1.27v.63h-1.27zm-106.1-13.2h.63v1.27h-.63zm108.64 13.2h1.27v.63h-1.27zm-5.08 0h1.27v.63h-1.27zm7.62 0h1.27v.63h-1.27zm-60.92 0h1.27v.63h-1.27zm50.76 0h1.27v.63h-1.27zm-53.3 0h1.27v.63h-1.27zm110.97 0h1.27v.63h-1.27zm75.72-34.05h.63v1.27h-.63zm0-15.23h.63v1.27h-.63zm0 22.84h.63v1.27h-.63zm0-2.54h.63v1.27h-.63zm0-2.54h.63v1.27h-.63zm0-12.69h.63v1.27h-.63zm0-2.54h.63v1.27h-.63zm0 7.62h.63v1.27h-.63zm0-2.54h.63v1.27h-.63zm0 5.08h.63v1.27h-.63zm0 27.92h.63v1.27h-.63zm0-2.54h.63v1.27h-.63zm0-2.54h.63v1.27h-.63zm0 7.62h.63v1.27h-.63zm0-12.7h.63v1.27h-.63zm0-2.53h.63v1.27h-.63zm0 5.07h.63v1.27h-.63zm0-7.61h.63v1.27h-.63zm0-27.92h.63v1.27h-.63zm0-22.85h.63v1.27h-.63zm0-10.15h.63v1.27h-.63zm0 5.08h.63v1.27h-.63zm0 2.54h.63v1.27h-.63zm0-5.08h.63v1.27h-.63zm0-10.15h.63v1.27h-.63zm0-2.54h.63v1.27h-.63zm-45.27 94.97h1.27v.63h-1.27zm45.27-89.89h.63v1.27h-.63zm0 25.38h.63v1.27h-.63zm0 7.61h.63v1.27h-.63zm0-15.23h.63v1.27h-.63zm0 17.77h.63v1.27h-.63zm0-7.61h.63v1.27h-.63zm0 2.53h.63v1.27h-.63zm0 55.84h.63v1.27h-.63zm0-65.99h.63v1.27h-.63zm0 2.54h.63v1.27h-.63zm0-20.31h.63v1.27h-.63zm-30.04 87.36h1.27v.63h-1.27zM48.7 431.42h.63v1.27h-.63zm0-2.53h.63v1.27h-.63zm201.84 28.42h1.27v.63h-1.27zM48.7 426.35h.63v1.27h-.63zm209.45 30.96h1.27v.63h-1.27zM48.7 421.27h.63v1.27h-.63zm0 2.54h.63v1.27h-.63zm206.91 33.5h1.27v.63h-1.27zm5.08 0h1.27v.63h-1.27zM48.7 439.04h.63v1.27h-.63zM248 457.31h1.27v.63H248zM48.7 441.58h.63v1.27h-.63zm194.22 15.73h1.27v.63h-1.27zm-2.54 0h1.27v.63h-1.27zM48.7 433.96h.63v1.27h-.63zm0 2.54h.63v1.27h-.63zm196.76 20.81h1.27v.63h-1.27zm35.53 0h1.27v.63h-1.27zm-5.07 0h1.27v.63h-1.27zm-98.99 0h1.27v.63h-1.27zM48.7 406.04h.63v1.27h-.63zm0-2.54h.63v1.27h-.63zm0-7.61h.63v1.27h-.63zm224.68 61.42h1.27v.63h-1.27zM48.7 400.96h.63v1.27h-.63zm229.76 56.35h1.27v.63h-1.27zM48.7 398.43h.63v1.27h-.63zm214.53 58.88h1.27v.63h-1.27zM48.7 416.19h.63v1.27h-.63zm217.06 41.12h1.27v.63h-1.27zM48.7 418.73h.63V420h-.63zm0-10.15h.63v1.27h-.63zm0 5.08h.63v1.27h-.63zm222.14 43.65h1.27v.63h-1.27zM48.7 411.12h.63v1.27h-.63zm219.6 46.19h1.27v.63h-1.27zm-73.15-134.44h.97v2.6h-.97zm17.53 0h.97v2.6h-.97zm1.95 0h.97v2.6h-.97zm-3.9 0h.97v2.6h-.97zm-5.84 0h.97v2.6h-.97zm11.68 0h.97v2.6h-.97zm-7.78 0h.97v2.6h-.97zm-1.95 0h.97v2.6h-.97zm19.47 0h.97v2.6h-.97zm-7.79 0h.97v2.6h-.97zm5.84 0h.97v2.6h-.97zm3.9 0h.97v2.6h-.97zm-5.84 0h.97v2.6h-.97zm-1.95 0h.97v2.6h-.97zm-35.05 0h.97v2.6h-.97zm1.95 0h.97v2.6h-.97zm-3.9 0h.97v2.6h-.97zm-5.84 0h.97v2.6h-.97zm3.89 0h.97v2.6h-.97zm-1.94 0h.97v2.6h-.97zm-99.31 0h.97v2.6h-.97zm118.78 0h.97v2.6h-.97zm1.95 0h.97v2.6H201zm1.94 0h.97v2.6h-.97zm-9.73 0h.97v2.6h-.97zm3.89 0h.97v2.6h-.97zm-7.79 0h.97v2.6h-.97zm70.1 0h.97v2.6h-.97zm-29.21 0h.97v2.6h-.97zm23.37 0h.97v2.6h-.97zm11.68 0h.97v2.6h-.97zm-9.73 0h.97v2.6h-.97zm1.94 0h.97v2.6h-.97zm5.85 0h.97v2.6h-.97zm9.73 0h.97v2.6h-.97zm1.95 0h.97v2.6h-.97zm-3.9 0h.97v2.6h-.97zm-1.94 0h.97v2.6h-.97zm-1.95 0h.97v2.6h-.97zm-5.84 0h.97v2.6h-.97zm-21.42 0h.97v2.6h-.97zm-3.9 0h.97v2.6h-.97zm1.95 0h.97v2.6h-.97zm-3.89 0h.97v2.6h-.97zm-1.95 0h.97v2.6h-.97zm9.74 0h.97v2.6h-.97zm9.73 0h.97v2.6h-.97zm-1.94 0h.97v2.6h-.97zm-1.95 0h.97v2.6h-.97zm-3.9 0h.97v2.6h-.97zm1.95 0h.97v2.6h-.97zm-54.52 0h.97v2.6h-.97zm-79.83 0h.97v2.6h-.97zm-1.95 0h.97v2.6h-.97zm5.84 0h.97v2.6h-.97zm-1.95 0h.97v2.6h-.97zm62.31 0h.97v2.6h-.97zm-68.15 0h.97v2.6h-.97zm15.58 0h.97v2.6h-.97zm1.95 0h.97v2.6h-.97zm-21.42 0h.97v2.6h-.97zm13.63 0h.97v2.6h-.97zm3.89 0h.97v2.6h-.97zm-1.95 0h.97v2.6h-.97zm-17.52 0h.97v2.6h-.97zm25.31 0h.97v2.6H127zm-40.89 0h.97v2.6h-.97zm1.95 0h.97v2.6h-.97zm-5.84 0h.97v2.6h-.97zm1.95 0h.97v2.6h-.97zm5.84 0h.97v2.6h-.97zm7.79 0h.97v2.6h-.97zm1.94 0h.97v2.6h-.97zm-7.79 0h.97v2.6h-.97zm3.9 0h.97v2.6h-.97zm-1.95 0h.97v2.6h-.97zm11.68 0h.97v2.6h-.97zm54.53 0h.97v2.6h-.97zm3.89 0h.97v2.6H164zm-1.95 0h.97v2.6h-.97zm-3.89 0h.97v2.6h-.97zm-1.95 0h.97v2.6h-.97zm-1.95 0h.97v2.6h-.97zm19.48 0h.97v2.6h-.97zm-1.95 0h.97v2.6h-.97zm-19.47 0h.97v2.6h-.97zm15.57 0h.97v2.6h-.97zm-1.94 0h.97v2.6h-.97zm3.89 0h.97v2.6h-.97zm-40.89 0h.97v2.6h-.97zm5.84 0h.97v2.6h-.97zm1.95 0h.97v2.6h-.97zm-5.84 0h.97v2.6h-.97zm7.79 0h.97v2.6h-.97zm-5.85 0h.97v2.6h-.97zm7.79 0h.97v2.6h-.97zm7.79 0h.97v2.6h-.97zm-1.94 0h.97v2.6h-.97zm-3.9 0h.97v2.6h-.97zm7.79 0h.97v2.6h-.97zm-5.84 0h.97v2.6h-.97zM43.64 109.1l-1.97-1.69-.64.74 1.98 1.68.63-.73m74.38-41.63l-.55-2.53-.96.21.56 2.53.95-.21m-5.65 1.32l-.63-2.52-.95.25.64 2.51.94-.24m1.88-.46l-.61-2.52-.95.23.62 2.52.94-.23m5.66-1.26l-.53-2.54-.96.2.54 2.54.95-.2m-3.78.82l-.58-2.53-.96.22.6 2.53.94-.22m5.67-1.2l-.5-2.54-.96.18.51 2.55.95-.19m3.81-.7l-.45-2.56-.97.17.46 2.56.96-.17m1.9-.32l-.42-2.57-.97.17.44 2.56.95-.16m-3.81.66l-.47-2.55-.96.18.48 2.55.95-.18m-16.93 3.97l-.71-2.5-.95.28.73 2.49.93-.27m-9.19 2.94l-.87-2.45-.92.33.88 2.44.91-.32m1.82-.63l-.84-2.46-.92.32.85 2.45.91-.31m1.83-.61l-.8-2.47-.94.31.83 2.46.91-.3m-5.47 1.9l-.89-2.44-.93.34.92 2.43.9-.33m33.66-8.54l-.39-2.56-.97.15.41 2.56.95-.15m-18.92 3.91l-.66-2.51-.95.26.67 2.5.94-.25m-7.42 2.14l-.79-2.48-.93.3.79 2.47.93-.29m5.55-1.64l-.69-2.5-.94.26.7 2.5.93-.26m-3.71 1.07l-.75-2.48-.94.28.76 2.48.93-.28m54.314-10.66l.97-.023.058 2.6-.97.02zm-4.774 2.76l-.12-2.6-.97.05.12 2.59.97-.04m-5.8.32l-.18-2.59-.97.06.18 2.59.97-.06m1.93-.13l-.15-2.59-.98.06.16 2.59.97-.06m5.81-.27l-.1-2.59-.98.03.11 2.6.97-.04m-3.88.17l-.13-2.59-.98.05.15 2.59.96-.05m10.69-3.082l.97-.01.027 2.6-.97.01zm-1 2.762l-.04-2.59-.98.01.05 2.6.97-.02M93.95 74.57l-.92-2.42-.92.35.95 2.42.89-.35m64.38-11.77l-.07-2.6-.98.03.08 2.6.97-.03m-23.16 1.75l-.33-2.57-.97.12.34 2.58.96-.13m3.84-.45l-.28-2.58-.97.11.29 2.58.96-.11m-7.67.97l-.38-2.56-.97.14.39 2.57.96-.15m5.75-.75l-.3-2.58-.97.12.31 2.57.96-.11m-3.84.49l-.35-2.58-.97.14.36 2.57.96-.13m11.54-1.26l-.21-2.59-.98.08.23 2.59.96-.08m1.93-.16l-.19-2.59-.97.08.2 2.59.96-.08m-3.85.32l-.24-2.58-.97.09.24 2.58.97-.09m-1.93.19l-.26-2.58-.97.1.27 2.58.96-.1M79.87 80.86l-1.19-2.31-.87.45 1.21 2.3.85-.44M53.02 99.45l-1.75-1.92-.72.67 1.77 1.9.7-.65m-1.4 1.31l-1.79-1.89-.71.68 1.8 1.87.7-.66m-1.39 1.33l-1.81-1.86-.7.69 1.83 1.84zm-1.36 1.36l-1.85-1.82-.69.7 1.86 1.81.68-.69m10-9.02l-1.62-2.02-.77.62 1.64 2.01.75-.61m-1.49 1.22l-1.66-2-.75.63 1.67 1.99.74-.62m-9.86 9.18l-1.87-1.79-.68.71 1.89 1.78.66-.7m6.93-6.67l-1.72-1.95-.73.66 1.74 1.93.71-.64m1.46-1.27l-1.69-1.97-.75.64 1.71 1.96.73-.63m-9.71 9.34l-1.9-1.76-.67.72 1.92 1.75.65-.71m14.18-12.99l-1.59-2.05-.77.61 1.61 2.03.75-.59m-22.73 23.4l-2.09-1.53-.58.8 2.11 1.51zm-2.22 3.15l-2.15-1.47-.55.82 2.16 1.44.54-.79m3.37-4.7l-2.08-1.56-.59.78 2.09 1.55.58-.77m-2.28 3.11l-2.12-1.49-.56.8 2.13 1.48.55-.79m5.87-7.63l-1.99-1.67-.63.76 2 1.65.62-.74m-2.42 2.99l-2.05-1.59-.6.77 2.06 1.59.59-.77m4.94-5.9L43 105.92l-.66.74 1.95 1.71zm-3.74 4.4l-2-1.63-.62.77 2 1.61zm43.9-33.74l-1.09-2.36-.89.42 1.1 2.35.88-.41m-3.48 1.67l-1.15-2.33-.88.44 1.17 2.32.86-.43m-5.12 2.68l-1.25-2.27-.86.48 1.27 2.26.84-.47m88.644-22.59h.97l.004 2.6h-.97zM78.16 81.75l-1.22-2.29-.86.47 1.23 2.28.85-.46m5.16-2.61L82.2 76.8l-.88.43 1.13 2.33.87-.42m8.84-3.86l-.96-2.42-.91.37.97 2.41.9-.36M61.91 92.07L60.35 90l-.78.59 1.58 2.06.76-.58M90.37 76l-.99-2.4-.91.38 1.01 2.39.89-.37m-3.54 1.52l-1.06-2.37-.9.41 1.07 2.36.89-.4m1.76-.77l-1.02-2.39-.9.39 1.04 2.38.88-.38M68.22 87.64l-1.43-2.17-.81.55 1.44 2.16.8-.54m6.57-4.02l-1.29-2.26-.85.5 1.3 2.24.84-.48m-9.76 6.19l-1.49-2.13-.8.57 1.51 2.11.78-.55m-1.57 1.12l-1.52-2.1-.79.58 1.54 2.09.77-.57m3.16-2.22l-1.46-2.14-.81.55 1.47 2.14.8-.55m3.22-2.11l-1.39-2.19-.83.53 1.41 2.18.81-.52m3.28-2.01l-1.32-2.24-.84.51 1.34 2.22.82-.49m-1.65.99l-1.35-2.21-.84.52 1.38 2.2.81-.51m222.01 29.29l2.07-1.57-.6-.78-2.05 1.59zm-31.11-28.42l1.38-2.2-.83-.52-1.37 2.21.82.51m-1.64-1.02l1.35-2.21-.84-.51-1.33 2.23.82.49m-1.65-.99l1.31-2.23-.84-.5-1.3 2.25.83.48m4.91 3.05l1.42-2.18-.83-.53-1.4 2.19.81.52m-6.58-4.01l1.28-2.26-.85-.48-1.27 2.26.84.48m12.9 8.42l1.55-2.08-.79-.58-1.54 2.09.78.57m-1.56-1.14l1.52-2.1-.8-.58-1.5 2.12.78.56m-3.16-2.2l1.46-2.16-.82-.54-1.44 2.16.8.54m1.59 1.09l1.49-2.13-.81-.56-1.47 2.14.79.55m-18.32-10.63l1.12-2.34-.89-.42-1.1 2.35.87.41m-3.5-1.61l1.05-2.38-.9-.39-1.03 2.38.88.39m1.76.79l1.08-2.36-.89-.4-1.07 2.36.88.4m-3.53-1.56l1.02-2.39-.9-.38-1.01 2.39.89.38m-1.78-.75l.99-2.4-.91-.37-.97 2.41.89.36m8.79 3.97l1.15-2.33-.88-.43-1.14 2.34.87.42m3.43 1.76l1.22-2.29-.87-.46-1.2 2.3.85.45m17.81 11.45l1.59-2.06-.78-.59-1.58 2.06.77.59m-19.52-12.34l1.19-2.31-.88-.45-1.17 2.32.86.44m3.41 1.81l1.25-2.28-.86-.47-1.24 2.29.85.46m23.48 16.71l1.75-1.92-.73-.65-1.73 1.93.71.64m9.41 9.64l2-1.7-.65-.74-1.97 1.72zm1.25 1.46l1.99-1.66-.63-.76-1.98 1.69.62.73M168.03 60.09h-.97l-.01 2.6h.97l.01-2.6m119.32 47.36l1.93-1.74-.66-.73-1.92 1.75.65.72m-14-13.19l1.62-2.03-.77-.61-1.6 2.04.75.6m18.95 19.08l2.04-1.6-.61-.77-2.03 1.62.6.75m2.33 3.07l2.1-1.53-.59-.8-2.08 1.56.57.77M286 106l1.9-1.76-.67-.72-1.89 1.78zm10.86 13.55l2.14-1.46-.56-.81-2.13 1.48.55.79m-1.1-1.58l2.12-1.5-.58-.8-2.1 1.52.56.78M277.78 98l1.72-2-.74-.65-1.7 2zm-37.76-22.83l.96-2.41-.92-.36-.94 2.42.9.35m36.3 21.54l1.69-1.98-.75-.63-1.67 1.99.73.62m-1.47-1.24l1.65-2-.76-.63-1.64 2.02.75.61m8.53 7.78l1.84-1.83-.69-.7-1.83 1.85.68.68m1.35 1.38l1.87-1.8-.69-.71-1.85 1.82.67.69m-2.72-2.73l1.82-1.86-.71-.69-1.8 1.88.69.67m-1.39-1.34l1.78-1.89-.71-.67-1.77 1.91.7.65m10.48 11.28l2.02-1.64-.63-.76-2 1.65.61.75M189.53 61.1l-.98-.08-.22 2.58.96.09.24-2.59m3.89.39l-.97-.1-.26 2.58.96.1.27-2.58m-1.94-.2l-.98-.1-.24 2.59.96.09.26-2.58m-3.9-.35l-.98-.08-.2 2.59.97.07.21-2.58m-1.95-.16l-.98-.07-.18 2.59.97.07.19-2.59m13.63 1.41l-.97-.13-.34 2.58.96.13.35-2.58m-3.89-.48l-.97-.11-.29 2.58.96.11.3-2.58m5.83.75l-.97-.13-.36 2.57.96.13.37-2.57m1.93.29l-.96-.15-.39 2.57.96.15.39-2.57m-5.82-.81l-.97-.12-.31 2.58.96.12.32-2.58m-23.41-1.75l-.98-.02-.06 2.59.97.03.07-2.6m-1.95-.04l-.98-.02-.05 2.59.97.02.06-2.59m-2.967 2.543l.03-2.6.97.01-.03 2.6zm6.877-2.433l-.98-.04-.08 2.6.96.03.1-2.59m5.86.27l-.98-.06-.14 2.59.97.06.15-2.59m1.96.12l-.98-.06-.16 2.59.96.06.18-2.59m-3.91-.23l-.98-.05-.12 2.6.97.04.13-2.59m-1.96-.09l-.97-.04-.11 2.59.97.04.11-2.59m40.71 5.41l-.95-.22-.59 2.53.94.22.6-2.53m9.48 2.53l-.94-.27-.73 2.49.92.27.75-2.49m-1.89-.55l-.94-.26-.7 2.5.93.26.71-2.5m-1.89-.52l-.94-.26-.67 2.51.93.25.68-2.5m-1.89-.51l-.95-.25-.64 2.52.93.24.66-2.51m7.54 2.15l-.94-.28-.75 2.48.92.28.77-2.48m7.44 2.52l-.92-.33-.88 2.44.91.33.89-2.44m-1.85-.66l-.93-.33-.84 2.46.91.32.86-2.45m-3.72-1.26l-.93-.3-.79 2.47.92.3.8-2.47m1.86.62l-.93-.32-.81 2.47.92.31.82-2.46m-20.82-5.59l-.96-.19-.51 2.55.95.19.52-2.55m-1.93-.38l-.96-.18-.48 2.55.95.18.49-2.55m-1.92-.36l-.96-.18-.46 2.56.95.17.47-2.55m-3.86-.67l-.97-.16-.4 2.57.95.15.42-2.56m1.93.32l-.97-.16-.43 2.56.96.16.44-2.56m32.15 8.67l-.92-.35-.91 2.43.9.34.93-2.42m-18.72-5.85l-.95-.23-.62 2.52.94.23.63-2.52m-5.73-1.32l-.96-.21-.53 2.54.94.2.55-2.53m1.91.42l-.95-.22-.57 2.54.95.21.57-2.53M76.16 341a.69.69 0 0 0 .57.35h1.02a.71.71 0 0 0 .2-.08l.72-.44a.69.69 0 0 0 .33-.59v-2.36a.48.48 0 0 0-.9-.09.35.35 0 0 1-.1.21l-.86.53H76a.38.38 0 0 1-.18-.06.48.48 0 0 0-.4-.07.48.48 0 0 0-.42.6zm-.26-1.87l1 .05a.88.88 0 0 0 .28 0 1 1 0 0 0 .27-.11l.87-.54v1.83l-.75.45-.88-.07-.88-1.56h.09z"
        class="a"/>
    <path
        d="M74.57 343.95a.7.7 0 0 0 .54.3l3.25.16h.17a.69.69 0 0 0 .19-.08l2.76-1.71a.7.7 0 0 0 .33-.52l.24-2.47v-.17a.48.48 0 0 0-.89-.1.38.38 0 0 1-.14.15l-3.13 1.93h-.2l-3.69-.15a.37.37 0 0 1-.19-.06.48.48 0 0 0-.74.52l1.47 2.2zm-.57-2l3.67.18a1.05 1.05 0 0 0 .31 0 1 1 0 0 0 .28-.12l3.11-2.01-.21 2-2.79 1.71-3.25-.16-1.12-1.61z"
        class="a"/>
    <path
        d="M77.21 347.15l1.87.09h.18a.71.71 0 0 0 .19-.08l1.59-1a.57.57 0 0 0 .25-.62.53.53 0 0 0-.08-.18l-.88-1.36a.57.57 0 0 0-.62-.24l-1 .61h-.24l-1-.05h-.17a.57.57 0 0 0-.42.5l-.15 1.6a.57.57 0 0 0 0 .19.57.57 0 0 0 .48.54zm.25-2.08h1A1 1 0 0 0 79 345l.82-.51.82 1.19-1.54.94-1.78-.09zm-1.53 9.17a5.51 5.51 0 1 0 5.51-5.51 5.51 5.51 0 0 0-5.51 5.51zm10.37 0a4.86 4.86 0 1 1-4.86-4.86 4.86 4.86 0 0 1 4.86 4.86zm205.27 85.57a1.45 1.45 0 0 0-.81-.24 1.43 1.43 0 0 0-1 .42 1.45 1.45 0 0 0-.42 1v1.56h3.94v-.84h-1.06v-.62l1.06-.71v-1l-1.25.84a1.41 1.41 0 0 0-.46-.41zm-.12 1.91h-1.38V441a.56.56 0 0 1 .19-.42.79.79 0 0 1 1 0 .56.56 0 0 1 .19.42v.72zm1.8-23.27h-1.06v-.62l1.06-.71v-1L292 417a1.41 1.41 0 0 0-.44-.47 1.45 1.45 0 0 0-.81-.24 1.43 1.43 0 0 0-1 .42 1.45 1.45 0 0 0-.42 1v1.56h3.94v-.84zm-1.8 0h-1.38v-.72a.56.56 0 0 1 .19-.42.79.79 0 0 1 1 0 .56.56 0 0 1 .19.42v.72zm1.05 18.51h-.92v-1.54h-.75v1.54h-.77v-1.88h-.75v2.72h3.94v-2.81h-.75v1.97m.75-11.27h-.75v1.97h-.92v-1.53h-.75v1.53h-.77v-1.88h-.75v2.72h3.94v-2.81m0-4.62h-.75v1.84h-3.19v.84h3.94v-2.68m-3.94 11.6l.01-.02h-.01v.02m3.96-36.26a.76.76 0 0 0 "
        class="a"/>
    <path d="M289.31 433.75l3.57-1.23a.45.45 0 0 0 .25-.29l.14-.44-.14-.44a.45.45 0 0 0-.25-.29l-3.57-1.23v.89l3.15 1.08-3.15 1.08v.89z" class="a"/>
</svg>
