<svg xmlns="http://www.w3.org/2000/svg" viewBox="0 0 306.08 316.88">
    <defs>
        <style>
            .a {
                fill: #231f20;
            }
        </style>
    </defs>
    <path
        d="M153.04 316.88a14.66 14.66 0 0 1-4.27-.63l-62.78-19.54a10.1 10.1 0 0 1-6.49-13l19.21-53.07a10.1 10.1 0 0 1 12.57-6.3l35 10.9a23 23 0 0 0 13.46 0l35-10.9a10.1 10.1 0 0 1 12.56 6.31l19.2 53.05a10.1 10.1 0 0 1-6.49 13l-62.7 19.55a14.65 14.65 0 0 1-4.27.63zm-44.81-90a7.1 7.1 0 0 0-6.7 4.77l-19.21 53.08a7.1 7.1 0 0 0 4.56 9.13l62.77 19.53a11.79 11.79 0 0 0 6.77 0l62.77-19.53a7.1 7.1 0 0 0 4.56-9.14l-19.21-53.08a7.1 7.1 0 0 0-8.84-4.44l-35.04 10.94a26 26 0 0 1-15.24 0l-35-10.9a7.1 7.1 0 0 0-2.19-.37zm44.81-13.17a14.67 14.67 0 0 1-4.33-.65l-109.17-34a14.75 14.75 0 0 1-9.36-8.85L.44 88.14a7 7 0 0 1 11.83-7.06 22.76 22.76 0 0 0 10.47 6.84l123.5 38.41a23 23 0 0 0 13.61 0l123.49-38.41a22.75 22.75 0 0 0 10.46-6.82 7 7 0 0 1 11.83 7.04l-29.73 82.09a14.75 14.75 0 0 1-9.37 8.87l-109.17 34a14.67 14.67 0 0 1-4.32.6zM7 81.64a4 4 0 0 0-3.75 5.42l29.74 82.08a11.72 11.72 0 0 0 7.44 7l109.17 34a11.79 11.79 0 0 0 6.88 0l109.17-34a11.72 11.72 0 0 0 7.44-7l29.73-82.1a4 4 0 0 0-6.75-4.07 25.76 25.76 0 0 1-11.84 7.73l-123.5 38.44a26 26 0 0 1-15.39 0L21.85 90.73a25.73 25.73 0 0 1-11.83-7.72A4 4 0 0 0 7 81.64zm146 23a14.66 14.66 0 0 1-4.36-.66l-28.29-8.8a14.74 14.74 0 0 1-9.82-10.23L90.36 8.85a7 7 0 0 1-.26-1.83 7 7 0 0 1 12.34-4.58 22.84 22.84 0 0 0 10.12 6.7l34.24 10.64a22.69 22.69 0 0 0 12.51 0l34.22-10.64a22.75 22.75 0 0 0 10.06-6.63 7 7 0 0 1 12.38 4.53 7 7 0 0 1-.26 1.83l-20.22 76.12a14.75 14.75 0 0 1-9.82 10.23l-28.29 8.8a14.64 14.64 0 0 1-4.34.64zM97.11 3a4 4 0 0 0-3.86 5.07l20.23 76.13a11.72 11.72 0 0 0 7.81 8.14l28.29 8.8a11.79 11.79 0 0 0 6.93 0l28.29-8.8a11.72 11.72 0 0 0 7.81-8.14l20.22-76.12a4.08 4.08 0 0 0 .16-1.06 4 4 0 0 0-7.06-2.62 25.85 25.85 0 0 1-11.47 7.58l-34.29 10.65a25.57 25.57 0 0 1-14.22 0l-34.3-10.65a25.79 25.79 0 0 1-11.43-7.52A4.07 4.07 0 0 0 97.11 3z"
        class="a"/>
</svg>
