<svg width="335px" height="393px" viewBox="-15 -39 335 393" version="1.1" xmlns="http://www.w3.org/2000/svg" xmlns:xlink="http://www.w3.org/1999/xlink">
    <!-- Generator: Sketch 41 (35326) - http://www.bohemiancoding.com/sketch -->
    <desc>Created with Sketch.</desc>
    <defs></defs>
    <g id="Group" stroke="none" stroke-width="1" fill="none" fill-rule="evenodd" transform="translate(-15.000000, -39.000000)">
        <rect id="Rectangle" fill="#FFFFFF" x="0" y="0" width="335" height="393" rx="50"></rect>
        <path
            d="M168,143.64 C166.521703,143.641087 165.051744,143.41857 163.64,142.98 L135.35,134.18 C130.543674,132.671995 126.840258,128.813957 125.53,123.95 L105.36,47.85 C105.192824,47.2541743 105.105395,46.638811 105.1,46.02 C105.077153,43.0736354 106.901756,40.4283902 109.664086,39.4031494 C112.426416,38.3779085 115.535025,39.1921885 117.44,41.44 C120.147358,44.5451394 123.644157,46.8602135 127.56,48.14 L161.8,58.78 C165.887614,59.9522643 170.222386,59.9522643 174.31,58.78 L208.53,48.14 C212.418231,46.8742488 215.89344,44.5839276 218.59,41.51 C220.481948,39.2369367 223.598286,38.3981255 226.375606,39.4143823 C229.152926,40.4306391 230.99192,43.0826696 230.97,46.04 C230.964605,46.658811 230.877176,47.2741743 230.71,47.87 L210.49,123.99 C209.178058,128.853006 205.475307,132.710352 200.67,134.22 L172.38,143.02 C170.973689,143.450102 169.5106,143.665858 168.04,143.66 L168,143.64 Z"
            id="Path"
            fill="#231F20"></path>
        <path
            d="M168.04,252.71 C166.572277,252.71116 165.112691,252.492053 163.71,252.06 L54.54,218.06 C50.2286459,216.700238 46.7789342,213.438491 45.18,209.21 L15.44,127.14 C14.2501152,123.970516 15.4990034,120.403719 18.406138,118.668777 C21.3132726,116.933834 25.045389,117.528028 27.27,120.08 C30.0528303,123.292931 33.6797674,125.662391 37.74,126.92 L161.24,165.33 C165.672784,166.702997 170.417216,166.702997 174.85,165.33 L298.34,126.92 C302.394523,125.666769 306.017681,123.304441 308.8,120.1 C311.024718,117.562368 314.743306,116.973319 317.643385,118.699148 C320.543465,120.424977 321.799317,123.974302 320.63,127.14 L290.9,209.23 C289.304038,213.468375 285.849442,216.738627 281.53,218.1 L172.36,252.1 C170.957941,252.514138 169.501852,252.716373 168.04,252.7 L168.04,252.71 Z"
            id="Path"
            fill="#231F20"></path>
        <path
            d="M168.04,355.88 C166.593379,355.881828 165.154454,355.669528 163.77,355.25 L100.99,335.71 C98.3767606,334.8874 96.2098035,333.038499 94.9861027,330.587326 C93.7624019,328.136154 93.5869553,325.293029 94.5,322.71 L113.71,269.64 C115.510515,264.48948 121.076135,261.700028 126.28,263.34 L161.28,274.24 C165.666284,275.58221 170.353716,275.58221 174.74,274.24 L209.74,263.34 C214.943634,261.707316 220.503614,264.500586 222.3,269.65 L241.5,322.7 C242.413045,325.283029 242.237598,328.126154 241.013897,330.577326 C239.790197,333.028499 237.623239,334.8774 235.01,335.7 L172.31,355.25 C170.925579,355.669671 169.486632,355.881975 168.04,355.88 Z"
            id="Path"
            fill="#231F20"></path>
    </g>
</svg>
