<svg width="512px" height="512px" viewBox="0 0 512 512" version="1.1" xmlns="http://www.w3.org/2000/svg" xmlns:xlink="http://www.w3.org/1999/xlink">
    <!-- Generator: Sketch 41 (35326) - http://www.bohemiancoding.com/sketch -->
    <desc>Created with Sketch.</desc>
    <defs></defs>
    <g id="Group" stroke="none" stroke-width="1" fill="none" fill-rule="evenodd">
        <rect id="Rectangle" fill="#000000" x="0" y="0" width="512" height="512" rx="50"></rect>
        <path
            d="M256,214.64 C254.521703,214.641087 253.051744,214.41857 251.64,213.98 L223.35,205.18 C218.543674,203.671995 214.840258,199.813957 213.53,194.95 L193.36,118.85 C193.192824,118.254174 193.105395,117.638811 193.1,117.02 C193.077153,114.073635 194.901756,111.42839 197.664086,110.403149 C200.426416,109.377908 203.535025,110.192188 205.44,112.44 C208.147358,115.545139 211.644157,117.860214 215.56,119.14 L249.8,129.78 C253.887614,130.952264 258.222386,130.952264 262.31,129.78 L296.53,119.14 C300.418231,117.874249 303.89344,115.583928 306.59,112.51 C308.481948,110.236937 311.598286,109.398125 314.375606,110.414382 C317.152926,111.430639 318.99192,114.08267 318.97,117.04 C318.964605,117.658811 318.877176,118.274174 318.71,118.87 L298.49,194.99 C297.178058,199.853006 293.475307,203.710352 288.67,205.22 L260.38,214.02 C258.973689,214.450102 257.5106,214.665858 256.04,214.66 L256,214.64 Z"
            id="Path"
            fill="#FFFFFF"></path>
        <path
            d="M256.04,323.71 C254.572277,323.71116 253.112691,323.492053 251.71,323.06 L142.54,289.06 C138.228646,287.700238 134.778934,284.438491 133.18,280.21 L103.44,198.14 C102.250115,194.970516 103.499003,191.403719 106.406138,189.668777 C109.313273,187.933834 113.045389,188.528028 115.27,191.08 C118.05283,194.292931 121.679767,196.662391 125.74,197.92 L249.24,236.33 C253.672784,237.702997 258.417216,237.702997 262.85,236.33 L386.34,197.92 C390.394523,196.666769 394.017681,194.304441 396.8,191.1 C399.024718,188.562368 402.743306,187.973319 405.643385,189.699148 C408.543465,191.424977 409.799317,194.974302 408.63,198.14 L378.9,280.23 C377.304038,284.468375 373.849442,287.738627 369.53,289.1 L260.36,323.1 C258.957941,323.514138 257.501852,323.716373 256.04,323.7 L256.04,323.71 Z"
            id="Path"
            fill="#FFFFFF"></path>
        <path
            d="M256.04,426.88 C254.593379,426.881828 253.154454,426.669528 251.77,426.25 L188.99,406.71 C186.376761,405.8874 184.209804,404.038499 182.986103,401.587326 C181.762402,399.136154 181.586955,396.293029 182.5,393.71 L201.71,340.64 C203.510515,335.48948 209.076135,332.700028 214.28,334.34 L249.28,345.24 C253.666284,346.58221 258.353716,346.58221 262.74,345.24 L297.74,334.34 C302.943634,332.707316 308.503614,335.500586 310.3,340.65 L329.5,393.7 C330.413045,396.283029 330.237598,399.126154 329.013897,401.577326 C327.790197,404.028499 325.623239,405.8774 323.01,406.7 L260.31,426.25 C258.925579,426.669671 257.486632,426.881975 256.04,426.88 Z"
            id="Path"
            fill="#FFFFFF"></path>
    </g>
</svg>
